%TF.GenerationSoftware,KiCad,Pcbnew,10.0.3*%
%TF.CreationDate,2026-05-25T16:59:41+10:00*%
%TF.ProjectId,zero3-water-logger-carrier,7a65726f-332d-4776-9174-65722d6c6f67,R1 generated placement*%
%TF.SameCoordinates,Original*%
%TF.FileFunction,Copper,L2,Bot*%
%TF.FilePolarity,Positive*%
%FSLAX46Y46*%
G04 Gerber Fmt 4.6, Leading zero omitted, Abs format (unit mm)*
G04 Created by KiCad (PCBNEW 10.0.3) date 2026-05-25 16:59:41*
%MOMM*%
%LPD*%
G01*
G04 APERTURE LIST*
G04 Aperture macros list*
%AMRoundRect*
0 Rectangle with rounded corners*
0 $1 Rounding radius*
0 $2 $3 $4 $5 $6 $7 $8 $9 X,Y pos of 4 corners*
0 Add a 4 corners polygon primitive as box body*
4,1,4,$2,$3,$4,$5,$6,$7,$8,$9,$2,$3,0*
0 Add four circle primitives for the rounded corners*
1,1,$1+$1,$2,$3*
1,1,$1+$1,$4,$5*
1,1,$1+$1,$6,$7*
1,1,$1+$1,$8,$9*
0 Add four rect primitives between the rounded corners*
20,1,$1+$1,$2,$3,$4,$5,0*
20,1,$1+$1,$4,$5,$6,$7,0*
20,1,$1+$1,$6,$7,$8,$9,0*
20,1,$1+$1,$8,$9,$2,$3,0*%
%AMFreePoly0*
4,1,37,0.603843,0.796157,0.639018,0.796157,0.711114,0.766294,0.766294,0.711114,0.796157,0.639018,0.796157,0.603843,0.800000,0.600000,0.800000,-0.600000,0.796157,-0.603843,0.796157,-0.639018,0.766294,-0.711114,0.711114,-0.766294,0.639018,-0.796157,0.603843,-0.796157,0.600000,-0.800000,0.000000,-0.800000,0.000000,-0.796148,-0.078414,-0.796148,-0.232228,-0.765552,-0.377117,-0.705537,
-0.507515,-0.618408,-0.618408,-0.507515,-0.705537,-0.377117,-0.765552,-0.232228,-0.796148,-0.078414,-0.796148,0.078414,-0.765552,0.232228,-0.705537,0.377117,-0.618408,0.507515,-0.507515,0.618408,-0.377117,0.705537,-0.232228,0.765552,-0.078414,0.796148,0.000000,0.796148,0.000000,0.800000,0.600000,0.800000,0.603843,0.796157,0.603843,0.796157,$1*%
%AMFreePoly1*
4,1,37,0.000000,0.796148,0.078414,0.796148,0.232228,0.765552,0.377117,0.705537,0.507515,0.618408,0.618408,0.507515,0.705537,0.377117,0.765552,0.232228,0.796148,0.078414,0.796148,-0.078414,0.765552,-0.232228,0.705537,-0.377117,0.618408,-0.507515,0.507515,-0.618408,0.377117,-0.705537,0.232228,-0.765552,0.078414,-0.796148,0.000000,-0.796148,0.000000,-0.800000,-0.600000,-0.800000,
-0.603843,-0.796157,-0.639018,-0.796157,-0.711114,-0.766294,-0.766294,-0.711114,-0.796157,-0.639018,-0.796157,-0.603843,-0.800000,-0.600000,-0.800000,0.600000,-0.796157,0.603843,-0.796157,0.639018,-0.766294,0.711114,-0.711114,0.766294,-0.639018,0.796157,-0.603843,0.796157,-0.600000,0.800000,0.000000,0.800000,0.000000,0.796148,0.000000,0.796148,$1*%
G04 Aperture macros list end*
%TA.AperFunction,ComponentPad*%
%ADD10RoundRect,0.200000X0.600000X-0.600000X0.600000X0.600000X-0.600000X0.600000X-0.600000X-0.600000X0*%
%TD*%
%TA.AperFunction,ComponentPad*%
%ADD11C,1.600000*%
%TD*%
%TA.AperFunction,ComponentPad*%
%ADD12FreePoly0,90.000000*%
%TD*%
%TA.AperFunction,ComponentPad*%
%ADD13FreePoly1,90.000000*%
%TD*%
%TA.AperFunction,ComponentPad*%
%ADD14RoundRect,0.250000X1.050000X-1.050000X1.050000X1.050000X-1.050000X1.050000X-1.050000X-1.050000X0*%
%TD*%
%TA.AperFunction,ComponentPad*%
%ADD15C,2.600000*%
%TD*%
%TA.AperFunction,ComponentPad*%
%ADD16R,1.700000X1.700000*%
%TD*%
%TA.AperFunction,ComponentPad*%
%ADD17C,1.700000*%
%TD*%
%TA.AperFunction,ComponentPad*%
%ADD18RoundRect,0.250000X-0.750000X-0.750000X0.750000X-0.750000X0.750000X0.750000X-0.750000X0.750000X0*%
%TD*%
%TA.AperFunction,ComponentPad*%
%ADD19C,2.000000*%
%TD*%
%TA.AperFunction,ComponentPad*%
%ADD20O,1.000000X2.100000*%
%TD*%
%TA.AperFunction,ComponentPad*%
%ADD21O,1.000000X1.600000*%
%TD*%
%TA.AperFunction,ViaPad*%
%ADD22C,0.600000*%
%TD*%
%TA.AperFunction,Conductor*%
%ADD23C,0.200000*%
%TD*%
G04 APERTURE END LIST*
D10*
%TO.P,J2,1*%
%TO.N,UART_PICO_TX_OPI_RX*%
X97000000Y-137000000D03*
D11*
%TO.P,J2,2*%
%TO.N,UART_OPI_TX_PICO_RX*%
X99540000Y-137000000D03*
D12*
%TO.P,J2,3*%
%TO.N,GND*%
X102080000Y-137000000D03*
D11*
%TO.P,J2,4*%
%TO.N,N/C*%
X104620000Y-137000000D03*
%TO.P,J2,5*%
X107160000Y-137000000D03*
%TO.P,J2,6*%
%TO.N,PICO_GP4*%
X109700000Y-137000000D03*
%TO.P,J2,7*%
%TO.N,PICO_GP5*%
X112240000Y-137000000D03*
D12*
%TO.P,J2,8*%
%TO.N,GND*%
X114780000Y-137000000D03*
D11*
%TO.P,J2,9*%
%TO.N,N/C*%
X117320000Y-137000000D03*
%TO.P,J2,10*%
X119860000Y-137000000D03*
%TO.P,J2,11*%
X122400000Y-137000000D03*
%TO.P,J2,12*%
X124940000Y-137000000D03*
D12*
%TO.P,J2,13*%
%TO.N,GND*%
X127480000Y-137000000D03*
D11*
%TO.P,J2,14*%
%TO.N,N/C*%
X130020000Y-137000000D03*
%TO.P,J2,15*%
X132560000Y-137000000D03*
%TO.P,J2,16*%
X135100000Y-137000000D03*
%TO.P,J2,17*%
%TO.N,OPI_READY*%
X137640000Y-137000000D03*
D12*
%TO.P,J2,18*%
%TO.N,GND*%
X140180000Y-137000000D03*
D11*
%TO.P,J2,19*%
%TO.N,PICO_GP14*%
X142720000Y-137000000D03*
%TO.P,J2,20*%
%TO.N,PICO_GP15*%
X145260000Y-137000000D03*
%TO.P,J2,21*%
%TO.N,PICO_LED_GP16*%
X145260000Y-119220000D03*
%TO.P,J2,22*%
%TO.N,N/C*%
X142720000Y-119220000D03*
D13*
%TO.P,J2,23*%
%TO.N,GND*%
X140180000Y-119220000D03*
D11*
%TO.P,J2,24*%
%TO.N,N/C*%
X137640000Y-119220000D03*
%TO.P,J2,25*%
X135100000Y-119220000D03*
%TO.P,J2,26*%
X132560000Y-119220000D03*
%TO.P,J2,27*%
X130020000Y-119220000D03*
D13*
%TO.P,J2,28*%
%TO.N,GND*%
X127480000Y-119220000D03*
D11*
%TO.P,J2,29*%
%TO.N,N/C*%
X124940000Y-119220000D03*
%TO.P,J2,30*%
X122400000Y-119220000D03*
%TO.P,J2,31*%
X119860000Y-119220000D03*
%TO.P,J2,32*%
X117320000Y-119220000D03*
D13*
%TO.P,J2,33*%
%TO.N,GND*%
X114780000Y-119220000D03*
D11*
%TO.P,J2,34*%
%TO.N,N/C*%
X112240000Y-119220000D03*
%TO.P,J2,35*%
X109700000Y-119220000D03*
%TO.P,J2,36*%
%TO.N,PICO_3V3*%
X107160000Y-119220000D03*
%TO.P,J2,37*%
%TO.N,N/C*%
X104620000Y-119220000D03*
D13*
%TO.P,J2,38*%
%TO.N,GND*%
X102080000Y-119220000D03*
D11*
%TO.P,J2,39*%
%TO.N,FUSED_5V1*%
X99540000Y-119220000D03*
%TO.P,J2,40*%
%TO.N,N/C*%
X97000000Y-119220000D03*
%TD*%
D14*
%TO.P,J12,1*%
%TO.N,OPI_5V_SW*%
X205000000Y-202000000D03*
D15*
%TO.P,J12,2*%
%TO.N,GND*%
X205000000Y-196920000D03*
%TO.P,J12,3*%
%TO.N,DO_AIN*%
X205000000Y-191840000D03*
%TD*%
D16*
%TO.P,J16,1*%
%TO.N,OPI_3V3*%
X330000000Y-167000000D03*
D17*
%TO.P,J16,2*%
%TO.N,GND*%
X332540000Y-167000000D03*
%TO.P,J16,3*%
%TO.N,SPARE_AIN2*%
X335080000Y-167000000D03*
%TO.P,J16,4*%
%TO.N,SPARE_AIN3*%
X337620000Y-167000000D03*
%TD*%
D14*
%TO.P,J10,1*%
%TO.N,OPI_5V_SW*%
X125000000Y-202000000D03*
D15*
%TO.P,J10,2*%
%TO.N,GND*%
X125000000Y-196920000D03*
%TO.P,J10,3*%
%TO.N,TURB_AIN*%
X125000000Y-191840000D03*
%TD*%
D16*
%TO.P,J1,1*%
%TO.N,OPI_3V3*%
X47000000Y-137000000D03*
D17*
%TO.P,J1,2*%
%TO.N,OPI_5V_SW*%
X47000000Y-134460000D03*
%TO.P,J1,3*%
%TO.N,OPI_SDA*%
X49540000Y-137000000D03*
%TO.P,J1,4*%
%TO.N,OPI_5V_SW*%
X49540000Y-134460000D03*
%TO.P,J1,5*%
%TO.N,OPI_SCL*%
X52080000Y-137000000D03*
%TO.P,J1,6*%
%TO.N,GND*%
X52080000Y-134460000D03*
%TO.P,J1,7*%
%TO.N,OPI_1WIRE*%
X54620000Y-137000000D03*
%TO.P,J1,8*%
%TO.N,UART_OPI_TX_PICO_RX*%
X54620000Y-134460000D03*
%TO.P,J1,9*%
%TO.N,GND*%
X57160000Y-137000000D03*
%TO.P,J1,10*%
%TO.N,UART_PICO_TX_OPI_RX*%
X57160000Y-134460000D03*
%TO.P,J1,11*%
%TO.N,OPI_READY*%
X59700000Y-137000000D03*
%TO.P,J1,12*%
%TO.N,N/C*%
X59700000Y-134460000D03*
%TO.P,J1,13*%
X62240000Y-137000000D03*
%TO.P,J1,14*%
%TO.N,GND*%
X62240000Y-134460000D03*
%TO.P,J1,15*%
%TO.N,N/C*%
X64780000Y-137000000D03*
%TO.P,J1,16*%
X64780000Y-134460000D03*
%TO.P,J1,17*%
%TO.N,OPI_3V3*%
X67320000Y-137000000D03*
%TO.P,J1,18*%
%TO.N,N/C*%
X67320000Y-134460000D03*
%TO.P,J1,19*%
X69860000Y-137000000D03*
%TO.P,J1,20*%
%TO.N,GND*%
X69860000Y-134460000D03*
%TO.P,J1,21*%
%TO.N,N/C*%
X72400000Y-137000000D03*
%TO.P,J1,22*%
X72400000Y-134460000D03*
%TO.P,J1,23*%
X74940000Y-137000000D03*
%TO.P,J1,24*%
X74940000Y-134460000D03*
%TO.P,J1,25*%
%TO.N,GND*%
X77480000Y-137000000D03*
%TO.P,J1,26*%
%TO.N,N/C*%
X77480000Y-134460000D03*
%TD*%
D18*
%TO.P,C1,1*%
%TO.N,OPI_5V_SW*%
X315000000Y-47000000D03*
D19*
%TO.P,C1,2*%
%TO.N,GND*%
X320000000Y-47000000D03*
%TD*%
D14*
%TO.P,J11,1*%
%TO.N,OPI_5V_SW*%
X165000000Y-202000000D03*
D15*
%TO.P,J11,2*%
%TO.N,GND*%
X165000000Y-196920000D03*
%TO.P,J11,3*%
%TO.N,ORP_AIN*%
X165000000Y-191840000D03*
%TD*%
D14*
%TO.P,J9,1*%
%TO.N,OPI_5V_SW*%
X85000000Y-202000000D03*
D15*
%TO.P,J9,2*%
%TO.N,GND*%
X85000000Y-196920000D03*
%TO.P,J9,3*%
%TO.N,TDS_AIN*%
X85000000Y-191840000D03*
%TD*%
D14*
%TO.P,J13,1*%
%TO.N,OPI_5V_SW*%
X245000000Y-202000000D03*
D15*
%TO.P,J13,2*%
%TO.N,GND*%
X245000000Y-196920000D03*
%TO.P,J13,3*%
%TO.N,NH4_AIN*%
X245000000Y-191840000D03*
%TD*%
D16*
%TO.P,J5,1*%
%TO.N,OPI_3V3*%
X225000000Y-127000000D03*
D17*
%TO.P,J5,2*%
%TO.N,OPI_1WIRE*%
X227540000Y-127000000D03*
%TO.P,J5,3*%
%TO.N,GND*%
X230080000Y-127000000D03*
%TD*%
D20*
%TO.P,J14,SH*%
%TO.N,GND*%
X35680000Y-43870000D03*
D21*
X35680000Y-48050000D03*
D20*
X44320000Y-43870000D03*
D21*
X44320000Y-48050000D03*
%TD*%
D16*
%TO.P,J15,1*%
%TO.N,PICO_GP14*%
X330000000Y-127000000D03*
D17*
%TO.P,J15,2*%
%TO.N,GND*%
X332540000Y-127000000D03*
%TO.P,J15,3*%
%TO.N,BUTTON_LED_A*%
X335080000Y-127000000D03*
%TO.P,J15,4*%
%TO.N,GND*%
X337620000Y-127000000D03*
%TD*%
D14*
%TO.P,J8,1*%
%TO.N,OPI_5V_SW*%
X45000000Y-202000000D03*
D15*
%TO.P,J8,2*%
%TO.N,GND*%
X45000000Y-196920000D03*
%TO.P,J8,3*%
%TO.N,PH_AIN*%
X45000000Y-191840000D03*
%TD*%
D16*
%TO.P,J7,1*%
%TO.N,PICO_3V3*%
X295000000Y-127000000D03*
D17*
%TO.P,J7,2*%
%TO.N,GND*%
X297540000Y-127000000D03*
%TO.P,J7,3*%
%TO.N,PICO_GP4*%
X300080000Y-127000000D03*
%TO.P,J7,4*%
%TO.N,PICO_GP5*%
X302620000Y-127000000D03*
%TD*%
D16*
%TO.P,J3,1*%
%TO.N,OPI_3V3*%
X150000000Y-132000000D03*
D17*
%TO.P,J3,2*%
%TO.N,GND*%
X152540000Y-132000000D03*
%TO.P,J3,3*%
%TO.N,OPI_SDA*%
X155080000Y-132000000D03*
%TO.P,J3,4*%
%TO.N,OPI_SCL*%
X157620000Y-132000000D03*
%TO.P,J3,5*%
%TO.N,GND*%
X160160000Y-132000000D03*
%TO.P,J3,6*%
%TO.N,PH_AIN*%
X162700000Y-132000000D03*
%TO.P,J3,7*%
%TO.N,TDS_AIN*%
X165240000Y-132000000D03*
%TO.P,J3,8*%
%TO.N,TURB_AIN*%
X167780000Y-132000000D03*
%TO.P,J3,9*%
%TO.N,ORP_AIN*%
X170320000Y-132000000D03*
%TD*%
D16*
%TO.P,J4,1*%
%TO.N,OPI_3V3*%
X185000000Y-132000000D03*
D17*
%TO.P,J4,2*%
%TO.N,GND*%
X187540000Y-132000000D03*
%TO.P,J4,3*%
%TO.N,OPI_SDA*%
X190080000Y-132000000D03*
%TO.P,J4,4*%
%TO.N,OPI_SCL*%
X192620000Y-132000000D03*
%TO.P,J4,5*%
%TO.N,OPI_3V3*%
X195160000Y-132000000D03*
%TO.P,J4,6*%
%TO.N,DO_AIN*%
X197700000Y-132000000D03*
%TO.P,J4,7*%
%TO.N,NH4_AIN*%
X200240000Y-132000000D03*
%TO.P,J4,8*%
%TO.N,SPARE_AIN2*%
X202780000Y-132000000D03*
%TO.P,J4,9*%
%TO.N,SPARE_AIN3*%
X205320000Y-132000000D03*
%TD*%
D11*
%TO.P,R1,1*%
%TO.N,OPI_3V3*%
X225000000Y-145000000D03*
%TO.P,R1,2*%
%TO.N,OPI_1WIRE*%
X232620000Y-145000000D03*
%TD*%
D16*
%TO.P,J6,1*%
%TO.N,OPI_3V3*%
X260000000Y-127000000D03*
D17*
%TO.P,J6,2*%
%TO.N,GND*%
X262540000Y-127000000D03*
%TO.P,J6,3*%
%TO.N,OPI_SDA*%
X265080000Y-127000000D03*
%TO.P,J6,4*%
%TO.N,OPI_SCL*%
X267620000Y-127000000D03*
%TD*%
D22*
%TO.N,BUCK_BOOT*%
X180003000Y-48295400D03*
X185990000Y-81211800D03*
%TO.N,PD_FUSED*%
X179171000Y-47463200D03*
X174807000Y-81977100D03*
%TO.N,BUCK_EN*%
X197962000Y-63257400D03*
X201839000Y-96662800D03*
%TO.N,BUCK_SS*%
X180666000Y-57407800D03*
X183424000Y-77792200D03*
%TO.N,BUCK_COMP*%
X227585000Y-96173800D03*
X221907000Y-54280200D03*
%TO.N,BUCK_SW*%
X209934000Y-51163300D03*
X209934000Y-63257400D03*
X209934000Y-81807900D03*
%TO.N,PICO_LED_GP16*%
X207304000Y-132839000D03*
X206941000Y-119535000D03*
%TO.N,BUTTON_LED_A*%
X332687000Y-144052000D03*
%TO.N,PICO_GP15*%
X156058000Y-72234600D03*
%TO.N,FUSED_5V1*%
X99189600Y-84204200D03*
X222705000Y-69798300D03*
X221605000Y-48295400D03*
%TO.N,UART_PICO_TX_OPI_RX*%
X96196500Y-134688000D03*
%TO.N,PICO_GP5*%
X299727000Y-141983000D03*
X114155000Y-141205000D03*
%TO.N,PICO_GP14*%
X144016000Y-134685000D03*
%TO.N,OPI_5V_SW*%
X254831000Y-44516800D03*
%TO.N,OPI_3V3*%
X150072000Y-138908000D03*
X66265600Y-139150000D03*
X66265500Y-131894000D03*
%TO.N,SPARE_AIN3*%
X335109000Y-142199000D03*
%TO.N,TURB_AIN*%
X165004000Y-188904000D03*
%TO.N,OPI_SCL*%
X191976000Y-125930000D03*
X156058000Y-129090000D03*
X156058000Y-138908000D03*
%TO.N,TDS_AIN*%
X165038000Y-182953000D03*
%TO.N,NH4_AIN*%
X212927000Y-188938000D03*
%TO.N,PH_AIN*%
X162045000Y-191931000D03*
%TD*%
%TO.N,BUCK_BOOT*%
D23*
X180003000Y-75225600D02*
X180003000Y-48295400D01*
X185990000Y-81211800D02*
X180003000Y-75225600D01*
%TO.N,PD_FUSED*%
X174807000Y-51826800D02*
X174807000Y-81977100D01*
X179171000Y-47463200D02*
X174807000Y-51826800D01*
%TO.N,BUCK_EN*%
X197962000Y-63257400D02*
X197962000Y-92786000D01*
X197962000Y-92786000D02*
X201839000Y-96662800D01*
%TO.N,BUCK_SS*%
X180666000Y-75034600D02*
X183424000Y-77792200D01*
X180666000Y-57407800D02*
X180666000Y-75034600D01*
%TO.N,BUCK_COMP*%
X221907000Y-54280200D02*
X221907000Y-90495200D01*
X221907000Y-90495200D02*
X227585000Y-96173800D01*
%TO.N,BUCK_SW*%
X209934000Y-51163300D02*
X209934000Y-63257400D01*
X209934000Y-81807900D02*
X209934000Y-63257400D01*
%TO.N,PICO_LED_GP16*%
X206941000Y-132477000D02*
X207304000Y-132839000D01*
X206941000Y-119535000D02*
X206941000Y-132477000D01*
%TO.N,BUTTON_LED_A*%
X335080000Y-127000000D02*
X332687000Y-129393000D01*
X332687000Y-129393000D02*
X332687000Y-144052000D01*
%TO.N,PICO_GP15*%
X156058000Y-72234600D02*
X147590000Y-80702700D01*
X147590000Y-80702700D02*
X147590000Y-134670000D01*
X147590000Y-134670000D02*
X145260000Y-137000000D01*
%TO.N,FUSED_5V1*%
X99540000Y-119220000D02*
X99540000Y-84554600D01*
X222705000Y-49395300D02*
X221605000Y-48295400D01*
X99540000Y-84554600D02*
X99189600Y-84204200D01*
X222705000Y-69798300D02*
X222705000Y-49395300D01*
%TO.N,UART_PICO_TX_OPI_RX*%
X96196500Y-134688000D02*
X97000000Y-135492000D01*
X97000000Y-135492000D02*
X97000000Y-137000000D01*
%TO.N,PICO_GP5*%
X112240000Y-137000000D02*
X114155000Y-138915000D01*
X299727000Y-141983000D02*
X302620000Y-139090000D01*
X302620000Y-139090000D02*
X302620000Y-127000000D01*
X114155000Y-138915000D02*
X114155000Y-141205000D01*
%TO.N,PICO_GP14*%
X144016000Y-134685000D02*
X144016000Y-135704000D01*
X144016000Y-135704000D02*
X142720000Y-137000000D01*
%TO.N,OPI_5V_SW*%
X254831000Y-192169000D02*
X254831000Y-44516800D01*
X43383300Y-138077000D02*
X43383300Y-200383000D01*
X43383300Y-200383000D02*
X45000000Y-202000000D01*
X47000000Y-134460000D02*
X43383300Y-138077000D01*
X245000000Y-202000000D02*
X254831000Y-192169000D01*
%TO.N,DO_AIN*%
X205000000Y-139300000D02*
X197700000Y-132000000D01*
X205000000Y-191840000D02*
X205000000Y-139300000D01*
%TO.N,OPI_3V3*%
X67320000Y-138095000D02*
X66265600Y-139150000D01*
X150000000Y-138836000D02*
X150000000Y-132000000D01*
X150072000Y-138908000D02*
X150000000Y-138836000D01*
X66265500Y-131894000D02*
X66167000Y-131992000D01*
X225000000Y-145000000D02*
X225000000Y-127000000D01*
X67320000Y-137000000D02*
X67320000Y-138095000D01*
X66167000Y-131992000D02*
X66167000Y-135847000D01*
X66167000Y-135847000D02*
X67320000Y-137000000D01*
%TO.N,SPARE_AIN3*%
X335109000Y-142199000D02*
X335109000Y-164489000D01*
X335109000Y-164489000D02*
X337620000Y-167000000D01*
%TO.N,TURB_AIN*%
X167780000Y-186128000D02*
X167780000Y-132000000D01*
X165004000Y-188904000D02*
X167780000Y-186128000D01*
%TO.N,OPI_SCL*%
X192620000Y-126574000D02*
X192620000Y-132000000D01*
X156058000Y-138908000D02*
X157620000Y-137346000D01*
X157620000Y-130652000D02*
X157620000Y-132000000D01*
X191976000Y-125930000D02*
X192620000Y-126574000D01*
X156058000Y-129090000D02*
X157620000Y-130652000D01*
X157620000Y-137346000D02*
X157620000Y-132000000D01*
%TO.N,OPI_1WIRE*%
X232620000Y-145000000D02*
X232620000Y-132080000D01*
X232620000Y-132080000D02*
X227540000Y-127000000D01*
%TO.N,ORP_AIN*%
X170320000Y-186520000D02*
X170320000Y-132000000D01*
X165000000Y-191840000D02*
X170320000Y-186520000D01*
%TO.N,TDS_AIN*%
X165240000Y-132000000D02*
X165240000Y-182751000D01*
X165240000Y-182751000D02*
X165038000Y-182953000D01*
%TO.N,NH4_AIN*%
X212927000Y-188938000D02*
X212927000Y-144687000D01*
X212927000Y-144687000D02*
X200240000Y-132000000D01*
%TO.N,PH_AIN*%
X162700000Y-191275000D02*
X162700000Y-132000000D01*
X162045000Y-191931000D02*
X162700000Y-191275000D01*
%TD*%
%TA.AperFunction,Conductor*%
%TO.N,GND*%
G36*
X351442539Y-8520185D02*
G01*
X351488294Y-8572989D01*
X351499500Y-8624500D01*
X351499500Y-321375500D01*
X351479815Y-321442539D01*
X351427011Y-321488294D01*
X351375500Y-321499500D01*
X8624500Y-321499500D01*
X8557461Y-321479815D01*
X8511706Y-321427011D01*
X8500500Y-321375500D01*
X8500500Y-313878711D01*
X14149500Y-313878711D01*
X14149500Y-314121288D01*
X14181161Y-314361785D01*
X14243947Y-314596104D01*
X14336773Y-314820205D01*
X14336776Y-314820212D01*
X14458064Y-315030289D01*
X14458066Y-315030292D01*
X14458067Y-315030293D01*
X14605733Y-315222736D01*
X14605739Y-315222743D01*
X14777256Y-315394260D01*
X14777262Y-315394265D01*
X14969711Y-315541936D01*
X15179788Y-315663224D01*
X15403900Y-315756054D01*
X15638211Y-315818838D01*
X15818586Y-315842584D01*
X15878711Y-315850500D01*
X15878712Y-315850500D01*
X16121289Y-315850500D01*
X16169388Y-315844167D01*
X16361789Y-315818838D01*
X16596100Y-315756054D01*
X16820212Y-315663224D01*
X17030289Y-315541936D01*
X17222738Y-315394265D01*
X17394265Y-315222738D01*
X17541936Y-315030289D01*
X17663224Y-314820212D01*
X17756054Y-314596100D01*
X17818838Y-314361789D01*
X17850500Y-314121288D01*
X17850500Y-313878712D01*
X17850500Y-313878711D01*
X342149500Y-313878711D01*
X342149500Y-314121288D01*
X342181161Y-314361785D01*
X342243947Y-314596104D01*
X342336773Y-314820205D01*
X342336776Y-314820212D01*
X342458064Y-315030289D01*
X342458066Y-315030292D01*
X342458067Y-315030293D01*
X342605733Y-315222736D01*
X342605739Y-315222743D01*
X342777256Y-315394260D01*
X342777262Y-315394265D01*
X342969711Y-315541936D01*
X343179788Y-315663224D01*
X343403900Y-315756054D01*
X343638211Y-315818838D01*
X343818586Y-315842584D01*
X343878711Y-315850500D01*
X343878712Y-315850500D01*
X344121289Y-315850500D01*
X344169388Y-315844167D01*
X344361789Y-315818838D01*
X344596100Y-315756054D01*
X344820212Y-315663224D01*
X345030289Y-315541936D01*
X345222738Y-315394265D01*
X345394265Y-315222738D01*
X345541936Y-315030289D01*
X345663224Y-314820212D01*
X345756054Y-314596100D01*
X345818838Y-314361789D01*
X345850500Y-314121288D01*
X345850500Y-313878712D01*
X345818838Y-313638211D01*
X345756054Y-313403900D01*
X345663224Y-313179788D01*
X345541936Y-312969711D01*
X345394265Y-312777262D01*
X345394260Y-312777256D01*
X345222743Y-312605739D01*
X345222736Y-312605733D01*
X345030293Y-312458067D01*
X345030292Y-312458066D01*
X345030289Y-312458064D01*
X344820212Y-312336776D01*
X344820205Y-312336773D01*
X344596104Y-312243947D01*
X344361785Y-312181161D01*
X344121289Y-312149500D01*
X344121288Y-312149500D01*
X343878712Y-312149500D01*
X343878711Y-312149500D01*
X343638214Y-312181161D01*
X343403895Y-312243947D01*
X343179794Y-312336773D01*
X343179785Y-312336777D01*
X342969706Y-312458067D01*
X342777263Y-312605733D01*
X342777256Y-312605739D01*
X342605739Y-312777256D01*
X342605733Y-312777263D01*
X342458067Y-312969706D01*
X342336777Y-313179785D01*
X342336773Y-313179794D01*
X342243947Y-313403895D01*
X342181161Y-313638214D01*
X342149500Y-313878711D01*
X17850500Y-313878711D01*
X17818838Y-313638211D01*
X17756054Y-313403900D01*
X17663224Y-313179788D01*
X17541936Y-312969711D01*
X17394265Y-312777262D01*
X17394260Y-312777256D01*
X17222743Y-312605739D01*
X17222736Y-312605733D01*
X17030293Y-312458067D01*
X17030292Y-312458066D01*
X17030289Y-312458064D01*
X16820212Y-312336776D01*
X16820205Y-312336773D01*
X16596104Y-312243947D01*
X16361785Y-312181161D01*
X16121289Y-312149500D01*
X16121288Y-312149500D01*
X15878712Y-312149500D01*
X15878711Y-312149500D01*
X15638214Y-312181161D01*
X15403895Y-312243947D01*
X15179794Y-312336773D01*
X15179785Y-312336777D01*
X14969706Y-312458067D01*
X14777263Y-312605733D01*
X14777256Y-312605739D01*
X14605739Y-312777256D01*
X14605733Y-312777263D01*
X14458067Y-312969706D01*
X14336777Y-313179785D01*
X14336773Y-313179794D01*
X14243947Y-313403895D01*
X14181161Y-313638214D01*
X14149500Y-313878711D01*
X8500500Y-313878711D01*
X8500500Y-200422550D01*
X43082795Y-200422550D01*
X43082801Y-200422593D01*
X43083006Y-200423331D01*
X43092662Y-200459367D01*
X43093684Y-200463181D01*
X43103269Y-200498966D01*
X43103277Y-200498987D01*
X43123685Y-200534335D01*
X43123687Y-200534343D01*
X43123689Y-200534342D01*
X43137702Y-200558617D01*
X43142823Y-200567489D01*
X43142825Y-200567491D01*
X43142840Y-200567511D01*
X43169801Y-200594472D01*
X43169809Y-200594480D01*
X43463189Y-200887914D01*
X43496669Y-200949240D01*
X43499500Y-200975587D01*
X43499500Y-203104269D01*
X43502353Y-203134699D01*
X43502353Y-203134701D01*
X43547206Y-203262880D01*
X43547207Y-203262882D01*
X43627850Y-203372150D01*
X43737118Y-203452793D01*
X43779845Y-203467744D01*
X43865299Y-203497646D01*
X43895730Y-203500500D01*
X43895734Y-203500500D01*
X46104270Y-203500500D01*
X46134699Y-203497646D01*
X46134701Y-203497646D01*
X46198790Y-203475219D01*
X46262882Y-203452793D01*
X46372150Y-203372150D01*
X46452793Y-203262882D01*
X46475219Y-203198790D01*
X46497646Y-203134701D01*
X46497646Y-203134699D01*
X46500500Y-203104269D01*
X46500500Y-200895730D01*
X83499500Y-200895730D01*
X83499500Y-203104269D01*
X83502353Y-203134699D01*
X83502353Y-203134701D01*
X83547206Y-203262880D01*
X83547207Y-203262882D01*
X83627850Y-203372150D01*
X83737118Y-203452793D01*
X83779845Y-203467744D01*
X83865299Y-203497646D01*
X83895730Y-203500500D01*
X83895734Y-203500500D01*
X86104270Y-203500500D01*
X86134699Y-203497646D01*
X86134701Y-203497646D01*
X86198790Y-203475219D01*
X86262882Y-203452793D01*
X86372150Y-203372150D01*
X86452793Y-203262882D01*
X86475219Y-203198790D01*
X86497646Y-203134701D01*
X86497646Y-203134699D01*
X86500500Y-203104269D01*
X86500500Y-200895730D01*
X123499500Y-200895730D01*
X123499500Y-203104269D01*
X123502353Y-203134699D01*
X123502353Y-203134701D01*
X123547206Y-203262880D01*
X123547207Y-203262882D01*
X123627850Y-203372150D01*
X123737118Y-203452793D01*
X123779845Y-203467744D01*
X123865299Y-203497646D01*
X123895730Y-203500500D01*
X123895734Y-203500500D01*
X126104270Y-203500500D01*
X126134699Y-203497646D01*
X126134701Y-203497646D01*
X126198790Y-203475219D01*
X126262882Y-203452793D01*
X126372150Y-203372150D01*
X126452793Y-203262882D01*
X126475219Y-203198790D01*
X126497646Y-203134701D01*
X126497646Y-203134699D01*
X126500500Y-203104269D01*
X126500500Y-200895730D01*
X163499500Y-200895730D01*
X163499500Y-203104269D01*
X163502353Y-203134699D01*
X163502353Y-203134701D01*
X163547206Y-203262880D01*
X163547207Y-203262882D01*
X163627850Y-203372150D01*
X163737118Y-203452793D01*
X163779845Y-203467744D01*
X163865299Y-203497646D01*
X163895730Y-203500500D01*
X163895734Y-203500500D01*
X166104270Y-203500500D01*
X166134699Y-203497646D01*
X166134701Y-203497646D01*
X166198790Y-203475219D01*
X166262882Y-203452793D01*
X166372150Y-203372150D01*
X166452793Y-203262882D01*
X166475219Y-203198790D01*
X166497646Y-203134701D01*
X166497646Y-203134699D01*
X166500500Y-203104269D01*
X166500500Y-200895730D01*
X203499500Y-200895730D01*
X203499500Y-203104269D01*
X203502353Y-203134699D01*
X203502353Y-203134701D01*
X203547206Y-203262880D01*
X203547207Y-203262882D01*
X203627850Y-203372150D01*
X203737118Y-203452793D01*
X203779845Y-203467744D01*
X203865299Y-203497646D01*
X203895730Y-203500500D01*
X203895734Y-203500500D01*
X206104270Y-203500500D01*
X206134699Y-203497646D01*
X206134701Y-203497646D01*
X206198790Y-203475219D01*
X206262882Y-203452793D01*
X206372150Y-203372150D01*
X206452793Y-203262882D01*
X206475219Y-203198790D01*
X206497646Y-203134701D01*
X206497646Y-203134699D01*
X206500500Y-203104269D01*
X206500500Y-200895730D01*
X243499500Y-200895730D01*
X243499500Y-203104269D01*
X243502353Y-203134699D01*
X243502353Y-203134701D01*
X243547206Y-203262880D01*
X243547207Y-203262882D01*
X243627850Y-203372150D01*
X243737118Y-203452793D01*
X243779845Y-203467744D01*
X243865299Y-203497646D01*
X243895730Y-203500500D01*
X243895734Y-203500500D01*
X246104270Y-203500500D01*
X246134699Y-203497646D01*
X246134701Y-203497646D01*
X246198790Y-203475219D01*
X246262882Y-203452793D01*
X246372150Y-203372150D01*
X246452793Y-203262882D01*
X246475219Y-203198790D01*
X246497646Y-203134701D01*
X246497646Y-203134699D01*
X246500500Y-203104269D01*
X246500500Y-200975833D01*
X246520185Y-200908794D01*
X246536819Y-200888152D01*
X247217782Y-200207189D01*
X255071460Y-192353511D01*
X255111022Y-192284988D01*
X255131500Y-192208562D01*
X255131500Y-192129438D01*
X255131500Y-166130247D01*
X328949500Y-166130247D01*
X328949500Y-167869752D01*
X328961131Y-167928229D01*
X328961132Y-167928230D01*
X329005447Y-167994552D01*
X329071769Y-168038867D01*
X329071770Y-168038868D01*
X329130247Y-168050499D01*
X329130250Y-168050500D01*
X329130252Y-168050500D01*
X330869750Y-168050500D01*
X330869751Y-168050499D01*
X330884568Y-168047552D01*
X330928229Y-168038868D01*
X330928229Y-168038867D01*
X330928231Y-168038867D01*
X330994552Y-167994552D01*
X331038867Y-167928231D01*
X331038867Y-167928229D01*
X331038868Y-167928229D01*
X331050499Y-167869752D01*
X331050500Y-167869750D01*
X331050500Y-166896530D01*
X334029500Y-166896530D01*
X334029500Y-167103469D01*
X334069868Y-167306412D01*
X334069870Y-167306420D01*
X334149058Y-167497596D01*
X334264024Y-167669657D01*
X334410342Y-167815975D01*
X334410345Y-167815977D01*
X334582402Y-167930941D01*
X334773580Y-168010130D01*
X334918052Y-168038867D01*
X334976530Y-168050499D01*
X334976534Y-168050500D01*
X334976535Y-168050500D01*
X335183466Y-168050500D01*
X335183467Y-168050499D01*
X335386420Y-168010130D01*
X335577598Y-167930941D01*
X335749655Y-167815977D01*
X335895977Y-167669655D01*
X336010941Y-167497598D01*
X336090130Y-167306420D01*
X336130500Y-167103465D01*
X336130500Y-166896535D01*
X336090130Y-166693580D01*
X336010941Y-166502402D01*
X335895977Y-166330345D01*
X335895975Y-166330342D01*
X335749657Y-166184024D01*
X335581655Y-166071770D01*
X335577598Y-166069059D01*
X335525002Y-166047273D01*
X335386420Y-165989870D01*
X335386412Y-165989868D01*
X335183469Y-165949500D01*
X335183465Y-165949500D01*
X334976535Y-165949500D01*
X334976530Y-165949500D01*
X334773587Y-165989868D01*
X334773579Y-165989870D01*
X334582403Y-166069058D01*
X334410342Y-166184024D01*
X334264024Y-166330342D01*
X334149058Y-166502403D01*
X334069870Y-166693579D01*
X334069868Y-166693587D01*
X334029500Y-166896530D01*
X331050500Y-166896530D01*
X331050500Y-166130249D01*
X331050499Y-166130247D01*
X331038868Y-166071770D01*
X331038867Y-166071769D01*
X330994552Y-166005447D01*
X330928230Y-165961132D01*
X330928229Y-165961131D01*
X330869752Y-165949500D01*
X330869748Y-165949500D01*
X329130252Y-165949500D01*
X329130247Y-165949500D01*
X329071770Y-165961131D01*
X329071769Y-165961132D01*
X329005447Y-166005447D01*
X328961132Y-166071769D01*
X328961131Y-166071770D01*
X328949500Y-166130247D01*
X255131500Y-166130247D01*
X255131500Y-143986108D01*
X332186500Y-143986108D01*
X332186500Y-144117891D01*
X332220608Y-144245187D01*
X332253554Y-144302250D01*
X332286500Y-144359314D01*
X332379686Y-144452500D01*
X332493814Y-144518392D01*
X332621108Y-144552500D01*
X332621110Y-144552500D01*
X332752890Y-144552500D01*
X332752892Y-144552500D01*
X332880186Y-144518392D01*
X332994314Y-144452500D01*
X333087500Y-144359314D01*
X333153392Y-144245186D01*
X333187500Y-144117892D01*
X333187500Y-143986108D01*
X333153392Y-143858814D01*
X333087500Y-143744686D01*
X333023818Y-143681004D01*
X332990334Y-143619680D01*
X332987500Y-143593323D01*
X332987500Y-142133108D01*
X334608500Y-142133108D01*
X334608500Y-142264892D01*
X334615312Y-142290314D01*
X334642608Y-142392187D01*
X334675554Y-142449250D01*
X334708500Y-142506314D01*
X334708502Y-142506316D01*
X334772181Y-142569995D01*
X334805666Y-142631318D01*
X334808500Y-142657676D01*
X334808500Y-164528562D01*
X334822152Y-164579513D01*
X334828979Y-164604990D01*
X334828982Y-164604995D01*
X334868535Y-164673504D01*
X334868541Y-164673512D01*
X336632924Y-166437895D01*
X336666409Y-166499218D01*
X336661425Y-166568910D01*
X336659804Y-166573029D01*
X336609870Y-166693579D01*
X336609868Y-166693587D01*
X336569500Y-166896530D01*
X336569500Y-167103469D01*
X336609868Y-167306412D01*
X336609870Y-167306420D01*
X336689058Y-167497596D01*
X336804024Y-167669657D01*
X336950342Y-167815975D01*
X336950345Y-167815977D01*
X337122402Y-167930941D01*
X337313580Y-168010130D01*
X337458052Y-168038867D01*
X337516530Y-168050499D01*
X337516534Y-168050500D01*
X337516535Y-168050500D01*
X337723466Y-168050500D01*
X337723467Y-168050499D01*
X337926420Y-168010130D01*
X338117598Y-167930941D01*
X338289655Y-167815977D01*
X338435977Y-167669655D01*
X338550941Y-167497598D01*
X338630130Y-167306420D01*
X338670500Y-167103465D01*
X338670500Y-166896535D01*
X338630130Y-166693580D01*
X338550941Y-166502402D01*
X338435977Y-166330345D01*
X338435975Y-166330342D01*
X338289657Y-166184024D01*
X338121655Y-166071770D01*
X338117598Y-166069059D01*
X338065002Y-166047273D01*
X337926420Y-165989870D01*
X337926412Y-165989868D01*
X337723469Y-165949500D01*
X337723465Y-165949500D01*
X337516535Y-165949500D01*
X337516530Y-165949500D01*
X337313587Y-165989868D01*
X337313579Y-165989870D01*
X337193029Y-166039804D01*
X337123559Y-166047273D01*
X337061080Y-166015998D01*
X337057895Y-166012924D01*
X335445819Y-164400848D01*
X335412334Y-164339525D01*
X335409500Y-164313167D01*
X335409500Y-142657676D01*
X335429185Y-142590637D01*
X335445819Y-142569995D01*
X335509500Y-142506314D01*
X335575392Y-142392186D01*
X335609500Y-142264892D01*
X335609500Y-142133108D01*
X335575392Y-142005814D01*
X335509500Y-141891686D01*
X335416314Y-141798500D01*
X335359250Y-141765554D01*
X335302187Y-141732608D01*
X335238539Y-141715554D01*
X335174892Y-141698500D01*
X335043108Y-141698500D01*
X334915812Y-141732608D01*
X334801686Y-141798500D01*
X334801683Y-141798502D01*
X334708502Y-141891683D01*
X334708500Y-141891686D01*
X334642608Y-142005812D01*
X334631065Y-142048892D01*
X334608500Y-142133108D01*
X332987500Y-142133108D01*
X332987500Y-129568832D01*
X333007185Y-129501793D01*
X333023814Y-129481156D01*
X334517896Y-127987073D01*
X334579217Y-127953590D01*
X334648909Y-127958574D01*
X334653007Y-127960186D01*
X334773580Y-128010130D01*
X334918052Y-128038867D01*
X334976530Y-128050499D01*
X334976534Y-128050500D01*
X334976535Y-128050500D01*
X335183466Y-128050500D01*
X335183467Y-128050499D01*
X335386420Y-128010130D01*
X335577598Y-127930941D01*
X335749655Y-127815977D01*
X335895977Y-127669655D01*
X336010941Y-127497598D01*
X336090130Y-127306420D01*
X336130500Y-127103465D01*
X336130500Y-126896535D01*
X336090130Y-126693580D01*
X336010941Y-126502402D01*
X335895977Y-126330345D01*
X335895975Y-126330342D01*
X335749657Y-126184024D01*
X335581655Y-126071770D01*
X335577598Y-126069059D01*
X335511905Y-126041848D01*
X335386420Y-125989870D01*
X335386412Y-125989868D01*
X335183469Y-125949500D01*
X335183465Y-125949500D01*
X334976535Y-125949500D01*
X334976530Y-125949500D01*
X334773587Y-125989868D01*
X334773579Y-125989870D01*
X334582403Y-126069058D01*
X334410342Y-126184024D01*
X334264024Y-126330342D01*
X334149058Y-126502403D01*
X334069870Y-126693579D01*
X334069868Y-126693587D01*
X334029500Y-126896530D01*
X334029500Y-127103469D01*
X334069868Y-127306412D01*
X334069871Y-127306424D01*
X334119803Y-127426971D01*
X334127272Y-127496440D01*
X334095997Y-127558919D01*
X334092923Y-127562104D01*
X332502489Y-129152540D01*
X332446541Y-129208487D01*
X332446535Y-129208495D01*
X332406982Y-129277004D01*
X332406979Y-129277009D01*
X332386500Y-129353439D01*
X332386500Y-143593323D01*
X332366815Y-143660362D01*
X332350182Y-143681004D01*
X332286500Y-143744686D01*
X332220608Y-143858812D01*
X332186500Y-143986108D01*
X255131500Y-143986108D01*
X255131500Y-141917108D01*
X299226500Y-141917108D01*
X299226500Y-142048891D01*
X299260608Y-142176187D01*
X299293554Y-142233250D01*
X299326500Y-142290314D01*
X299419686Y-142383500D01*
X299533814Y-142449392D01*
X299661108Y-142483500D01*
X299661110Y-142483500D01*
X299792890Y-142483500D01*
X299792892Y-142483500D01*
X299920186Y-142449392D01*
X300034314Y-142383500D01*
X300127500Y-142290314D01*
X300193392Y-142176186D01*
X300227500Y-142048892D01*
X300227500Y-141958832D01*
X300247185Y-141891793D01*
X300263819Y-141871151D01*
X301388647Y-140746323D01*
X302860460Y-139274511D01*
X302900021Y-139205989D01*
X302920500Y-139129562D01*
X302920500Y-128095435D01*
X302940185Y-128028396D01*
X302992989Y-127982641D01*
X302997012Y-127980889D01*
X303117598Y-127930941D01*
X303289655Y-127815977D01*
X303435977Y-127669655D01*
X303550941Y-127497598D01*
X303630130Y-127306420D01*
X303670500Y-127103465D01*
X303670500Y-126896535D01*
X303630130Y-126693580D01*
X303550941Y-126502402D01*
X303435977Y-126330345D01*
X303435975Y-126330342D01*
X303289657Y-126184024D01*
X303209173Y-126130247D01*
X328949500Y-126130247D01*
X328949500Y-127869752D01*
X328961131Y-127928229D01*
X328961132Y-127928230D01*
X329005447Y-127994552D01*
X329071769Y-128038867D01*
X329071770Y-128038868D01*
X329130247Y-128050499D01*
X329130250Y-128050500D01*
X329130252Y-128050500D01*
X330869750Y-128050500D01*
X330869751Y-128050499D01*
X330884568Y-128047552D01*
X330928229Y-128038868D01*
X330928229Y-128038867D01*
X330928231Y-128038867D01*
X330994552Y-127994552D01*
X331038867Y-127928231D01*
X331038867Y-127928229D01*
X331038868Y-127928229D01*
X331050499Y-127869752D01*
X331050500Y-127869750D01*
X331050500Y-126130249D01*
X331050499Y-126130247D01*
X331038868Y-126071770D01*
X331038867Y-126071769D01*
X330994552Y-126005447D01*
X330928230Y-125961132D01*
X330928229Y-125961131D01*
X330869752Y-125949500D01*
X330869748Y-125949500D01*
X329130252Y-125949500D01*
X329130247Y-125949500D01*
X329071770Y-125961131D01*
X329071769Y-125961132D01*
X329005447Y-126005447D01*
X328961132Y-126071769D01*
X328961131Y-126071770D01*
X328949500Y-126130247D01*
X303209173Y-126130247D01*
X303121655Y-126071770D01*
X303117598Y-126069059D01*
X303051905Y-126041848D01*
X302926420Y-125989870D01*
X302926412Y-125989868D01*
X302723469Y-125949500D01*
X302723465Y-125949500D01*
X302516535Y-125949500D01*
X302516530Y-125949500D01*
X302313587Y-125989868D01*
X302313579Y-125989870D01*
X302122403Y-126069058D01*
X301950342Y-126184024D01*
X301804024Y-126330342D01*
X301689058Y-126502403D01*
X301609870Y-126693579D01*
X301609868Y-126693587D01*
X301569500Y-126896530D01*
X301569500Y-127103469D01*
X301609868Y-127306412D01*
X301609870Y-127306420D01*
X301689058Y-127497596D01*
X301804024Y-127669657D01*
X301950342Y-127815975D01*
X301950345Y-127815977D01*
X302122402Y-127930941D01*
X302242953Y-127980875D01*
X302297356Y-128024714D01*
X302319421Y-128091008D01*
X302319500Y-128095435D01*
X302319500Y-138914166D01*
X302299815Y-138981205D01*
X302283181Y-139001847D01*
X299838847Y-141446181D01*
X299777524Y-141479666D01*
X299751166Y-141482500D01*
X299661108Y-141482500D01*
X299533812Y-141516608D01*
X299419686Y-141582500D01*
X299419683Y-141582502D01*
X299326502Y-141675683D01*
X299326500Y-141675686D01*
X299260608Y-141789812D01*
X299226500Y-141917108D01*
X255131500Y-141917108D01*
X255131500Y-126130247D01*
X258949500Y-126130247D01*
X258949500Y-127869752D01*
X258961131Y-127928229D01*
X258961132Y-127928230D01*
X259005447Y-127994552D01*
X259071769Y-128038867D01*
X259071770Y-128038868D01*
X259130247Y-128050499D01*
X259130250Y-128050500D01*
X259130252Y-128050500D01*
X260869750Y-128050500D01*
X260869751Y-128050499D01*
X260884568Y-128047552D01*
X260928229Y-128038868D01*
X260928229Y-128038867D01*
X260928231Y-128038867D01*
X260994552Y-127994552D01*
X261038867Y-127928231D01*
X261038867Y-127928229D01*
X261038868Y-127928229D01*
X261050499Y-127869752D01*
X261050500Y-127869750D01*
X261050500Y-126896530D01*
X264029500Y-126896530D01*
X264029500Y-127103469D01*
X264069868Y-127306412D01*
X264069870Y-127306420D01*
X264149058Y-127497596D01*
X264264024Y-127669657D01*
X264410342Y-127815975D01*
X264410345Y-127815977D01*
X264582402Y-127930941D01*
X264773580Y-128010130D01*
X264918052Y-128038867D01*
X264976530Y-128050499D01*
X264976534Y-128050500D01*
X264976535Y-128050500D01*
X265183466Y-128050500D01*
X265183467Y-128050499D01*
X265386420Y-128010130D01*
X265577598Y-127930941D01*
X265749655Y-127815977D01*
X265895977Y-127669655D01*
X266010941Y-127497598D01*
X266090130Y-127306420D01*
X266130500Y-127103465D01*
X266130500Y-126896535D01*
X266130499Y-126896530D01*
X266569500Y-126896530D01*
X266569500Y-127103469D01*
X266609868Y-127306412D01*
X266609870Y-127306420D01*
X266689058Y-127497596D01*
X266804024Y-127669657D01*
X266950342Y-127815975D01*
X266950345Y-127815977D01*
X267122402Y-127930941D01*
X267313580Y-128010130D01*
X267458052Y-128038867D01*
X267516530Y-128050499D01*
X267516534Y-128050500D01*
X267516535Y-128050500D01*
X267723466Y-128050500D01*
X267723467Y-128050499D01*
X267926420Y-128010130D01*
X268117598Y-127930941D01*
X268289655Y-127815977D01*
X268435977Y-127669655D01*
X268550941Y-127497598D01*
X268630130Y-127306420D01*
X268670500Y-127103465D01*
X268670500Y-126896535D01*
X268630130Y-126693580D01*
X268550941Y-126502402D01*
X268435977Y-126330345D01*
X268435975Y-126330342D01*
X268289657Y-126184024D01*
X268209173Y-126130247D01*
X293949500Y-126130247D01*
X293949500Y-127869752D01*
X293961131Y-127928229D01*
X293961132Y-127928230D01*
X294005447Y-127994552D01*
X294071769Y-128038867D01*
X294071770Y-128038868D01*
X294130247Y-128050499D01*
X294130250Y-128050500D01*
X294130252Y-128050500D01*
X295869750Y-128050500D01*
X295869751Y-128050499D01*
X295884568Y-128047552D01*
X295928229Y-128038868D01*
X295928229Y-128038867D01*
X295928231Y-128038867D01*
X295994552Y-127994552D01*
X296038867Y-127928231D01*
X296038867Y-127928229D01*
X296038868Y-127928229D01*
X296050499Y-127869752D01*
X296050500Y-127869750D01*
X296050500Y-126896530D01*
X299029500Y-126896530D01*
X299029500Y-127103469D01*
X299069868Y-127306412D01*
X299069870Y-127306420D01*
X299149058Y-127497596D01*
X299264024Y-127669657D01*
X299410342Y-127815975D01*
X299410345Y-127815977D01*
X299582402Y-127930941D01*
X299773580Y-128010130D01*
X299918052Y-128038867D01*
X299976530Y-128050499D01*
X299976534Y-128050500D01*
X299976535Y-128050500D01*
X300183466Y-128050500D01*
X300183467Y-128050499D01*
X300386420Y-128010130D01*
X300577598Y-127930941D01*
X300749655Y-127815977D01*
X300895977Y-127669655D01*
X301010941Y-127497598D01*
X301090130Y-127306420D01*
X301130500Y-127103465D01*
X301130500Y-126896535D01*
X301090130Y-126693580D01*
X301010941Y-126502402D01*
X300895977Y-126330345D01*
X300895975Y-126330342D01*
X300749657Y-126184024D01*
X300581655Y-126071770D01*
X300577598Y-126069059D01*
X300511905Y-126041848D01*
X300386420Y-125989870D01*
X300386412Y-125989868D01*
X300183469Y-125949500D01*
X300183465Y-125949500D01*
X299976535Y-125949500D01*
X299976530Y-125949500D01*
X299773587Y-125989868D01*
X299773579Y-125989870D01*
X299582403Y-126069058D01*
X299410342Y-126184024D01*
X299264024Y-126330342D01*
X299149058Y-126502403D01*
X299069870Y-126693579D01*
X299069868Y-126693587D01*
X299029500Y-126896530D01*
X296050500Y-126896530D01*
X296050500Y-126130249D01*
X296050499Y-126130247D01*
X296038868Y-126071770D01*
X296038867Y-126071769D01*
X295994552Y-126005447D01*
X295928230Y-125961132D01*
X295928229Y-125961131D01*
X295869752Y-125949500D01*
X295869748Y-125949500D01*
X294130252Y-125949500D01*
X294130247Y-125949500D01*
X294071770Y-125961131D01*
X294071769Y-125961132D01*
X294005447Y-126005447D01*
X293961132Y-126071769D01*
X293961131Y-126071770D01*
X293949500Y-126130247D01*
X268209173Y-126130247D01*
X268121655Y-126071770D01*
X268117598Y-126069059D01*
X268051905Y-126041848D01*
X267926420Y-125989870D01*
X267926412Y-125989868D01*
X267723469Y-125949500D01*
X267723465Y-125949500D01*
X267516535Y-125949500D01*
X267516530Y-125949500D01*
X267313587Y-125989868D01*
X267313579Y-125989870D01*
X267122403Y-126069058D01*
X266950342Y-126184024D01*
X266804024Y-126330342D01*
X266689058Y-126502403D01*
X266609870Y-126693579D01*
X266609868Y-126693587D01*
X266569500Y-126896530D01*
X266130499Y-126896530D01*
X266090130Y-126693580D01*
X266010941Y-126502402D01*
X265895977Y-126330345D01*
X265895975Y-126330342D01*
X265749657Y-126184024D01*
X265581655Y-126071770D01*
X265577598Y-126069059D01*
X265511905Y-126041848D01*
X265386420Y-125989870D01*
X265386412Y-125989868D01*
X265183469Y-125949500D01*
X265183465Y-125949500D01*
X264976535Y-125949500D01*
X264976530Y-125949500D01*
X264773587Y-125989868D01*
X264773579Y-125989870D01*
X264582403Y-126069058D01*
X264410342Y-126184024D01*
X264264024Y-126330342D01*
X264149058Y-126502403D01*
X264069870Y-126693579D01*
X264069868Y-126693587D01*
X264029500Y-126896530D01*
X261050500Y-126896530D01*
X261050500Y-126130249D01*
X261050499Y-126130247D01*
X261038868Y-126071770D01*
X261038867Y-126071769D01*
X260994552Y-126005447D01*
X260928230Y-125961132D01*
X260928229Y-125961131D01*
X260869752Y-125949500D01*
X260869748Y-125949500D01*
X259130252Y-125949500D01*
X259130247Y-125949500D01*
X259071770Y-125961131D01*
X259071769Y-125961132D01*
X259005447Y-126005447D01*
X258961132Y-126071769D01*
X258961131Y-126071770D01*
X258949500Y-126130247D01*
X255131500Y-126130247D01*
X255131500Y-46195730D01*
X313799500Y-46195730D01*
X313799500Y-47804269D01*
X313802353Y-47834699D01*
X313802353Y-47834701D01*
X313847206Y-47962880D01*
X313847207Y-47962882D01*
X313927850Y-48072150D01*
X314037118Y-48152793D01*
X314079845Y-48167744D01*
X314165299Y-48197646D01*
X314195730Y-48200500D01*
X314195734Y-48200500D01*
X315804270Y-48200500D01*
X315834699Y-48197646D01*
X315834701Y-48197646D01*
X315898790Y-48175219D01*
X315962882Y-48152793D01*
X316072150Y-48072150D01*
X316152793Y-47962882D01*
X316176581Y-47894900D01*
X316197646Y-47834701D01*
X316197646Y-47834699D01*
X316200500Y-47804269D01*
X316200500Y-46195730D01*
X316197646Y-46165300D01*
X316197646Y-46165298D01*
X316152793Y-46037119D01*
X316152792Y-46037117D01*
X316072150Y-45927850D01*
X315962882Y-45847207D01*
X315962880Y-45847206D01*
X315834700Y-45802353D01*
X315804270Y-45799500D01*
X315804266Y-45799500D01*
X314195734Y-45799500D01*
X314195730Y-45799500D01*
X314165300Y-45802353D01*
X314165298Y-45802353D01*
X314037119Y-45847206D01*
X314037117Y-45847207D01*
X313927850Y-45927850D01*
X313847207Y-46037117D01*
X313847206Y-46037119D01*
X313802353Y-46165298D01*
X313802353Y-46165300D01*
X313799500Y-46195730D01*
X255131500Y-46195730D01*
X255131500Y-44975476D01*
X255151185Y-44908437D01*
X255167819Y-44887795D01*
X255195102Y-44860512D01*
X255231500Y-44824114D01*
X255297392Y-44709986D01*
X255331500Y-44582692D01*
X255331500Y-44450908D01*
X255297392Y-44323614D01*
X255231500Y-44209486D01*
X255138314Y-44116300D01*
X255081250Y-44083354D01*
X255024187Y-44050408D01*
X254960539Y-44033354D01*
X254896892Y-44016300D01*
X254765108Y-44016300D01*
X254637812Y-44050408D01*
X254523686Y-44116300D01*
X254523683Y-44116302D01*
X254430502Y-44209483D01*
X254430500Y-44209486D01*
X254364608Y-44323612D01*
X254330500Y-44450908D01*
X254330500Y-44582691D01*
X254364608Y-44709987D01*
X254389652Y-44753364D01*
X254430500Y-44824114D01*
X254430502Y-44824116D01*
X254494181Y-44887795D01*
X254527666Y-44949118D01*
X254530500Y-44975476D01*
X254530500Y-191993167D01*
X254510815Y-192060206D01*
X254494181Y-192080848D01*
X246111848Y-200463181D01*
X246050525Y-200496666D01*
X246024167Y-200499500D01*
X243895730Y-200499500D01*
X243865300Y-200502353D01*
X243865298Y-200502353D01*
X243737119Y-200547206D01*
X243737117Y-200547207D01*
X243627850Y-200627850D01*
X243547207Y-200737117D01*
X243547206Y-200737119D01*
X243502353Y-200865298D01*
X243502353Y-200865300D01*
X243499500Y-200895730D01*
X206500500Y-200895730D01*
X206497646Y-200865300D01*
X206497646Y-200865298D01*
X206452793Y-200737119D01*
X206452792Y-200737117D01*
X206372150Y-200627850D01*
X206262882Y-200547207D01*
X206262880Y-200547206D01*
X206134700Y-200502353D01*
X206104270Y-200499500D01*
X206104266Y-200499500D01*
X203895734Y-200499500D01*
X203895730Y-200499500D01*
X203865300Y-200502353D01*
X203865298Y-200502353D01*
X203737119Y-200547206D01*
X203737117Y-200547207D01*
X203627850Y-200627850D01*
X203547207Y-200737117D01*
X203547206Y-200737119D01*
X203502353Y-200865298D01*
X203502353Y-200865300D01*
X203499500Y-200895730D01*
X166500500Y-200895730D01*
X166497646Y-200865300D01*
X166497646Y-200865298D01*
X166452793Y-200737119D01*
X166452792Y-200737117D01*
X166372150Y-200627850D01*
X166262882Y-200547207D01*
X166262880Y-200547206D01*
X166134700Y-200502353D01*
X166104270Y-200499500D01*
X166104266Y-200499500D01*
X163895734Y-200499500D01*
X163895730Y-200499500D01*
X163865300Y-200502353D01*
X163865298Y-200502353D01*
X163737119Y-200547206D01*
X163737117Y-200547207D01*
X163627850Y-200627850D01*
X163547207Y-200737117D01*
X163547206Y-200737119D01*
X163502353Y-200865298D01*
X163502353Y-200865300D01*
X163499500Y-200895730D01*
X126500500Y-200895730D01*
X126497646Y-200865300D01*
X126497646Y-200865298D01*
X126452793Y-200737119D01*
X126452792Y-200737117D01*
X126372150Y-200627850D01*
X126262882Y-200547207D01*
X126262880Y-200547206D01*
X126134700Y-200502353D01*
X126104270Y-200499500D01*
X126104266Y-200499500D01*
X123895734Y-200499500D01*
X123895730Y-200499500D01*
X123865300Y-200502353D01*
X123865298Y-200502353D01*
X123737119Y-200547206D01*
X123737117Y-200547207D01*
X123627850Y-200627850D01*
X123547207Y-200737117D01*
X123547206Y-200737119D01*
X123502353Y-200865298D01*
X123502353Y-200865300D01*
X123499500Y-200895730D01*
X86500500Y-200895730D01*
X86497646Y-200865300D01*
X86497646Y-200865298D01*
X86452793Y-200737119D01*
X86452792Y-200737117D01*
X86372150Y-200627850D01*
X86262882Y-200547207D01*
X86262880Y-200547206D01*
X86134700Y-200502353D01*
X86104270Y-200499500D01*
X86104266Y-200499500D01*
X83895734Y-200499500D01*
X83895730Y-200499500D01*
X83865300Y-200502353D01*
X83865298Y-200502353D01*
X83737119Y-200547206D01*
X83737117Y-200547207D01*
X83627850Y-200627850D01*
X83547207Y-200737117D01*
X83547206Y-200737119D01*
X83502353Y-200865298D01*
X83502353Y-200865300D01*
X83499500Y-200895730D01*
X46500500Y-200895730D01*
X46497646Y-200865300D01*
X46497646Y-200865298D01*
X46452793Y-200737119D01*
X46452792Y-200737117D01*
X46372150Y-200627850D01*
X46262882Y-200547207D01*
X46262880Y-200547206D01*
X46134700Y-200502353D01*
X46104270Y-200499500D01*
X46104266Y-200499500D01*
X43976079Y-200499500D01*
X43946638Y-200490855D01*
X43916642Y-200484327D01*
X43911632Y-200480576D01*
X43909040Y-200479815D01*
X43888393Y-200463176D01*
X43720109Y-200294861D01*
X43686631Y-200233536D01*
X43683800Y-200207189D01*
X43683800Y-192945189D01*
X43703485Y-192878150D01*
X43756289Y-192832395D01*
X43825447Y-192822451D01*
X43889003Y-192851476D01*
X43895481Y-192857508D01*
X44022490Y-192984517D01*
X44213567Y-193123343D01*
X44312991Y-193174002D01*
X44424003Y-193230566D01*
X44424005Y-193230566D01*
X44424008Y-193230568D01*
X44544412Y-193269689D01*
X44648631Y-193303553D01*
X44881903Y-193340500D01*
X44881908Y-193340500D01*
X45118097Y-193340500D01*
X45351368Y-193303553D01*
X45575992Y-193230568D01*
X45786433Y-193123343D01*
X45977510Y-192984517D01*
X46144517Y-192817510D01*
X46283343Y-192626433D01*
X46390568Y-192415992D01*
X46463553Y-192191368D01*
X46473362Y-192129438D01*
X46500500Y-191958097D01*
X46500500Y-191721902D01*
X83499500Y-191721902D01*
X83499500Y-191958097D01*
X83536446Y-192191368D01*
X83609433Y-192415996D01*
X83716657Y-192626433D01*
X83855483Y-192817510D01*
X84022490Y-192984517D01*
X84213567Y-193123343D01*
X84312991Y-193174002D01*
X84424003Y-193230566D01*
X84424005Y-193230566D01*
X84424008Y-193230568D01*
X84544412Y-193269689D01*
X84648631Y-193303553D01*
X84881903Y-193340500D01*
X84881908Y-193340500D01*
X85118097Y-193340500D01*
X85351368Y-193303553D01*
X85575992Y-193230568D01*
X85786433Y-193123343D01*
X85977510Y-192984517D01*
X86144517Y-192817510D01*
X86283343Y-192626433D01*
X86390568Y-192415992D01*
X86463553Y-192191368D01*
X86473362Y-192129438D01*
X86500500Y-191958097D01*
X86500500Y-191721902D01*
X123499500Y-191721902D01*
X123499500Y-191958097D01*
X123536446Y-192191368D01*
X123609433Y-192415996D01*
X123716657Y-192626433D01*
X123855483Y-192817510D01*
X124022490Y-192984517D01*
X124213567Y-193123343D01*
X124312991Y-193174002D01*
X124424003Y-193230566D01*
X124424005Y-193230566D01*
X124424008Y-193230568D01*
X124544412Y-193269689D01*
X124648631Y-193303553D01*
X124881903Y-193340500D01*
X124881908Y-193340500D01*
X125118097Y-193340500D01*
X125351368Y-193303553D01*
X125575992Y-193230568D01*
X125786433Y-193123343D01*
X125977510Y-192984517D01*
X126144517Y-192817510D01*
X126283343Y-192626433D01*
X126390568Y-192415992D01*
X126463553Y-192191368D01*
X126473362Y-192129438D01*
X126500500Y-191958097D01*
X126500500Y-191865108D01*
X161544500Y-191865108D01*
X161544500Y-191996891D01*
X161578608Y-192124187D01*
X161581640Y-192129438D01*
X161644500Y-192238314D01*
X161737686Y-192331500D01*
X161851814Y-192397392D01*
X161979108Y-192431500D01*
X161979110Y-192431500D01*
X162110890Y-192431500D01*
X162110892Y-192431500D01*
X162238186Y-192397392D01*
X162352314Y-192331500D01*
X162445500Y-192238314D01*
X162511392Y-192124186D01*
X162545500Y-191996892D01*
X162545500Y-191906337D01*
X162565185Y-191839298D01*
X162581752Y-191818723D01*
X162678425Y-191721902D01*
X163499500Y-191721902D01*
X163499500Y-191958097D01*
X163536446Y-192191368D01*
X163609433Y-192415996D01*
X163716657Y-192626433D01*
X163855483Y-192817510D01*
X164022490Y-192984517D01*
X164213567Y-193123343D01*
X164312991Y-193174002D01*
X164424003Y-193230566D01*
X164424005Y-193230566D01*
X164424008Y-193230568D01*
X164544412Y-193269689D01*
X164648631Y-193303553D01*
X164881903Y-193340500D01*
X164881908Y-193340500D01*
X165118097Y-193340500D01*
X165351368Y-193303553D01*
X165575992Y-193230568D01*
X165786433Y-193123343D01*
X165977510Y-192984517D01*
X166144517Y-192817510D01*
X166283343Y-192626433D01*
X166390568Y-192415992D01*
X166463553Y-192191368D01*
X166473362Y-192129438D01*
X166500500Y-191958097D01*
X166500500Y-191721902D01*
X166463553Y-191488631D01*
X166406956Y-191314445D01*
X166390568Y-191264008D01*
X166390566Y-191264005D01*
X166390566Y-191264003D01*
X166332815Y-191150662D01*
X166299959Y-191086178D01*
X166287064Y-191017512D01*
X166313340Y-190952772D01*
X166322755Y-190942214D01*
X170560460Y-186704511D01*
X170600021Y-186635989D01*
X170620500Y-186559562D01*
X170620500Y-133095435D01*
X170640185Y-133028396D01*
X170692989Y-132982641D01*
X170697012Y-132980889D01*
X170817598Y-132930941D01*
X170989655Y-132815977D01*
X171135977Y-132669655D01*
X171250941Y-132497598D01*
X171330130Y-132306420D01*
X171370500Y-132103465D01*
X171370500Y-131896535D01*
X171330130Y-131693580D01*
X171250941Y-131502402D01*
X171135977Y-131330345D01*
X171135975Y-131330342D01*
X170989657Y-131184024D01*
X170909173Y-131130247D01*
X183949500Y-131130247D01*
X183949500Y-132869752D01*
X183961131Y-132928229D01*
X183961132Y-132928230D01*
X184005447Y-132994552D01*
X184071769Y-133038867D01*
X184071770Y-133038868D01*
X184130247Y-133050499D01*
X184130250Y-133050500D01*
X184130252Y-133050500D01*
X185869750Y-133050500D01*
X185869751Y-133050499D01*
X185884568Y-133047552D01*
X185928229Y-133038868D01*
X185928229Y-133038867D01*
X185928231Y-133038867D01*
X185994552Y-132994552D01*
X186038867Y-132928231D01*
X186038867Y-132928229D01*
X186038868Y-132928229D01*
X186050499Y-132869752D01*
X186050500Y-132869750D01*
X186050500Y-131896530D01*
X189029500Y-131896530D01*
X189029500Y-132103469D01*
X189069868Y-132306412D01*
X189069870Y-132306420D01*
X189124227Y-132437650D01*
X189149059Y-132497598D01*
X189161867Y-132516766D01*
X189264024Y-132669657D01*
X189410342Y-132815975D01*
X189410345Y-132815977D01*
X189582402Y-132930941D01*
X189773580Y-133010130D01*
X189918052Y-133038867D01*
X189976530Y-133050499D01*
X189976534Y-133050500D01*
X189976535Y-133050500D01*
X190183466Y-133050500D01*
X190183467Y-133050499D01*
X190386420Y-133010130D01*
X190577598Y-132930941D01*
X190749655Y-132815977D01*
X190895977Y-132669655D01*
X191010941Y-132497598D01*
X191090130Y-132306420D01*
X191130500Y-132103465D01*
X191130500Y-131896535D01*
X191090130Y-131693580D01*
X191010941Y-131502402D01*
X190895977Y-131330345D01*
X190895975Y-131330342D01*
X190749657Y-131184024D01*
X190581655Y-131071770D01*
X190577598Y-131069059D01*
X190577593Y-131069057D01*
X190386420Y-130989870D01*
X190386412Y-130989868D01*
X190183469Y-130949500D01*
X190183465Y-130949500D01*
X189976535Y-130949500D01*
X189976530Y-130949500D01*
X189773587Y-130989868D01*
X189773579Y-130989870D01*
X189582403Y-131069058D01*
X189410342Y-131184024D01*
X189264024Y-131330342D01*
X189149058Y-131502403D01*
X189069870Y-131693579D01*
X189069868Y-131693587D01*
X189029500Y-131896530D01*
X186050500Y-131896530D01*
X186050500Y-131130249D01*
X186050499Y-131130247D01*
X186038868Y-131071770D01*
X186038867Y-131071769D01*
X185994552Y-131005447D01*
X185928230Y-130961132D01*
X185928229Y-130961131D01*
X185869752Y-130949500D01*
X185869748Y-130949500D01*
X184130252Y-130949500D01*
X184130247Y-130949500D01*
X184071770Y-130961131D01*
X184071769Y-130961132D01*
X184005447Y-131005447D01*
X183961132Y-131071769D01*
X183961131Y-131071770D01*
X183949500Y-131130247D01*
X170909173Y-131130247D01*
X170821655Y-131071770D01*
X170817598Y-131069059D01*
X170817593Y-131069057D01*
X170626420Y-130989870D01*
X170626412Y-130989868D01*
X170423469Y-130949500D01*
X170423465Y-130949500D01*
X170216535Y-130949500D01*
X170216530Y-130949500D01*
X170013587Y-130989868D01*
X170013579Y-130989870D01*
X169822403Y-131069058D01*
X169650342Y-131184024D01*
X169504024Y-131330342D01*
X169389058Y-131502403D01*
X169309870Y-131693579D01*
X169309868Y-131693587D01*
X169269500Y-131896530D01*
X169269500Y-132103469D01*
X169309868Y-132306412D01*
X169309870Y-132306420D01*
X169364227Y-132437650D01*
X169389059Y-132497598D01*
X169401867Y-132516766D01*
X169504024Y-132669657D01*
X169650342Y-132815975D01*
X169650345Y-132815977D01*
X169822402Y-132930941D01*
X169942953Y-132980875D01*
X169997356Y-133024714D01*
X170019421Y-133091008D01*
X170019500Y-133095435D01*
X170019500Y-186344166D01*
X169999815Y-186411205D01*
X169983181Y-186431847D01*
X165897793Y-190517234D01*
X165836470Y-190550719D01*
X165766778Y-190545735D01*
X165753817Y-190540038D01*
X165575996Y-190449433D01*
X165351368Y-190376446D01*
X165118097Y-190339500D01*
X165118092Y-190339500D01*
X164881908Y-190339500D01*
X164881903Y-190339500D01*
X164648631Y-190376446D01*
X164424003Y-190449433D01*
X164213566Y-190556657D01*
X164171901Y-190586929D01*
X164022490Y-190695483D01*
X164022488Y-190695485D01*
X164022487Y-190695485D01*
X163855485Y-190862487D01*
X163855485Y-190862488D01*
X163855483Y-190862490D01*
X163797566Y-190942205D01*
X163716657Y-191053566D01*
X163609433Y-191264003D01*
X163536446Y-191488631D01*
X163499500Y-191721902D01*
X162678425Y-191721902D01*
X162912989Y-191486980D01*
X162913073Y-191486934D01*
X162913055Y-191486916D01*
X162926758Y-191473212D01*
X162940460Y-191459511D01*
X162940461Y-191459508D01*
X162940463Y-191459507D01*
X162940597Y-191459333D01*
X162940598Y-191459330D01*
X162940601Y-191459328D01*
X162960579Y-191424662D01*
X162980021Y-191390989D01*
X162980022Y-191390984D01*
X162980026Y-191390978D01*
X162980106Y-191390784D01*
X162980107Y-191390779D01*
X162980110Y-191390775D01*
X162990367Y-191352374D01*
X163000500Y-191314562D01*
X163000500Y-191314554D01*
X163000528Y-191314340D01*
X163000530Y-191314333D01*
X163000500Y-191275419D01*
X163000500Y-188838108D01*
X164503500Y-188838108D01*
X164503500Y-188969891D01*
X164537608Y-189097187D01*
X164570554Y-189154250D01*
X164603500Y-189211314D01*
X164696686Y-189304500D01*
X164810814Y-189370392D01*
X164938108Y-189404500D01*
X164938110Y-189404500D01*
X165069890Y-189404500D01*
X165069892Y-189404500D01*
X165197186Y-189370392D01*
X165311314Y-189304500D01*
X165404500Y-189211314D01*
X165470392Y-189097186D01*
X165504500Y-188969892D01*
X165504500Y-188879832D01*
X165524185Y-188812793D01*
X165540819Y-188792151D01*
X165965789Y-188367181D01*
X168020460Y-186312511D01*
X168060021Y-186243989D01*
X168080500Y-186167562D01*
X168080500Y-133095435D01*
X168100185Y-133028396D01*
X168152989Y-132982641D01*
X168157012Y-132980889D01*
X168277598Y-132930941D01*
X168449655Y-132815977D01*
X168595977Y-132669655D01*
X168710941Y-132497598D01*
X168790130Y-132306420D01*
X168830500Y-132103465D01*
X168830500Y-131896535D01*
X168790130Y-131693580D01*
X168710941Y-131502402D01*
X168595977Y-131330345D01*
X168595975Y-131330342D01*
X168449657Y-131184024D01*
X168281655Y-131071770D01*
X168277598Y-131069059D01*
X168277593Y-131069057D01*
X168086420Y-130989870D01*
X168086412Y-130989868D01*
X167883469Y-130949500D01*
X167883465Y-130949500D01*
X167676535Y-130949500D01*
X167676530Y-130949500D01*
X167473587Y-130989868D01*
X167473579Y-130989870D01*
X167282403Y-131069058D01*
X167110342Y-131184024D01*
X166964024Y-131330342D01*
X166849058Y-131502403D01*
X166769870Y-131693579D01*
X166769868Y-131693587D01*
X166729500Y-131896530D01*
X166729500Y-132103469D01*
X166769868Y-132306412D01*
X166769870Y-132306420D01*
X166824227Y-132437650D01*
X166849059Y-132497598D01*
X166861867Y-132516766D01*
X166964024Y-132669657D01*
X167110342Y-132815975D01*
X167110345Y-132815977D01*
X167282402Y-132930941D01*
X167402953Y-132980875D01*
X167457356Y-133024714D01*
X167479421Y-133091008D01*
X167479500Y-133095435D01*
X167479500Y-185952166D01*
X167459815Y-186019205D01*
X167443181Y-186039847D01*
X165115847Y-188367181D01*
X165054524Y-188400666D01*
X165028166Y-188403500D01*
X164938108Y-188403500D01*
X164810812Y-188437608D01*
X164696686Y-188503500D01*
X164696683Y-188503502D01*
X164603502Y-188596683D01*
X164603500Y-188596686D01*
X164537608Y-188710812D01*
X164503500Y-188838108D01*
X163000500Y-188838108D01*
X163000500Y-133095435D01*
X163020185Y-133028396D01*
X163072989Y-132982641D01*
X163077012Y-132980889D01*
X163197598Y-132930941D01*
X163369655Y-132815977D01*
X163515977Y-132669655D01*
X163630941Y-132497598D01*
X163710130Y-132306420D01*
X163750500Y-132103465D01*
X163750500Y-131896535D01*
X163750499Y-131896530D01*
X164189500Y-131896530D01*
X164189500Y-132103469D01*
X164229868Y-132306412D01*
X164229870Y-132306420D01*
X164284227Y-132437650D01*
X164309059Y-132497598D01*
X164321867Y-132516766D01*
X164424024Y-132669657D01*
X164570342Y-132815975D01*
X164570345Y-132815977D01*
X164742402Y-132930941D01*
X164862953Y-132980875D01*
X164917356Y-133024714D01*
X164939421Y-133091008D01*
X164939500Y-133095435D01*
X164939500Y-182366088D01*
X164919815Y-182433127D01*
X164867011Y-182478882D01*
X164847601Y-182485861D01*
X164844814Y-182486607D01*
X164730686Y-182552500D01*
X164730683Y-182552502D01*
X164637502Y-182645683D01*
X164637500Y-182645686D01*
X164571608Y-182759812D01*
X164537500Y-182887108D01*
X164537500Y-183018891D01*
X164571608Y-183146187D01*
X164604554Y-183203250D01*
X164637500Y-183260314D01*
X164730686Y-183353500D01*
X164844814Y-183419392D01*
X164972108Y-183453500D01*
X164972110Y-183453500D01*
X165103890Y-183453500D01*
X165103892Y-183453500D01*
X165231186Y-183419392D01*
X165345314Y-183353500D01*
X165438500Y-183260314D01*
X165504392Y-183146186D01*
X165538500Y-183018892D01*
X165538500Y-182887108D01*
X165535164Y-182874657D01*
X165535164Y-182810471D01*
X165540500Y-182790562D01*
X165540500Y-133095435D01*
X165560185Y-133028396D01*
X165612989Y-132982641D01*
X165617012Y-132980889D01*
X165737598Y-132930941D01*
X165909655Y-132815977D01*
X166055977Y-132669655D01*
X166170941Y-132497598D01*
X166250130Y-132306420D01*
X166290500Y-132103465D01*
X166290500Y-131896535D01*
X166250130Y-131693580D01*
X166170941Y-131502402D01*
X166055977Y-131330345D01*
X166055975Y-131330342D01*
X165909657Y-131184024D01*
X165741655Y-131071770D01*
X165737598Y-131069059D01*
X165737593Y-131069057D01*
X165546420Y-130989870D01*
X165546412Y-130989868D01*
X165343469Y-130949500D01*
X165343465Y-130949500D01*
X165136535Y-130949500D01*
X165136530Y-130949500D01*
X164933587Y-130989868D01*
X164933579Y-130989870D01*
X164742403Y-131069058D01*
X164570342Y-131184024D01*
X164424024Y-131330342D01*
X164309058Y-131502403D01*
X164229870Y-131693579D01*
X164229868Y-131693587D01*
X164189500Y-131896530D01*
X163750499Y-131896530D01*
X163710130Y-131693580D01*
X163630941Y-131502402D01*
X163515977Y-131330345D01*
X163515975Y-131330342D01*
X163369657Y-131184024D01*
X163201655Y-131071770D01*
X163197598Y-131069059D01*
X163197593Y-131069057D01*
X163006420Y-130989870D01*
X163006412Y-130989868D01*
X162803469Y-130949500D01*
X162803465Y-130949500D01*
X162596535Y-130949500D01*
X162596530Y-130949500D01*
X162393587Y-130989868D01*
X162393579Y-130989870D01*
X162202403Y-131069058D01*
X162030342Y-131184024D01*
X161884024Y-131330342D01*
X161769058Y-131502403D01*
X161689870Y-131693579D01*
X161689868Y-131693587D01*
X161649500Y-131896530D01*
X161649500Y-132103469D01*
X161689868Y-132306412D01*
X161689870Y-132306420D01*
X161744227Y-132437650D01*
X161769059Y-132497598D01*
X161781867Y-132516766D01*
X161884024Y-132669657D01*
X162030342Y-132815975D01*
X162030345Y-132815977D01*
X162202402Y-132930941D01*
X162322953Y-132980875D01*
X162377356Y-133024714D01*
X162399421Y-133091008D01*
X162399500Y-133095435D01*
X162399500Y-191099355D01*
X162379815Y-191166394D01*
X162363248Y-191186969D01*
X162156419Y-191394114D01*
X162095122Y-191427646D01*
X162068671Y-191430500D01*
X161979108Y-191430500D01*
X161851812Y-191464608D01*
X161737686Y-191530500D01*
X161737683Y-191530502D01*
X161644502Y-191623683D01*
X161644500Y-191623686D01*
X161578608Y-191737812D01*
X161544500Y-191865108D01*
X126500500Y-191865108D01*
X126500500Y-191721902D01*
X126463553Y-191488631D01*
X126406956Y-191314445D01*
X126390568Y-191264008D01*
X126390566Y-191264005D01*
X126390566Y-191264003D01*
X126306673Y-191099355D01*
X126283343Y-191053567D01*
X126144517Y-190862490D01*
X125977510Y-190695483D01*
X125786433Y-190556657D01*
X125774779Y-190550719D01*
X125575996Y-190449433D01*
X125351368Y-190376446D01*
X125118097Y-190339500D01*
X125118092Y-190339500D01*
X124881908Y-190339500D01*
X124881903Y-190339500D01*
X124648631Y-190376446D01*
X124424003Y-190449433D01*
X124213566Y-190556657D01*
X124171901Y-190586929D01*
X124022490Y-190695483D01*
X124022488Y-190695485D01*
X124022487Y-190695485D01*
X123855485Y-190862487D01*
X123855485Y-190862488D01*
X123855483Y-190862490D01*
X123797566Y-190942205D01*
X123716657Y-191053566D01*
X123609433Y-191264003D01*
X123536446Y-191488631D01*
X123499500Y-191721902D01*
X86500500Y-191721902D01*
X86463553Y-191488631D01*
X86406956Y-191314445D01*
X86390568Y-191264008D01*
X86390566Y-191264005D01*
X86390566Y-191264003D01*
X86306673Y-191099355D01*
X86283343Y-191053567D01*
X86144517Y-190862490D01*
X85977510Y-190695483D01*
X85786433Y-190556657D01*
X85774779Y-190550719D01*
X85575996Y-190449433D01*
X85351368Y-190376446D01*
X85118097Y-190339500D01*
X85118092Y-190339500D01*
X84881908Y-190339500D01*
X84881903Y-190339500D01*
X84648631Y-190376446D01*
X84424003Y-190449433D01*
X84213566Y-190556657D01*
X84171901Y-190586929D01*
X84022490Y-190695483D01*
X84022488Y-190695485D01*
X84022487Y-190695485D01*
X83855485Y-190862487D01*
X83855485Y-190862488D01*
X83855483Y-190862490D01*
X83797566Y-190942205D01*
X83716657Y-191053566D01*
X83609433Y-191264003D01*
X83536446Y-191488631D01*
X83499500Y-191721902D01*
X46500500Y-191721902D01*
X46463553Y-191488631D01*
X46406956Y-191314445D01*
X46390568Y-191264008D01*
X46390566Y-191264005D01*
X46390566Y-191264003D01*
X46306673Y-191099355D01*
X46283343Y-191053567D01*
X46144517Y-190862490D01*
X45977510Y-190695483D01*
X45786433Y-190556657D01*
X45774779Y-190550719D01*
X45575996Y-190449433D01*
X45351368Y-190376446D01*
X45118097Y-190339500D01*
X45118092Y-190339500D01*
X44881908Y-190339500D01*
X44881903Y-190339500D01*
X44648631Y-190376446D01*
X44424003Y-190449433D01*
X44213566Y-190556657D01*
X44171901Y-190586929D01*
X44022490Y-190695483D01*
X44022488Y-190695485D01*
X44022487Y-190695485D01*
X43895481Y-190822492D01*
X43834158Y-190855977D01*
X43764466Y-190850993D01*
X43708533Y-190809121D01*
X43684116Y-190743657D01*
X43683800Y-190734811D01*
X43683800Y-138252822D01*
X43703485Y-138185783D01*
X43720110Y-138165149D01*
X45737816Y-136147275D01*
X45799137Y-136113790D01*
X45868829Y-136118771D01*
X45924764Y-136160640D01*
X45949184Y-136226104D01*
X45949500Y-136234955D01*
X45949500Y-137869752D01*
X45961131Y-137928229D01*
X45961132Y-137928230D01*
X46005447Y-137994552D01*
X46071769Y-138038867D01*
X46071770Y-138038868D01*
X46130247Y-138050499D01*
X46130250Y-138050500D01*
X46130252Y-138050500D01*
X47869750Y-138050500D01*
X47869751Y-138050499D01*
X47884568Y-138047552D01*
X47928229Y-138038868D01*
X47928229Y-138038867D01*
X47928231Y-138038867D01*
X47994552Y-137994552D01*
X48038867Y-137928231D01*
X48038867Y-137928229D01*
X48038868Y-137928229D01*
X48050499Y-137869752D01*
X48050500Y-137869750D01*
X48050500Y-136896530D01*
X48489500Y-136896530D01*
X48489500Y-137103469D01*
X48529868Y-137306412D01*
X48529870Y-137306420D01*
X48609058Y-137497596D01*
X48724024Y-137669657D01*
X48870342Y-137815975D01*
X48870345Y-137815977D01*
X49042402Y-137930941D01*
X49233580Y-138010130D01*
X49378052Y-138038867D01*
X49436530Y-138050499D01*
X49436534Y-138050500D01*
X49436535Y-138050500D01*
X49643466Y-138050500D01*
X49643467Y-138050499D01*
X49846420Y-138010130D01*
X50037598Y-137930941D01*
X50209655Y-137815977D01*
X50355977Y-137669655D01*
X50470941Y-137497598D01*
X50550130Y-137306420D01*
X50590500Y-137103465D01*
X50590500Y-136896535D01*
X50590499Y-136896530D01*
X51029500Y-136896530D01*
X51029500Y-137103469D01*
X51069868Y-137306412D01*
X51069870Y-137306420D01*
X51149058Y-137497596D01*
X51264024Y-137669657D01*
X51410342Y-137815975D01*
X51410345Y-137815977D01*
X51582402Y-137930941D01*
X51773580Y-138010130D01*
X51918052Y-138038867D01*
X51976530Y-138050499D01*
X51976534Y-138050500D01*
X51976535Y-138050500D01*
X52183466Y-138050500D01*
X52183467Y-138050499D01*
X52386420Y-138010130D01*
X52577598Y-137930941D01*
X52749655Y-137815977D01*
X52895977Y-137669655D01*
X53010941Y-137497598D01*
X53090130Y-137306420D01*
X53130500Y-137103465D01*
X53130500Y-136896535D01*
X53130499Y-136896530D01*
X53569500Y-136896530D01*
X53569500Y-137103469D01*
X53609868Y-137306412D01*
X53609870Y-137306420D01*
X53689058Y-137497596D01*
X53804024Y-137669657D01*
X53950342Y-137815975D01*
X53950345Y-137815977D01*
X54122402Y-137930941D01*
X54313580Y-138010130D01*
X54458052Y-138038867D01*
X54516530Y-138050499D01*
X54516534Y-138050500D01*
X54516535Y-138050500D01*
X54723466Y-138050500D01*
X54723467Y-138050499D01*
X54926420Y-138010130D01*
X55117598Y-137930941D01*
X55289655Y-137815977D01*
X55435977Y-137669655D01*
X55550941Y-137497598D01*
X55630130Y-137306420D01*
X55670500Y-137103465D01*
X55670500Y-136896535D01*
X55670499Y-136896530D01*
X58649500Y-136896530D01*
X58649500Y-137103469D01*
X58689868Y-137306412D01*
X58689870Y-137306420D01*
X58769058Y-137497596D01*
X58884024Y-137669657D01*
X59030342Y-137815975D01*
X59030345Y-137815977D01*
X59202402Y-137930941D01*
X59393580Y-138010130D01*
X59538052Y-138038867D01*
X59596530Y-138050499D01*
X59596534Y-138050500D01*
X59596535Y-138050500D01*
X59803466Y-138050500D01*
X59803467Y-138050499D01*
X60006420Y-138010130D01*
X60197598Y-137930941D01*
X60369655Y-137815977D01*
X60515977Y-137669655D01*
X60630941Y-137497598D01*
X60710130Y-137306420D01*
X60750500Y-137103465D01*
X60750500Y-136896535D01*
X60750499Y-136896530D01*
X61189500Y-136896530D01*
X61189500Y-137103469D01*
X61229868Y-137306412D01*
X61229870Y-137306420D01*
X61309058Y-137497596D01*
X61424024Y-137669657D01*
X61570342Y-137815975D01*
X61570345Y-137815977D01*
X61742402Y-137930941D01*
X61933580Y-138010130D01*
X62078052Y-138038867D01*
X62136530Y-138050499D01*
X62136534Y-138050500D01*
X62136535Y-138050500D01*
X62343466Y-138050500D01*
X62343467Y-138050499D01*
X62546420Y-138010130D01*
X62737598Y-137930941D01*
X62909655Y-137815977D01*
X63055977Y-137669655D01*
X63170941Y-137497598D01*
X63250130Y-137306420D01*
X63290500Y-137103465D01*
X63290500Y-136896535D01*
X63290499Y-136896530D01*
X63729500Y-136896530D01*
X63729500Y-137103469D01*
X63769868Y-137306412D01*
X63769870Y-137306420D01*
X63849058Y-137497596D01*
X63964024Y-137669657D01*
X64110342Y-137815975D01*
X64110345Y-137815977D01*
X64282402Y-137930941D01*
X64473580Y-138010130D01*
X64618052Y-138038867D01*
X64676530Y-138050499D01*
X64676534Y-138050500D01*
X64676535Y-138050500D01*
X64883466Y-138050500D01*
X64883467Y-138050499D01*
X65086420Y-138010130D01*
X65277598Y-137930941D01*
X65449655Y-137815977D01*
X65595977Y-137669655D01*
X65710941Y-137497598D01*
X65790130Y-137306420D01*
X65830500Y-137103465D01*
X65830500Y-136896535D01*
X65790130Y-136693580D01*
X65710941Y-136502402D01*
X65595977Y-136330345D01*
X65595975Y-136330342D01*
X65449657Y-136184024D01*
X65343916Y-136113371D01*
X65277598Y-136069059D01*
X65225002Y-136047273D01*
X65086420Y-135989870D01*
X65086412Y-135989868D01*
X64883469Y-135949500D01*
X64883465Y-135949500D01*
X64676535Y-135949500D01*
X64676530Y-135949500D01*
X64473587Y-135989868D01*
X64473579Y-135989870D01*
X64282403Y-136069058D01*
X64110342Y-136184024D01*
X63964024Y-136330342D01*
X63849058Y-136502403D01*
X63769870Y-136693579D01*
X63769868Y-136693587D01*
X63729500Y-136896530D01*
X63290499Y-136896530D01*
X63250130Y-136693580D01*
X63170941Y-136502402D01*
X63055977Y-136330345D01*
X63055975Y-136330342D01*
X62909657Y-136184024D01*
X62803916Y-136113371D01*
X62737598Y-136069059D01*
X62685002Y-136047273D01*
X62546420Y-135989870D01*
X62546412Y-135989868D01*
X62343469Y-135949500D01*
X62343465Y-135949500D01*
X62136535Y-135949500D01*
X62136530Y-135949500D01*
X61933587Y-135989868D01*
X61933579Y-135989870D01*
X61742403Y-136069058D01*
X61570342Y-136184024D01*
X61424024Y-136330342D01*
X61309058Y-136502403D01*
X61229870Y-136693579D01*
X61229868Y-136693587D01*
X61189500Y-136896530D01*
X60750499Y-136896530D01*
X60710130Y-136693580D01*
X60630941Y-136502402D01*
X60515977Y-136330345D01*
X60515975Y-136330342D01*
X60369657Y-136184024D01*
X60263916Y-136113371D01*
X60197598Y-136069059D01*
X60145002Y-136047273D01*
X60006420Y-135989870D01*
X60006412Y-135989868D01*
X59803469Y-135949500D01*
X59803465Y-135949500D01*
X59596535Y-135949500D01*
X59596530Y-135949500D01*
X59393587Y-135989868D01*
X59393579Y-135989870D01*
X59202403Y-136069058D01*
X59030342Y-136184024D01*
X58884024Y-136330342D01*
X58769058Y-136502403D01*
X58689870Y-136693579D01*
X58689868Y-136693587D01*
X58649500Y-136896530D01*
X55670499Y-136896530D01*
X55630130Y-136693580D01*
X55550941Y-136502402D01*
X55435977Y-136330345D01*
X55435975Y-136330342D01*
X55289657Y-136184024D01*
X55183916Y-136113371D01*
X55117598Y-136069059D01*
X55065002Y-136047273D01*
X54926420Y-135989870D01*
X54926412Y-135989868D01*
X54723469Y-135949500D01*
X54723465Y-135949500D01*
X54516535Y-135949500D01*
X54516530Y-135949500D01*
X54313587Y-135989868D01*
X54313579Y-135989870D01*
X54122403Y-136069058D01*
X53950342Y-136184024D01*
X53804024Y-136330342D01*
X53689058Y-136502403D01*
X53609870Y-136693579D01*
X53609868Y-136693587D01*
X53569500Y-136896530D01*
X53130499Y-136896530D01*
X53090130Y-136693580D01*
X53010941Y-136502402D01*
X52895977Y-136330345D01*
X52895975Y-136330342D01*
X52749657Y-136184024D01*
X52643916Y-136113371D01*
X52577598Y-136069059D01*
X52525002Y-136047273D01*
X52386420Y-135989870D01*
X52386412Y-135989868D01*
X52183469Y-135949500D01*
X52183465Y-135949500D01*
X51976535Y-135949500D01*
X51976530Y-135949500D01*
X51773587Y-135989868D01*
X51773579Y-135989870D01*
X51582403Y-136069058D01*
X51410342Y-136184024D01*
X51264024Y-136330342D01*
X51149058Y-136502403D01*
X51069870Y-136693579D01*
X51069868Y-136693587D01*
X51029500Y-136896530D01*
X50590499Y-136896530D01*
X50550130Y-136693580D01*
X50470941Y-136502402D01*
X50355977Y-136330345D01*
X50355975Y-136330342D01*
X50209657Y-136184024D01*
X50103916Y-136113371D01*
X50037598Y-136069059D01*
X49985002Y-136047273D01*
X49846420Y-135989870D01*
X49846412Y-135989868D01*
X49643469Y-135949500D01*
X49643465Y-135949500D01*
X49436535Y-135949500D01*
X49436530Y-135949500D01*
X49233587Y-135989868D01*
X49233579Y-135989870D01*
X49042403Y-136069058D01*
X48870342Y-136184024D01*
X48724024Y-136330342D01*
X48609058Y-136502403D01*
X48529870Y-136693579D01*
X48529868Y-136693587D01*
X48489500Y-136896530D01*
X48050500Y-136896530D01*
X48050500Y-136130249D01*
X48050499Y-136130247D01*
X48038868Y-136071770D01*
X48038867Y-136071769D01*
X47994552Y-136005447D01*
X47928230Y-135961132D01*
X47928229Y-135961131D01*
X47869752Y-135949500D01*
X47869748Y-135949500D01*
X46234922Y-135949500D01*
X46167883Y-135929815D01*
X46122128Y-135877011D01*
X46112184Y-135807853D01*
X46141209Y-135744297D01*
X46147237Y-135737823D01*
X46437937Y-135447098D01*
X46499259Y-135413610D01*
X46568951Y-135418591D01*
X46573013Y-135420189D01*
X46693580Y-135470130D01*
X46896530Y-135510499D01*
X46896534Y-135510500D01*
X46896535Y-135510500D01*
X47103466Y-135510500D01*
X47103467Y-135510499D01*
X47306420Y-135470130D01*
X47497598Y-135390941D01*
X47669655Y-135275977D01*
X47815977Y-135129655D01*
X47930941Y-134957598D01*
X48010130Y-134766420D01*
X48050500Y-134563465D01*
X48050500Y-134356535D01*
X48050499Y-134356530D01*
X48489500Y-134356530D01*
X48489500Y-134563469D01*
X48529868Y-134766412D01*
X48529870Y-134766420D01*
X48566359Y-134854513D01*
X48609059Y-134957598D01*
X48632257Y-134992316D01*
X48724024Y-135129657D01*
X48870342Y-135275975D01*
X48870345Y-135275977D01*
X49042402Y-135390941D01*
X49233580Y-135470130D01*
X49436530Y-135510499D01*
X49436534Y-135510500D01*
X49436535Y-135510500D01*
X49643466Y-135510500D01*
X49643467Y-135510499D01*
X49846420Y-135470130D01*
X50037598Y-135390941D01*
X50209655Y-135275977D01*
X50355977Y-135129655D01*
X50470941Y-134957598D01*
X50550130Y-134766420D01*
X50590500Y-134563465D01*
X50590500Y-134356535D01*
X50590499Y-134356530D01*
X53569500Y-134356530D01*
X53569500Y-134563469D01*
X53609868Y-134766412D01*
X53609870Y-134766420D01*
X53646359Y-134854513D01*
X53689059Y-134957598D01*
X53712257Y-134992316D01*
X53804024Y-135129657D01*
X53950342Y-135275975D01*
X53950345Y-135275977D01*
X54122402Y-135390941D01*
X54313580Y-135470130D01*
X54516530Y-135510499D01*
X54516534Y-135510500D01*
X54516535Y-135510500D01*
X54723466Y-135510500D01*
X54723467Y-135510499D01*
X54926420Y-135470130D01*
X55117598Y-135390941D01*
X55289655Y-135275977D01*
X55435977Y-135129655D01*
X55550941Y-134957598D01*
X55630130Y-134766420D01*
X55670500Y-134563465D01*
X55670500Y-134356535D01*
X55670499Y-134356530D01*
X56109500Y-134356530D01*
X56109500Y-134563469D01*
X56149868Y-134766412D01*
X56149870Y-134766420D01*
X56186359Y-134854513D01*
X56229059Y-134957598D01*
X56252257Y-134992316D01*
X56344024Y-135129657D01*
X56490342Y-135275975D01*
X56490345Y-135275977D01*
X56662402Y-135390941D01*
X56853580Y-135470130D01*
X57056530Y-135510499D01*
X57056534Y-135510500D01*
X57056535Y-135510500D01*
X57263466Y-135510500D01*
X57263467Y-135510499D01*
X57466420Y-135470130D01*
X57657598Y-135390941D01*
X57829655Y-135275977D01*
X57975977Y-135129655D01*
X58090941Y-134957598D01*
X58170130Y-134766420D01*
X58210500Y-134563465D01*
X58210500Y-134356535D01*
X58210499Y-134356530D01*
X58649500Y-134356530D01*
X58649500Y-134563469D01*
X58689868Y-134766412D01*
X58689870Y-134766420D01*
X58726359Y-134854513D01*
X58769059Y-134957598D01*
X58792257Y-134992316D01*
X58884024Y-135129657D01*
X59030342Y-135275975D01*
X59030345Y-135275977D01*
X59202402Y-135390941D01*
X59393580Y-135470130D01*
X59596530Y-135510499D01*
X59596534Y-135510500D01*
X59596535Y-135510500D01*
X59803466Y-135510500D01*
X59803467Y-135510499D01*
X60006420Y-135470130D01*
X60197598Y-135390941D01*
X60369655Y-135275977D01*
X60515977Y-135129655D01*
X60630941Y-134957598D01*
X60710130Y-134766420D01*
X60750500Y-134563465D01*
X60750500Y-134356535D01*
X60750499Y-134356530D01*
X63729500Y-134356530D01*
X63729500Y-134563469D01*
X63769868Y-134766412D01*
X63769870Y-134766420D01*
X63806359Y-134854513D01*
X63849059Y-134957598D01*
X63872257Y-134992316D01*
X63964024Y-135129657D01*
X64110342Y-135275975D01*
X64110345Y-135275977D01*
X64282402Y-135390941D01*
X64473580Y-135470130D01*
X64676530Y-135510499D01*
X64676534Y-135510500D01*
X64676535Y-135510500D01*
X64883466Y-135510500D01*
X64883467Y-135510499D01*
X65086420Y-135470130D01*
X65277598Y-135390941D01*
X65449655Y-135275977D01*
X65595977Y-135129655D01*
X65639398Y-135064669D01*
X65693009Y-135019866D01*
X65762334Y-135011157D01*
X65825362Y-135041312D01*
X65862081Y-135100754D01*
X65866500Y-135133561D01*
X65866500Y-135886562D01*
X65867023Y-135888513D01*
X65886979Y-135962990D01*
X65886982Y-135962995D01*
X65926535Y-136031504D01*
X65926541Y-136031512D01*
X66332924Y-136437895D01*
X66366409Y-136499218D01*
X66361425Y-136568910D01*
X66359804Y-136573029D01*
X66309870Y-136693579D01*
X66309868Y-136693587D01*
X66269500Y-136896530D01*
X66269500Y-137103469D01*
X66309868Y-137306412D01*
X66309870Y-137306420D01*
X66389058Y-137497596D01*
X66504024Y-137669657D01*
X66650342Y-137815975D01*
X66650345Y-137815977D01*
X66822402Y-137930941D01*
X66822403Y-137930941D01*
X66822407Y-137930944D01*
X66827776Y-137933814D01*
X66826647Y-137935925D01*
X66872812Y-137973125D01*
X66894879Y-138039419D01*
X66877602Y-138107119D01*
X66858664Y-138131505D01*
X66377286Y-138613156D01*
X66315972Y-138646659D01*
X66289580Y-138649500D01*
X66199708Y-138649500D01*
X66072412Y-138683608D01*
X65958286Y-138749500D01*
X65958283Y-138749502D01*
X65865102Y-138842683D01*
X65865100Y-138842686D01*
X65799208Y-138956812D01*
X65765100Y-139084108D01*
X65765100Y-139215891D01*
X65799208Y-139343187D01*
X65817224Y-139374391D01*
X65865100Y-139457314D01*
X65958286Y-139550500D01*
X66072414Y-139616392D01*
X66199708Y-139650500D01*
X66199710Y-139650500D01*
X66331490Y-139650500D01*
X66331492Y-139650500D01*
X66458786Y-139616392D01*
X66572914Y-139550500D01*
X66666100Y-139457314D01*
X66731992Y-139343186D01*
X66766100Y-139215892D01*
X66766100Y-139125648D01*
X66785785Y-139058609D01*
X66802394Y-139037992D01*
X66837214Y-139003152D01*
X67534118Y-138305852D01*
X67560460Y-138279511D01*
X67560460Y-138279509D01*
X67560490Y-138279481D01*
X67560510Y-138279445D01*
X67560513Y-138279443D01*
X67580689Y-138244472D01*
X67580689Y-138244471D01*
X67580690Y-138244472D01*
X67580696Y-138244459D01*
X67600021Y-138210989D01*
X67600022Y-138210982D01*
X67600041Y-138210951D01*
X67600044Y-138210943D01*
X67600052Y-138210911D01*
X67600054Y-138210909D01*
X67610189Y-138173041D01*
X67610190Y-138173040D01*
X67610190Y-138173039D01*
X67610197Y-138173040D01*
X67610197Y-138173008D01*
X67620500Y-138134562D01*
X67620500Y-138134518D01*
X67620511Y-138134477D01*
X67620500Y-138095434D01*
X67629956Y-138063229D01*
X67640166Y-138028424D01*
X67640180Y-138028411D01*
X67640185Y-138028396D01*
X67664271Y-138007524D01*
X67692957Y-137982655D01*
X67697012Y-137980889D01*
X67817598Y-137930941D01*
X67989655Y-137815977D01*
X68135977Y-137669655D01*
X68250941Y-137497598D01*
X68330130Y-137306420D01*
X68370500Y-137103465D01*
X68370500Y-136896535D01*
X68370499Y-136896530D01*
X68809500Y-136896530D01*
X68809500Y-137103469D01*
X68849868Y-137306412D01*
X68849870Y-137306420D01*
X68929058Y-137497596D01*
X69044024Y-137669657D01*
X69190342Y-137815975D01*
X69190345Y-137815977D01*
X69362402Y-137930941D01*
X69553580Y-138010130D01*
X69698052Y-138038867D01*
X69756530Y-138050499D01*
X69756534Y-138050500D01*
X69756535Y-138050500D01*
X69963466Y-138050500D01*
X69963467Y-138050499D01*
X70166420Y-138010130D01*
X70357598Y-137930941D01*
X70529655Y-137815977D01*
X70675977Y-137669655D01*
X70790941Y-137497598D01*
X70870130Y-137306420D01*
X70910500Y-137103465D01*
X70910500Y-136896535D01*
X70910499Y-136896530D01*
X71349500Y-136896530D01*
X71349500Y-137103469D01*
X71389868Y-137306412D01*
X71389870Y-137306420D01*
X71469058Y-137497596D01*
X71584024Y-137669657D01*
X71730342Y-137815975D01*
X71730345Y-137815977D01*
X71902402Y-137930941D01*
X72093580Y-138010130D01*
X72238052Y-138038867D01*
X72296530Y-138050499D01*
X72296534Y-138050500D01*
X72296535Y-138050500D01*
X72503466Y-138050500D01*
X72503467Y-138050499D01*
X72706420Y-138010130D01*
X72897598Y-137930941D01*
X73069655Y-137815977D01*
X73215977Y-137669655D01*
X73330941Y-137497598D01*
X73410130Y-137306420D01*
X73450500Y-137103465D01*
X73450500Y-136896535D01*
X73450499Y-136896530D01*
X73889500Y-136896530D01*
X73889500Y-137103469D01*
X73929868Y-137306412D01*
X73929870Y-137306420D01*
X74009058Y-137497596D01*
X74124024Y-137669657D01*
X74270342Y-137815975D01*
X74270345Y-137815977D01*
X74442402Y-137930941D01*
X74633580Y-138010130D01*
X74778052Y-138038867D01*
X74836530Y-138050499D01*
X74836534Y-138050500D01*
X74836535Y-138050500D01*
X75043466Y-138050500D01*
X75043467Y-138050499D01*
X75246420Y-138010130D01*
X75437598Y-137930941D01*
X75609655Y-137815977D01*
X75755977Y-137669655D01*
X75870941Y-137497598D01*
X75950130Y-137306420D01*
X75990500Y-137103465D01*
X75990500Y-136896535D01*
X75950130Y-136693580D01*
X75870941Y-136502402D01*
X75755977Y-136330345D01*
X75755975Y-136330342D01*
X75609657Y-136184024D01*
X75503916Y-136113371D01*
X75437598Y-136069059D01*
X75385002Y-136047273D01*
X75246420Y-135989870D01*
X75246412Y-135989868D01*
X75043469Y-135949500D01*
X75043465Y-135949500D01*
X74836535Y-135949500D01*
X74836530Y-135949500D01*
X74633587Y-135989868D01*
X74633579Y-135989870D01*
X74442403Y-136069058D01*
X74270342Y-136184024D01*
X74124024Y-136330342D01*
X74009058Y-136502403D01*
X73929870Y-136693579D01*
X73929868Y-136693587D01*
X73889500Y-136896530D01*
X73450499Y-136896530D01*
X73410130Y-136693580D01*
X73330941Y-136502402D01*
X73215977Y-136330345D01*
X73215975Y-136330342D01*
X73069657Y-136184024D01*
X72963916Y-136113371D01*
X72897598Y-136069059D01*
X72845002Y-136047273D01*
X72706420Y-135989870D01*
X72706412Y-135989868D01*
X72503469Y-135949500D01*
X72503465Y-135949500D01*
X72296535Y-135949500D01*
X72296530Y-135949500D01*
X72093587Y-135989868D01*
X72093579Y-135989870D01*
X71902403Y-136069058D01*
X71730342Y-136184024D01*
X71584024Y-136330342D01*
X71469058Y-136502403D01*
X71389870Y-136693579D01*
X71389868Y-136693587D01*
X71349500Y-136896530D01*
X70910499Y-136896530D01*
X70870130Y-136693580D01*
X70790941Y-136502402D01*
X70675977Y-136330345D01*
X70675975Y-136330342D01*
X70529657Y-136184024D01*
X70423916Y-136113371D01*
X70357598Y-136069059D01*
X70305002Y-136047273D01*
X70166420Y-135989870D01*
X70166412Y-135989868D01*
X69963469Y-135949500D01*
X69963465Y-135949500D01*
X69756535Y-135949500D01*
X69756530Y-135949500D01*
X69553587Y-135989868D01*
X69553579Y-135989870D01*
X69362403Y-136069058D01*
X69190342Y-136184024D01*
X69044024Y-136330342D01*
X68929058Y-136502403D01*
X68849870Y-136693579D01*
X68849868Y-136693587D01*
X68809500Y-136896530D01*
X68370499Y-136896530D01*
X68330130Y-136693580D01*
X68250941Y-136502402D01*
X68135977Y-136330345D01*
X68135975Y-136330342D01*
X67989657Y-136184024D01*
X67883916Y-136113371D01*
X67817598Y-136069059D01*
X67765002Y-136047273D01*
X67626420Y-135989870D01*
X67626412Y-135989868D01*
X67423469Y-135949500D01*
X67423465Y-135949500D01*
X67216535Y-135949500D01*
X67216530Y-135949500D01*
X67013587Y-135989868D01*
X67013579Y-135989870D01*
X66893029Y-136039804D01*
X66823559Y-136047273D01*
X66761080Y-136015998D01*
X66757895Y-136012924D01*
X66503819Y-135758848D01*
X66470334Y-135697525D01*
X66467500Y-135671167D01*
X66467500Y-135385791D01*
X66487185Y-135318752D01*
X66539989Y-135272997D01*
X66609147Y-135263053D01*
X66660389Y-135282688D01*
X66822402Y-135390941D01*
X67013580Y-135470130D01*
X67216530Y-135510499D01*
X67216534Y-135510500D01*
X67216535Y-135510500D01*
X67423466Y-135510500D01*
X67423467Y-135510499D01*
X67626420Y-135470130D01*
X67817598Y-135390941D01*
X67989655Y-135275977D01*
X68135977Y-135129655D01*
X68250941Y-134957598D01*
X68330130Y-134766420D01*
X68370500Y-134563465D01*
X68370500Y-134356535D01*
X68370499Y-134356530D01*
X71349500Y-134356530D01*
X71349500Y-134563469D01*
X71389868Y-134766412D01*
X71389870Y-134766420D01*
X71426359Y-134854513D01*
X71469059Y-134957598D01*
X71492257Y-134992316D01*
X71584024Y-135129657D01*
X71730342Y-135275975D01*
X71730345Y-135275977D01*
X71902402Y-135390941D01*
X72093580Y-135470130D01*
X72296530Y-135510499D01*
X72296534Y-135510500D01*
X72296535Y-135510500D01*
X72503466Y-135510500D01*
X72503467Y-135510499D01*
X72706420Y-135470130D01*
X72897598Y-135390941D01*
X73069655Y-135275977D01*
X73215977Y-135129655D01*
X73330941Y-134957598D01*
X73410130Y-134766420D01*
X73450500Y-134563465D01*
X73450500Y-134356535D01*
X73450499Y-134356530D01*
X73889500Y-134356530D01*
X73889500Y-134563469D01*
X73929868Y-134766412D01*
X73929870Y-134766420D01*
X73966359Y-134854513D01*
X74009059Y-134957598D01*
X74032257Y-134992316D01*
X74124024Y-135129657D01*
X74270342Y-135275975D01*
X74270345Y-135275977D01*
X74442402Y-135390941D01*
X74633580Y-135470130D01*
X74836530Y-135510499D01*
X74836534Y-135510500D01*
X74836535Y-135510500D01*
X75043466Y-135510500D01*
X75043467Y-135510499D01*
X75246420Y-135470130D01*
X75437598Y-135390941D01*
X75609655Y-135275977D01*
X75755977Y-135129655D01*
X75870941Y-134957598D01*
X75950130Y-134766420D01*
X75990500Y-134563465D01*
X75990500Y-134356535D01*
X75990499Y-134356530D01*
X76429500Y-134356530D01*
X76429500Y-134563469D01*
X76469868Y-134766412D01*
X76469870Y-134766420D01*
X76506359Y-134854513D01*
X76549059Y-134957598D01*
X76572257Y-134992316D01*
X76664024Y-135129657D01*
X76810342Y-135275975D01*
X76810345Y-135275977D01*
X76982402Y-135390941D01*
X77173580Y-135470130D01*
X77376530Y-135510499D01*
X77376534Y-135510500D01*
X77376535Y-135510500D01*
X77583466Y-135510500D01*
X77583467Y-135510499D01*
X77786420Y-135470130D01*
X77977598Y-135390941D01*
X78149655Y-135275977D01*
X78295977Y-135129655D01*
X78410941Y-134957598D01*
X78490130Y-134766420D01*
X78518835Y-134622108D01*
X95696000Y-134622108D01*
X95696000Y-134753891D01*
X95730108Y-134881187D01*
X95733473Y-134887015D01*
X95796000Y-134995314D01*
X95889186Y-135088500D01*
X96003314Y-135154392D01*
X96130608Y-135188500D01*
X96130610Y-135188500D01*
X96220464Y-135188500D01*
X96287503Y-135208185D01*
X96308172Y-135224846D01*
X96361969Y-135278676D01*
X96663208Y-135580102D01*
X96677894Y-135607016D01*
X96694477Y-135632820D01*
X96695372Y-135639048D01*
X96696674Y-135641434D01*
X96699500Y-135667755D01*
X96699500Y-135875500D01*
X96679815Y-135942539D01*
X96627011Y-135988294D01*
X96575501Y-135999500D01*
X96368482Y-135999500D01*
X96287519Y-136012323D01*
X96274696Y-136014354D01*
X96161658Y-136071950D01*
X96161657Y-136071951D01*
X96161652Y-136071954D01*
X96071954Y-136161652D01*
X96071951Y-136161657D01*
X96071950Y-136161658D01*
X96060554Y-136184024D01*
X96014352Y-136274698D01*
X95999500Y-136368475D01*
X95999500Y-137631517D01*
X96005541Y-137669657D01*
X96014354Y-137725304D01*
X96071950Y-137838342D01*
X96071952Y-137838344D01*
X96071954Y-137838347D01*
X96161652Y-137928045D01*
X96161654Y-137928046D01*
X96161658Y-137928050D01*
X96268826Y-137982655D01*
X96274698Y-137985647D01*
X96362116Y-137999491D01*
X96368449Y-138000495D01*
X96368475Y-138000499D01*
X96368481Y-138000500D01*
X97631518Y-138000499D01*
X97725304Y-137985646D01*
X97838342Y-137928050D01*
X97928050Y-137838342D01*
X97985646Y-137725304D01*
X97985646Y-137725302D01*
X97985647Y-137725301D01*
X97996282Y-137658147D01*
X98000500Y-137631519D01*
X98000500Y-137098543D01*
X98539499Y-137098543D01*
X98577947Y-137291829D01*
X98577950Y-137291839D01*
X98653364Y-137473907D01*
X98653371Y-137473920D01*
X98762860Y-137637781D01*
X98762863Y-137637785D01*
X98902214Y-137777136D01*
X98902218Y-137777139D01*
X99066079Y-137886628D01*
X99066092Y-137886635D01*
X99245683Y-137961023D01*
X99248165Y-137962051D01*
X99248169Y-137962051D01*
X99248170Y-137962052D01*
X99441456Y-138000500D01*
X99441459Y-138000500D01*
X99638543Y-138000500D01*
X99776163Y-137973125D01*
X99831835Y-137962051D01*
X100013914Y-137886632D01*
X100177782Y-137777139D01*
X100317139Y-137637782D01*
X100426632Y-137473914D01*
X100431572Y-137461989D01*
X100460222Y-137392820D01*
X100502051Y-137291835D01*
X100539520Y-137103469D01*
X100540500Y-137098543D01*
X103619499Y-137098543D01*
X103657947Y-137291829D01*
X103657950Y-137291839D01*
X103733364Y-137473907D01*
X103733371Y-137473920D01*
X103842860Y-137637781D01*
X103842863Y-137637785D01*
X103982214Y-137777136D01*
X103982218Y-137777139D01*
X104146079Y-137886628D01*
X104146092Y-137886635D01*
X104325683Y-137961023D01*
X104328165Y-137962051D01*
X104328169Y-137962051D01*
X104328170Y-137962052D01*
X104521456Y-138000500D01*
X104521459Y-138000500D01*
X104718543Y-138000500D01*
X104856163Y-137973125D01*
X104911835Y-137962051D01*
X105093914Y-137886632D01*
X105257782Y-137777139D01*
X105397139Y-137637782D01*
X105506632Y-137473914D01*
X105511572Y-137461989D01*
X105540222Y-137392820D01*
X105582051Y-137291835D01*
X105619520Y-137103469D01*
X105620500Y-137098543D01*
X106159499Y-137098543D01*
X106197947Y-137291829D01*
X106197950Y-137291839D01*
X106273364Y-137473907D01*
X106273371Y-137473920D01*
X106382860Y-137637781D01*
X106382863Y-137637785D01*
X106522214Y-137777136D01*
X106522218Y-137777139D01*
X106686079Y-137886628D01*
X106686092Y-137886635D01*
X106865683Y-137961023D01*
X106868165Y-137962051D01*
X106868169Y-137962051D01*
X106868170Y-137962052D01*
X107061456Y-138000500D01*
X107061459Y-138000500D01*
X107258543Y-138000500D01*
X107396163Y-137973125D01*
X107451835Y-137962051D01*
X107633914Y-137886632D01*
X107797782Y-137777139D01*
X107937139Y-137637782D01*
X108046632Y-137473914D01*
X108051572Y-137461989D01*
X108080222Y-137392820D01*
X108122051Y-137291835D01*
X108159520Y-137103469D01*
X108160500Y-137098543D01*
X108699499Y-137098543D01*
X108737947Y-137291829D01*
X108737950Y-137291839D01*
X108813364Y-137473907D01*
X108813371Y-137473920D01*
X108922860Y-137637781D01*
X108922863Y-137637785D01*
X109062214Y-137777136D01*
X109062218Y-137777139D01*
X109226079Y-137886628D01*
X109226092Y-137886635D01*
X109405683Y-137961023D01*
X109408165Y-137962051D01*
X109408169Y-137962051D01*
X109408170Y-137962052D01*
X109601456Y-138000500D01*
X109601459Y-138000500D01*
X109798543Y-138000500D01*
X109936163Y-137973125D01*
X109991835Y-137962051D01*
X110173914Y-137886632D01*
X110337782Y-137777139D01*
X110477139Y-137637782D01*
X110586632Y-137473914D01*
X110591572Y-137461989D01*
X110620222Y-137392820D01*
X110662051Y-137291835D01*
X110699520Y-137103469D01*
X110700500Y-137098543D01*
X111239499Y-137098543D01*
X111277947Y-137291829D01*
X111277950Y-137291839D01*
X111353364Y-137473907D01*
X111353371Y-137473920D01*
X111462860Y-137637781D01*
X111462863Y-137637785D01*
X111602214Y-137777136D01*
X111602218Y-137777139D01*
X111766079Y-137886628D01*
X111766092Y-137886635D01*
X111945683Y-137961023D01*
X111948165Y-137962051D01*
X111948169Y-137962051D01*
X111948170Y-137962052D01*
X112141456Y-138000500D01*
X112141459Y-138000500D01*
X112338543Y-138000500D01*
X112476163Y-137973125D01*
X112531835Y-137962051D01*
X112628702Y-137921926D01*
X112698169Y-137914457D01*
X112760649Y-137945731D01*
X112763835Y-137948806D01*
X113818181Y-139003152D01*
X113851666Y-139064475D01*
X113854500Y-139090833D01*
X113854500Y-140746323D01*
X113834815Y-140813362D01*
X113818182Y-140834004D01*
X113754500Y-140897686D01*
X113688608Y-141011812D01*
X113654500Y-141139108D01*
X113654500Y-141270891D01*
X113688608Y-141398187D01*
X113716318Y-141446181D01*
X113754500Y-141512314D01*
X113847686Y-141605500D01*
X113961814Y-141671392D01*
X114089108Y-141705500D01*
X114089110Y-141705500D01*
X114220890Y-141705500D01*
X114220892Y-141705500D01*
X114348186Y-141671392D01*
X114462314Y-141605500D01*
X114555500Y-141512314D01*
X114621392Y-141398186D01*
X114655500Y-141270892D01*
X114655500Y-141139108D01*
X114621392Y-141011814D01*
X114555500Y-140897686D01*
X114491818Y-140834004D01*
X114458334Y-140772680D01*
X114455500Y-140746323D01*
X114455500Y-138875439D01*
X114446723Y-138842683D01*
X114435021Y-138799011D01*
X114433370Y-138796151D01*
X114395464Y-138730495D01*
X114395458Y-138730487D01*
X113188806Y-137523835D01*
X113155321Y-137462512D01*
X113160305Y-137392820D01*
X113161910Y-137388743D01*
X113202051Y-137291835D01*
X113239520Y-137103469D01*
X113240500Y-137098543D01*
X116319499Y-137098543D01*
X116357947Y-137291829D01*
X116357950Y-137291839D01*
X116433364Y-137473907D01*
X116433371Y-137473920D01*
X116542860Y-137637781D01*
X116542863Y-137637785D01*
X116682214Y-137777136D01*
X116682218Y-137777139D01*
X116846079Y-137886628D01*
X116846092Y-137886635D01*
X117025683Y-137961023D01*
X117028165Y-137962051D01*
X117028169Y-137962051D01*
X117028170Y-137962052D01*
X117221456Y-138000500D01*
X117221459Y-138000500D01*
X117418543Y-138000500D01*
X117556163Y-137973125D01*
X117611835Y-137962051D01*
X117793914Y-137886632D01*
X117957782Y-137777139D01*
X118097139Y-137637782D01*
X118206632Y-137473914D01*
X118211572Y-137461989D01*
X118240222Y-137392820D01*
X118282051Y-137291835D01*
X118319520Y-137103469D01*
X118320500Y-137098543D01*
X118859499Y-137098543D01*
X118897947Y-137291829D01*
X118897950Y-137291839D01*
X118973364Y-137473907D01*
X118973371Y-137473920D01*
X119082860Y-137637781D01*
X119082863Y-137637785D01*
X119222214Y-137777136D01*
X119222218Y-137777139D01*
X119386079Y-137886628D01*
X119386092Y-137886635D01*
X119565683Y-137961023D01*
X119568165Y-137962051D01*
X119568169Y-137962051D01*
X119568170Y-137962052D01*
X119761456Y-138000500D01*
X119761459Y-138000500D01*
X119958543Y-138000500D01*
X120096163Y-137973125D01*
X120151835Y-137962051D01*
X120333914Y-137886632D01*
X120497782Y-137777139D01*
X120637139Y-137637782D01*
X120746632Y-137473914D01*
X120751572Y-137461989D01*
X120780222Y-137392820D01*
X120822051Y-137291835D01*
X120859520Y-137103469D01*
X120860500Y-137098543D01*
X121399499Y-137098543D01*
X121437947Y-137291829D01*
X121437950Y-137291839D01*
X121513364Y-137473907D01*
X121513371Y-137473920D01*
X121622860Y-137637781D01*
X121622863Y-137637785D01*
X121762214Y-137777136D01*
X121762218Y-137777139D01*
X121926079Y-137886628D01*
X121926092Y-137886635D01*
X122105683Y-137961023D01*
X122108165Y-137962051D01*
X122108169Y-137962051D01*
X122108170Y-137962052D01*
X122301456Y-138000500D01*
X122301459Y-138000500D01*
X122498543Y-138000500D01*
X122636163Y-137973125D01*
X122691835Y-137962051D01*
X122873914Y-137886632D01*
X123037782Y-137777139D01*
X123177139Y-137637782D01*
X123286632Y-137473914D01*
X123291572Y-137461989D01*
X123320222Y-137392820D01*
X123362051Y-137291835D01*
X123399520Y-137103469D01*
X123400500Y-137098543D01*
X123939499Y-137098543D01*
X123977947Y-137291829D01*
X123977950Y-137291839D01*
X124053364Y-137473907D01*
X124053371Y-137473920D01*
X124162860Y-137637781D01*
X124162863Y-137637785D01*
X124302214Y-137777136D01*
X124302218Y-137777139D01*
X124466079Y-137886628D01*
X124466092Y-137886635D01*
X124645683Y-137961023D01*
X124648165Y-137962051D01*
X124648169Y-137962051D01*
X124648170Y-137962052D01*
X124841456Y-138000500D01*
X124841459Y-138000500D01*
X125038543Y-138000500D01*
X125176163Y-137973125D01*
X125231835Y-137962051D01*
X125413914Y-137886632D01*
X125577782Y-137777139D01*
X125717139Y-137637782D01*
X125826632Y-137473914D01*
X125831572Y-137461989D01*
X125860222Y-137392820D01*
X125902051Y-137291835D01*
X125939520Y-137103469D01*
X125940500Y-137098543D01*
X129019499Y-137098543D01*
X129057947Y-137291829D01*
X129057950Y-137291839D01*
X129133364Y-137473907D01*
X129133371Y-137473920D01*
X129242860Y-137637781D01*
X129242863Y-137637785D01*
X129382214Y-137777136D01*
X129382218Y-137777139D01*
X129546079Y-137886628D01*
X129546092Y-137886635D01*
X129725683Y-137961023D01*
X129728165Y-137962051D01*
X129728169Y-137962051D01*
X129728170Y-137962052D01*
X129921456Y-138000500D01*
X129921459Y-138000500D01*
X130118543Y-138000500D01*
X130256163Y-137973125D01*
X130311835Y-137962051D01*
X130493914Y-137886632D01*
X130657782Y-137777139D01*
X130797139Y-137637782D01*
X130906632Y-137473914D01*
X130911572Y-137461989D01*
X130940222Y-137392820D01*
X130982051Y-137291835D01*
X131019520Y-137103469D01*
X131020500Y-137098543D01*
X131559499Y-137098543D01*
X131597947Y-137291829D01*
X131597950Y-137291839D01*
X131673364Y-137473907D01*
X131673371Y-137473920D01*
X131782860Y-137637781D01*
X131782863Y-137637785D01*
X131922214Y-137777136D01*
X131922218Y-137777139D01*
X132086079Y-137886628D01*
X132086092Y-137886635D01*
X132265683Y-137961023D01*
X132268165Y-137962051D01*
X132268169Y-137962051D01*
X132268170Y-137962052D01*
X132461456Y-138000500D01*
X132461459Y-138000500D01*
X132658543Y-138000500D01*
X132796163Y-137973125D01*
X132851835Y-137962051D01*
X133033914Y-137886632D01*
X133197782Y-137777139D01*
X133337139Y-137637782D01*
X133446632Y-137473914D01*
X133451572Y-137461989D01*
X133480222Y-137392820D01*
X133522051Y-137291835D01*
X133559520Y-137103469D01*
X133560500Y-137098543D01*
X134099499Y-137098543D01*
X134137947Y-137291829D01*
X134137950Y-137291839D01*
X134213364Y-137473907D01*
X134213371Y-137473920D01*
X134322860Y-137637781D01*
X134322863Y-137637785D01*
X134462214Y-137777136D01*
X134462218Y-137777139D01*
X134626079Y-137886628D01*
X134626092Y-137886635D01*
X134805683Y-137961023D01*
X134808165Y-137962051D01*
X134808169Y-137962051D01*
X134808170Y-137962052D01*
X135001456Y-138000500D01*
X135001459Y-138000500D01*
X135198543Y-138000500D01*
X135336163Y-137973125D01*
X135391835Y-137962051D01*
X135573914Y-137886632D01*
X135737782Y-137777139D01*
X135877139Y-137637782D01*
X135986632Y-137473914D01*
X135991572Y-137461989D01*
X136020222Y-137392820D01*
X136062051Y-137291835D01*
X136099520Y-137103469D01*
X136100500Y-137098543D01*
X136639499Y-137098543D01*
X136677947Y-137291829D01*
X136677950Y-137291839D01*
X136753364Y-137473907D01*
X136753371Y-137473920D01*
X136862860Y-137637781D01*
X136862863Y-137637785D01*
X137002214Y-137777136D01*
X137002218Y-137777139D01*
X137166079Y-137886628D01*
X137166092Y-137886635D01*
X137345683Y-137961023D01*
X137348165Y-137962051D01*
X137348169Y-137962051D01*
X137348170Y-137962052D01*
X137541456Y-138000500D01*
X137541459Y-138000500D01*
X137738543Y-138000500D01*
X137876163Y-137973125D01*
X137931835Y-137962051D01*
X138113914Y-137886632D01*
X138277782Y-137777139D01*
X138417139Y-137637782D01*
X138526632Y-137473914D01*
X138531572Y-137461989D01*
X138560222Y-137392820D01*
X138602051Y-137291835D01*
X138639520Y-137103469D01*
X138640500Y-137098543D01*
X141719499Y-137098543D01*
X141757947Y-137291829D01*
X141757950Y-137291839D01*
X141833364Y-137473907D01*
X141833371Y-137473920D01*
X141942860Y-137637781D01*
X141942863Y-137637785D01*
X142082214Y-137777136D01*
X142082218Y-137777139D01*
X142246079Y-137886628D01*
X142246092Y-137886635D01*
X142425683Y-137961023D01*
X142428165Y-137962051D01*
X142428169Y-137962051D01*
X142428170Y-137962052D01*
X142621456Y-138000500D01*
X142621459Y-138000500D01*
X142818543Y-138000500D01*
X142956163Y-137973125D01*
X143011835Y-137962051D01*
X143193914Y-137886632D01*
X143357782Y-137777139D01*
X143497139Y-137637782D01*
X143606632Y-137473914D01*
X143611572Y-137461989D01*
X143640222Y-137392820D01*
X143682051Y-137291835D01*
X143719520Y-137103469D01*
X143720500Y-137098543D01*
X143720500Y-136901456D01*
X143682052Y-136708170D01*
X143682051Y-136708169D01*
X143682051Y-136708165D01*
X143641925Y-136611294D01*
X143634457Y-136541828D01*
X143665732Y-136479349D01*
X143668776Y-136476194D01*
X144256460Y-135888511D01*
X144296022Y-135819988D01*
X144316500Y-135743562D01*
X144316500Y-135664438D01*
X144316500Y-135143676D01*
X144336185Y-135076637D01*
X144352819Y-135055995D01*
X144367502Y-135041312D01*
X144416500Y-134992314D01*
X144482392Y-134878186D01*
X144516500Y-134750892D01*
X144516500Y-134619108D01*
X144482392Y-134491814D01*
X144416500Y-134377686D01*
X144323314Y-134284500D01*
X144266250Y-134251554D01*
X144209187Y-134218608D01*
X144145539Y-134201554D01*
X144081892Y-134184500D01*
X143950108Y-134184500D01*
X143822812Y-134218608D01*
X143708686Y-134284500D01*
X143708683Y-134284502D01*
X143615502Y-134377683D01*
X143615500Y-134377686D01*
X143549608Y-134491812D01*
X143515500Y-134619108D01*
X143515500Y-134750891D01*
X143549608Y-134878187D01*
X143554705Y-134887015D01*
X143615500Y-134992314D01*
X143615502Y-134992316D01*
X143679181Y-135055995D01*
X143712666Y-135117318D01*
X143715500Y-135143676D01*
X143715500Y-135528166D01*
X143695815Y-135595205D01*
X143679181Y-135615847D01*
X143243835Y-136051192D01*
X143182512Y-136084677D01*
X143112820Y-136079693D01*
X143108702Y-136078072D01*
X143011839Y-136037950D01*
X143011829Y-136037947D01*
X142818543Y-135999500D01*
X142818541Y-135999500D01*
X142621459Y-135999500D01*
X142621457Y-135999500D01*
X142428170Y-136037947D01*
X142428160Y-136037950D01*
X142246092Y-136113364D01*
X142246079Y-136113371D01*
X142082218Y-136222860D01*
X142082214Y-136222863D01*
X141942863Y-136362214D01*
X141942860Y-136362218D01*
X141833371Y-136526079D01*
X141833364Y-136526092D01*
X141757950Y-136708160D01*
X141757947Y-136708170D01*
X141719500Y-136901456D01*
X141719500Y-136901459D01*
X141719500Y-137098541D01*
X141719500Y-137098543D01*
X141719499Y-137098543D01*
X138640500Y-137098543D01*
X138640500Y-136901456D01*
X138602052Y-136708170D01*
X138602051Y-136708169D01*
X138602051Y-136708165D01*
X138596009Y-136693579D01*
X138526635Y-136526092D01*
X138526628Y-136526079D01*
X138417139Y-136362218D01*
X138417136Y-136362214D01*
X138277785Y-136222863D01*
X138277781Y-136222860D01*
X138113920Y-136113371D01*
X138113907Y-136113364D01*
X137931839Y-136037950D01*
X137931829Y-136037947D01*
X137738543Y-135999500D01*
X137738541Y-135999500D01*
X137541459Y-135999500D01*
X137541457Y-135999500D01*
X137348170Y-136037947D01*
X137348160Y-136037950D01*
X137166092Y-136113364D01*
X137166079Y-136113371D01*
X137002218Y-136222860D01*
X137002214Y-136222863D01*
X136862863Y-136362214D01*
X136862860Y-136362218D01*
X136753371Y-136526079D01*
X136753364Y-136526092D01*
X136677950Y-136708160D01*
X136677947Y-136708170D01*
X136639500Y-136901456D01*
X136639500Y-136901459D01*
X136639500Y-137098541D01*
X136639500Y-137098543D01*
X136639499Y-137098543D01*
X136100500Y-137098543D01*
X136100500Y-136901456D01*
X136062052Y-136708170D01*
X136062051Y-136708169D01*
X136062051Y-136708165D01*
X136056009Y-136693579D01*
X135986635Y-136526092D01*
X135986628Y-136526079D01*
X135877139Y-136362218D01*
X135877136Y-136362214D01*
X135737785Y-136222863D01*
X135737781Y-136222860D01*
X135573920Y-136113371D01*
X135573907Y-136113364D01*
X135391839Y-136037950D01*
X135391829Y-136037947D01*
X135198543Y-135999500D01*
X135198541Y-135999500D01*
X135001459Y-135999500D01*
X135001457Y-135999500D01*
X134808170Y-136037947D01*
X134808160Y-136037950D01*
X134626092Y-136113364D01*
X134626079Y-136113371D01*
X134462218Y-136222860D01*
X134462214Y-136222863D01*
X134322863Y-136362214D01*
X134322860Y-136362218D01*
X134213371Y-136526079D01*
X134213364Y-136526092D01*
X134137950Y-136708160D01*
X134137947Y-136708170D01*
X134099500Y-136901456D01*
X134099500Y-136901459D01*
X134099500Y-137098541D01*
X134099500Y-137098543D01*
X134099499Y-137098543D01*
X133560500Y-137098543D01*
X133560500Y-136901456D01*
X133522052Y-136708170D01*
X133522051Y-136708169D01*
X133522051Y-136708165D01*
X133516009Y-136693579D01*
X133446635Y-136526092D01*
X133446628Y-136526079D01*
X133337139Y-136362218D01*
X133337136Y-136362214D01*
X133197785Y-136222863D01*
X133197781Y-136222860D01*
X133033920Y-136113371D01*
X133033907Y-136113364D01*
X132851839Y-136037950D01*
X132851829Y-136037947D01*
X132658543Y-135999500D01*
X132658541Y-135999500D01*
X132461459Y-135999500D01*
X132461457Y-135999500D01*
X132268170Y-136037947D01*
X132268160Y-136037950D01*
X132086092Y-136113364D01*
X132086079Y-136113371D01*
X131922218Y-136222860D01*
X131922214Y-136222863D01*
X131782863Y-136362214D01*
X131782860Y-136362218D01*
X131673371Y-136526079D01*
X131673364Y-136526092D01*
X131597950Y-136708160D01*
X131597947Y-136708170D01*
X131559500Y-136901456D01*
X131559500Y-136901459D01*
X131559500Y-137098541D01*
X131559500Y-137098543D01*
X131559499Y-137098543D01*
X131020500Y-137098543D01*
X131020500Y-136901456D01*
X130982052Y-136708170D01*
X130982051Y-136708169D01*
X130982051Y-136708165D01*
X130976009Y-136693579D01*
X130906635Y-136526092D01*
X130906628Y-136526079D01*
X130797139Y-136362218D01*
X130797136Y-136362214D01*
X130657785Y-136222863D01*
X130657781Y-136222860D01*
X130493920Y-136113371D01*
X130493907Y-136113364D01*
X130311839Y-136037950D01*
X130311829Y-136037947D01*
X130118543Y-135999500D01*
X130118541Y-135999500D01*
X129921459Y-135999500D01*
X129921457Y-135999500D01*
X129728170Y-136037947D01*
X129728160Y-136037950D01*
X129546092Y-136113364D01*
X129546079Y-136113371D01*
X129382218Y-136222860D01*
X129382214Y-136222863D01*
X129242863Y-136362214D01*
X129242860Y-136362218D01*
X129133371Y-136526079D01*
X129133364Y-136526092D01*
X129057950Y-136708160D01*
X129057947Y-136708170D01*
X129019500Y-136901456D01*
X129019500Y-136901459D01*
X129019500Y-137098541D01*
X129019500Y-137098543D01*
X129019499Y-137098543D01*
X125940500Y-137098543D01*
X125940500Y-136901456D01*
X125902052Y-136708170D01*
X125902051Y-136708169D01*
X125902051Y-136708165D01*
X125896009Y-136693579D01*
X125826635Y-136526092D01*
X125826628Y-136526079D01*
X125717139Y-136362218D01*
X125717136Y-136362214D01*
X125577785Y-136222863D01*
X125577781Y-136222860D01*
X125413920Y-136113371D01*
X125413907Y-136113364D01*
X125231839Y-136037950D01*
X125231829Y-136037947D01*
X125038543Y-135999500D01*
X125038541Y-135999500D01*
X124841459Y-135999500D01*
X124841457Y-135999500D01*
X124648170Y-136037947D01*
X124648160Y-136037950D01*
X124466092Y-136113364D01*
X124466079Y-136113371D01*
X124302218Y-136222860D01*
X124302214Y-136222863D01*
X124162863Y-136362214D01*
X124162860Y-136362218D01*
X124053371Y-136526079D01*
X124053364Y-136526092D01*
X123977950Y-136708160D01*
X123977947Y-136708170D01*
X123939500Y-136901456D01*
X123939500Y-136901459D01*
X123939500Y-137098541D01*
X123939500Y-137098543D01*
X123939499Y-137098543D01*
X123400500Y-137098543D01*
X123400500Y-136901456D01*
X123362052Y-136708170D01*
X123362051Y-136708169D01*
X123362051Y-136708165D01*
X123356009Y-136693579D01*
X123286635Y-136526092D01*
X123286628Y-136526079D01*
X123177139Y-136362218D01*
X123177136Y-136362214D01*
X123037785Y-136222863D01*
X123037781Y-136222860D01*
X122873920Y-136113371D01*
X122873907Y-136113364D01*
X122691839Y-136037950D01*
X122691829Y-136037947D01*
X122498543Y-135999500D01*
X122498541Y-135999500D01*
X122301459Y-135999500D01*
X122301457Y-135999500D01*
X122108170Y-136037947D01*
X122108160Y-136037950D01*
X121926092Y-136113364D01*
X121926079Y-136113371D01*
X121762218Y-136222860D01*
X121762214Y-136222863D01*
X121622863Y-136362214D01*
X121622860Y-136362218D01*
X121513371Y-136526079D01*
X121513364Y-136526092D01*
X121437950Y-136708160D01*
X121437947Y-136708170D01*
X121399500Y-136901456D01*
X121399500Y-136901459D01*
X121399500Y-137098541D01*
X121399500Y-137098543D01*
X121399499Y-137098543D01*
X120860500Y-137098543D01*
X120860500Y-136901456D01*
X120822052Y-136708170D01*
X120822051Y-136708169D01*
X120822051Y-136708165D01*
X120816009Y-136693579D01*
X120746635Y-136526092D01*
X120746628Y-136526079D01*
X120637139Y-136362218D01*
X120637136Y-136362214D01*
X120497785Y-136222863D01*
X120497781Y-136222860D01*
X120333920Y-136113371D01*
X120333907Y-136113364D01*
X120151839Y-136037950D01*
X120151829Y-136037947D01*
X119958543Y-135999500D01*
X119958541Y-135999500D01*
X119761459Y-135999500D01*
X119761457Y-135999500D01*
X119568170Y-136037947D01*
X119568160Y-136037950D01*
X119386092Y-136113364D01*
X119386079Y-136113371D01*
X119222218Y-136222860D01*
X119222214Y-136222863D01*
X119082863Y-136362214D01*
X119082860Y-136362218D01*
X118973371Y-136526079D01*
X118973364Y-136526092D01*
X118897950Y-136708160D01*
X118897947Y-136708170D01*
X118859500Y-136901456D01*
X118859500Y-136901459D01*
X118859500Y-137098541D01*
X118859500Y-137098543D01*
X118859499Y-137098543D01*
X118320500Y-137098543D01*
X118320500Y-136901456D01*
X118282052Y-136708170D01*
X118282051Y-136708169D01*
X118282051Y-136708165D01*
X118276009Y-136693579D01*
X118206635Y-136526092D01*
X118206628Y-136526079D01*
X118097139Y-136362218D01*
X118097136Y-136362214D01*
X117957785Y-136222863D01*
X117957781Y-136222860D01*
X117793920Y-136113371D01*
X117793907Y-136113364D01*
X117611839Y-136037950D01*
X117611829Y-136037947D01*
X117418543Y-135999500D01*
X117418541Y-135999500D01*
X117221459Y-135999500D01*
X117221457Y-135999500D01*
X117028170Y-136037947D01*
X117028160Y-136037950D01*
X116846092Y-136113364D01*
X116846079Y-136113371D01*
X116682218Y-136222860D01*
X116682214Y-136222863D01*
X116542863Y-136362214D01*
X116542860Y-136362218D01*
X116433371Y-136526079D01*
X116433364Y-136526092D01*
X116357950Y-136708160D01*
X116357947Y-136708170D01*
X116319500Y-136901456D01*
X116319500Y-136901459D01*
X116319500Y-137098541D01*
X116319500Y-137098543D01*
X116319499Y-137098543D01*
X113240500Y-137098543D01*
X113240500Y-136901456D01*
X113202052Y-136708170D01*
X113202051Y-136708169D01*
X113202051Y-136708165D01*
X113196009Y-136693579D01*
X113126635Y-136526092D01*
X113126628Y-136526079D01*
X113017139Y-136362218D01*
X113017136Y-136362214D01*
X112877785Y-136222863D01*
X112877781Y-136222860D01*
X112713920Y-136113371D01*
X112713907Y-136113364D01*
X112531839Y-136037950D01*
X112531829Y-136037947D01*
X112338543Y-135999500D01*
X112338541Y-135999500D01*
X112141459Y-135999500D01*
X112141457Y-135999500D01*
X111948170Y-136037947D01*
X111948160Y-136037950D01*
X111766092Y-136113364D01*
X111766079Y-136113371D01*
X111602218Y-136222860D01*
X111602214Y-136222863D01*
X111462863Y-136362214D01*
X111462860Y-136362218D01*
X111353371Y-136526079D01*
X111353364Y-136526092D01*
X111277950Y-136708160D01*
X111277947Y-136708170D01*
X111239500Y-136901456D01*
X111239500Y-136901459D01*
X111239500Y-137098541D01*
X111239500Y-137098543D01*
X111239499Y-137098543D01*
X110700500Y-137098543D01*
X110700500Y-136901456D01*
X110662052Y-136708170D01*
X110662051Y-136708169D01*
X110662051Y-136708165D01*
X110656009Y-136693579D01*
X110586635Y-136526092D01*
X110586628Y-136526079D01*
X110477139Y-136362218D01*
X110477136Y-136362214D01*
X110337785Y-136222863D01*
X110337781Y-136222860D01*
X110173920Y-136113371D01*
X110173907Y-136113364D01*
X109991839Y-136037950D01*
X109991829Y-136037947D01*
X109798543Y-135999500D01*
X109798541Y-135999500D01*
X109601459Y-135999500D01*
X109601457Y-135999500D01*
X109408170Y-136037947D01*
X109408160Y-136037950D01*
X109226092Y-136113364D01*
X109226079Y-136113371D01*
X109062218Y-136222860D01*
X109062214Y-136222863D01*
X108922863Y-136362214D01*
X108922860Y-136362218D01*
X108813371Y-136526079D01*
X108813364Y-136526092D01*
X108737950Y-136708160D01*
X108737947Y-136708170D01*
X108699500Y-136901456D01*
X108699500Y-136901459D01*
X108699500Y-137098541D01*
X108699500Y-137098543D01*
X108699499Y-137098543D01*
X108160500Y-137098543D01*
X108160500Y-136901456D01*
X108122052Y-136708170D01*
X108122051Y-136708169D01*
X108122051Y-136708165D01*
X108116009Y-136693579D01*
X108046635Y-136526092D01*
X108046628Y-136526079D01*
X107937139Y-136362218D01*
X107937136Y-136362214D01*
X107797785Y-136222863D01*
X107797781Y-136222860D01*
X107633920Y-136113371D01*
X107633907Y-136113364D01*
X107451839Y-136037950D01*
X107451829Y-136037947D01*
X107258543Y-135999500D01*
X107258541Y-135999500D01*
X107061459Y-135999500D01*
X107061457Y-135999500D01*
X106868170Y-136037947D01*
X106868160Y-136037950D01*
X106686092Y-136113364D01*
X106686079Y-136113371D01*
X106522218Y-136222860D01*
X106522214Y-136222863D01*
X106382863Y-136362214D01*
X106382860Y-136362218D01*
X106273371Y-136526079D01*
X106273364Y-136526092D01*
X106197950Y-136708160D01*
X106197947Y-136708170D01*
X106159500Y-136901456D01*
X106159500Y-136901459D01*
X106159500Y-137098541D01*
X106159500Y-137098543D01*
X106159499Y-137098543D01*
X105620500Y-137098543D01*
X105620500Y-136901456D01*
X105582052Y-136708170D01*
X105582051Y-136708169D01*
X105582051Y-136708165D01*
X105576009Y-136693579D01*
X105506635Y-136526092D01*
X105506628Y-136526079D01*
X105397139Y-136362218D01*
X105397136Y-136362214D01*
X105257785Y-136222863D01*
X105257781Y-136222860D01*
X105093920Y-136113371D01*
X105093907Y-136113364D01*
X104911839Y-136037950D01*
X104911829Y-136037947D01*
X104718543Y-135999500D01*
X104718541Y-135999500D01*
X104521459Y-135999500D01*
X104521457Y-135999500D01*
X104328170Y-136037947D01*
X104328160Y-136037950D01*
X104146092Y-136113364D01*
X104146079Y-136113371D01*
X103982218Y-136222860D01*
X103982214Y-136222863D01*
X103842863Y-136362214D01*
X103842860Y-136362218D01*
X103733371Y-136526079D01*
X103733364Y-136526092D01*
X103657950Y-136708160D01*
X103657947Y-136708170D01*
X103619500Y-136901456D01*
X103619500Y-136901459D01*
X103619500Y-137098541D01*
X103619500Y-137098543D01*
X103619499Y-137098543D01*
X100540500Y-137098543D01*
X100540500Y-136901456D01*
X100502052Y-136708170D01*
X100502051Y-136708169D01*
X100502051Y-136708165D01*
X100496009Y-136693579D01*
X100426635Y-136526092D01*
X100426628Y-136526079D01*
X100317139Y-136362218D01*
X100317136Y-136362214D01*
X100177785Y-136222863D01*
X100177781Y-136222860D01*
X100013920Y-136113371D01*
X100013907Y-136113364D01*
X99831839Y-136037950D01*
X99831829Y-136037947D01*
X99638543Y-135999500D01*
X99638541Y-135999500D01*
X99441459Y-135999500D01*
X99441457Y-135999500D01*
X99248170Y-136037947D01*
X99248160Y-136037950D01*
X99066092Y-136113364D01*
X99066079Y-136113371D01*
X98902218Y-136222860D01*
X98902214Y-136222863D01*
X98762863Y-136362214D01*
X98762860Y-136362218D01*
X98653371Y-136526079D01*
X98653364Y-136526092D01*
X98577950Y-136708160D01*
X98577947Y-136708170D01*
X98539500Y-136901456D01*
X98539500Y-136901459D01*
X98539500Y-137098541D01*
X98539500Y-137098543D01*
X98539499Y-137098543D01*
X98000500Y-137098543D01*
X98000499Y-136368482D01*
X97985646Y-136274696D01*
X97928050Y-136161658D01*
X97928046Y-136161654D01*
X97928045Y-136161652D01*
X97838347Y-136071954D01*
X97838344Y-136071952D01*
X97838342Y-136071950D01*
X97728531Y-136015998D01*
X97725301Y-136014352D01*
X97631524Y-135999500D01*
X97631519Y-135999500D01*
X97424500Y-135999500D01*
X97357461Y-135979815D01*
X97311706Y-135927011D01*
X97300500Y-135875500D01*
X97300500Y-135490510D01*
X97300512Y-135452531D01*
X97300500Y-135452486D01*
X97300500Y-135452438D01*
X97290082Y-135413561D01*
X97280057Y-135376099D01*
X97280053Y-135376093D01*
X97280047Y-135376068D01*
X97280029Y-135376023D01*
X97259519Y-135340500D01*
X97259497Y-135340463D01*
X97240519Y-135307566D01*
X97240461Y-135307492D01*
X97240460Y-135307489D01*
X97211682Y-135278711D01*
X97211662Y-135278676D01*
X97211655Y-135278684D01*
X96733291Y-134800021D01*
X96699826Y-134738687D01*
X96697000Y-134712367D01*
X96697000Y-134622110D01*
X96697000Y-134622108D01*
X96662892Y-134494814D01*
X96597000Y-134380686D01*
X96503814Y-134287500D01*
X96446750Y-134254554D01*
X96389687Y-134221608D01*
X96326039Y-134204554D01*
X96262392Y-134187500D01*
X96130608Y-134187500D01*
X96003312Y-134221608D01*
X95889186Y-134287500D01*
X95889183Y-134287502D01*
X95796002Y-134380683D01*
X95796000Y-134380686D01*
X95730108Y-134494812D01*
X95696000Y-134622108D01*
X78518835Y-134622108D01*
X78530500Y-134563465D01*
X78530500Y-134356535D01*
X78490130Y-134153580D01*
X78410941Y-133962402D01*
X78295977Y-133790345D01*
X78295975Y-133790342D01*
X78149657Y-133644024D01*
X77985304Y-133534208D01*
X77977598Y-133529059D01*
X77786420Y-133449870D01*
X77786412Y-133449868D01*
X77583469Y-133409500D01*
X77583465Y-133409500D01*
X77376535Y-133409500D01*
X77376530Y-133409500D01*
X77173587Y-133449868D01*
X77173579Y-133449870D01*
X76982403Y-133529058D01*
X76810342Y-133644024D01*
X76664024Y-133790342D01*
X76549058Y-133962403D01*
X76469870Y-134153579D01*
X76469868Y-134153587D01*
X76429500Y-134356530D01*
X75990499Y-134356530D01*
X75950130Y-134153580D01*
X75870941Y-133962402D01*
X75755977Y-133790345D01*
X75755975Y-133790342D01*
X75609657Y-133644024D01*
X75445304Y-133534208D01*
X75437598Y-133529059D01*
X75246420Y-133449870D01*
X75246412Y-133449868D01*
X75043469Y-133409500D01*
X75043465Y-133409500D01*
X74836535Y-133409500D01*
X74836530Y-133409500D01*
X74633587Y-133449868D01*
X74633579Y-133449870D01*
X74442403Y-133529058D01*
X74270342Y-133644024D01*
X74124024Y-133790342D01*
X74009058Y-133962403D01*
X73929870Y-134153579D01*
X73929868Y-134153587D01*
X73889500Y-134356530D01*
X73450499Y-134356530D01*
X73410130Y-134153580D01*
X73330941Y-133962402D01*
X73215977Y-133790345D01*
X73215975Y-133790342D01*
X73069657Y-133644024D01*
X72905304Y-133534208D01*
X72897598Y-133529059D01*
X72706420Y-133449870D01*
X72706412Y-133449868D01*
X72503469Y-133409500D01*
X72503465Y-133409500D01*
X72296535Y-133409500D01*
X72296530Y-133409500D01*
X72093587Y-133449868D01*
X72093579Y-133449870D01*
X71902403Y-133529058D01*
X71730342Y-133644024D01*
X71584024Y-133790342D01*
X71469058Y-133962403D01*
X71389870Y-134153579D01*
X71389868Y-134153587D01*
X71349500Y-134356530D01*
X68370499Y-134356530D01*
X68330130Y-134153580D01*
X68250941Y-133962402D01*
X68135977Y-133790345D01*
X68135975Y-133790342D01*
X67989657Y-133644024D01*
X67825304Y-133534208D01*
X67817598Y-133529059D01*
X67626420Y-133449870D01*
X67626412Y-133449868D01*
X67423469Y-133409500D01*
X67423465Y-133409500D01*
X67216535Y-133409500D01*
X67216530Y-133409500D01*
X67013587Y-133449868D01*
X67013579Y-133449870D01*
X66822403Y-133529058D01*
X66660390Y-133637311D01*
X66593713Y-133658188D01*
X66526333Y-133639703D01*
X66479643Y-133587724D01*
X66467500Y-133534208D01*
X66467500Y-132426893D01*
X66487185Y-132359854D01*
X66529496Y-132319509D01*
X66572814Y-132294500D01*
X66666000Y-132201314D01*
X66731892Y-132087186D01*
X66766000Y-131959892D01*
X66766000Y-131828108D01*
X66731892Y-131700814D01*
X66727719Y-131693587D01*
X66723063Y-131685521D01*
X66666000Y-131586686D01*
X66572814Y-131493500D01*
X66515750Y-131460554D01*
X66458687Y-131427608D01*
X66395039Y-131410554D01*
X66331392Y-131393500D01*
X66199608Y-131393500D01*
X66072312Y-131427608D01*
X65958186Y-131493500D01*
X65958183Y-131493502D01*
X65865002Y-131586683D01*
X65865000Y-131586686D01*
X65799108Y-131700812D01*
X65765000Y-131828108D01*
X65765000Y-131959892D01*
X65799108Y-132087186D01*
X65849887Y-132175138D01*
X65866500Y-132237137D01*
X65866500Y-133786438D01*
X65846815Y-133853477D01*
X65794011Y-133899232D01*
X65724853Y-133909176D01*
X65661297Y-133880151D01*
X65639398Y-133855328D01*
X65595980Y-133790349D01*
X65595974Y-133790341D01*
X65449657Y-133644024D01*
X65285304Y-133534208D01*
X65277598Y-133529059D01*
X65086420Y-133449870D01*
X65086412Y-133449868D01*
X64883469Y-133409500D01*
X64883465Y-133409500D01*
X64676535Y-133409500D01*
X64676530Y-133409500D01*
X64473587Y-133449868D01*
X64473579Y-133449870D01*
X64282403Y-133529058D01*
X64110342Y-133644024D01*
X63964024Y-133790342D01*
X63849058Y-133962403D01*
X63769870Y-134153579D01*
X63769868Y-134153587D01*
X63729500Y-134356530D01*
X60750499Y-134356530D01*
X60710130Y-134153580D01*
X60630941Y-133962402D01*
X60515977Y-133790345D01*
X60515975Y-133790342D01*
X60369657Y-133644024D01*
X60205304Y-133534208D01*
X60197598Y-133529059D01*
X60006420Y-133449870D01*
X60006412Y-133449868D01*
X59803469Y-133409500D01*
X59803465Y-133409500D01*
X59596535Y-133409500D01*
X59596530Y-133409500D01*
X59393587Y-133449868D01*
X59393579Y-133449870D01*
X59202403Y-133529058D01*
X59030342Y-133644024D01*
X58884024Y-133790342D01*
X58769058Y-133962403D01*
X58689870Y-134153579D01*
X58689868Y-134153587D01*
X58649500Y-134356530D01*
X58210499Y-134356530D01*
X58170130Y-134153580D01*
X58090941Y-133962402D01*
X57975977Y-133790345D01*
X57975975Y-133790342D01*
X57829657Y-133644024D01*
X57665304Y-133534208D01*
X57657598Y-133529059D01*
X57466420Y-133449870D01*
X57466412Y-133449868D01*
X57263469Y-133409500D01*
X57263465Y-133409500D01*
X57056535Y-133409500D01*
X57056530Y-133409500D01*
X56853587Y-133449868D01*
X56853579Y-133449870D01*
X56662403Y-133529058D01*
X56490342Y-133644024D01*
X56344024Y-133790342D01*
X56229058Y-133962403D01*
X56149870Y-134153579D01*
X56149868Y-134153587D01*
X56109500Y-134356530D01*
X55670499Y-134356530D01*
X55630130Y-134153580D01*
X55550941Y-133962402D01*
X55435977Y-133790345D01*
X55435975Y-133790342D01*
X55289657Y-133644024D01*
X55125304Y-133534208D01*
X55117598Y-133529059D01*
X54926420Y-133449870D01*
X54926412Y-133449868D01*
X54723469Y-133409500D01*
X54723465Y-133409500D01*
X54516535Y-133409500D01*
X54516530Y-133409500D01*
X54313587Y-133449868D01*
X54313579Y-133449870D01*
X54122403Y-133529058D01*
X53950342Y-133644024D01*
X53804024Y-133790342D01*
X53689058Y-133962403D01*
X53609870Y-134153579D01*
X53609868Y-134153587D01*
X53569500Y-134356530D01*
X50590499Y-134356530D01*
X50550130Y-134153580D01*
X50470941Y-133962402D01*
X50355977Y-133790345D01*
X50355975Y-133790342D01*
X50209657Y-133644024D01*
X50045304Y-133534208D01*
X50037598Y-133529059D01*
X49846420Y-133449870D01*
X49846412Y-133449868D01*
X49643469Y-133409500D01*
X49643465Y-133409500D01*
X49436535Y-133409500D01*
X49436530Y-133409500D01*
X49233587Y-133449868D01*
X49233579Y-133449870D01*
X49042403Y-133529058D01*
X48870342Y-133644024D01*
X48724024Y-133790342D01*
X48609058Y-133962403D01*
X48529870Y-134153579D01*
X48529868Y-134153587D01*
X48489500Y-134356530D01*
X48050499Y-134356530D01*
X48010130Y-134153580D01*
X47930941Y-133962402D01*
X47815977Y-133790345D01*
X47815975Y-133790342D01*
X47669657Y-133644024D01*
X47505304Y-133534208D01*
X47497598Y-133529059D01*
X47306420Y-133449870D01*
X47306412Y-133449868D01*
X47103469Y-133409500D01*
X47103465Y-133409500D01*
X46896535Y-133409500D01*
X46896530Y-133409500D01*
X46693587Y-133449868D01*
X46693579Y-133449870D01*
X46502403Y-133529058D01*
X46330342Y-133644024D01*
X46184024Y-133790342D01*
X46069058Y-133962403D01*
X45989870Y-134153579D01*
X45989868Y-134153587D01*
X45949500Y-134356530D01*
X45949500Y-134563469D01*
X45989868Y-134766412D01*
X45989870Y-134766420D01*
X46039822Y-134887015D01*
X46047291Y-134956485D01*
X46016016Y-135018964D01*
X46012946Y-135022146D01*
X43167702Y-137867625D01*
X43167673Y-137867654D01*
X43166994Y-137868334D01*
X43142840Y-137892489D01*
X43142837Y-137892493D01*
X43142832Y-137892499D01*
X43122309Y-137928050D01*
X43103279Y-137961011D01*
X43103277Y-137961017D01*
X43103274Y-137961023D01*
X43102965Y-137962173D01*
X43102965Y-137962175D01*
X43096677Y-137985646D01*
X43092698Y-138000499D01*
X43082800Y-138037438D01*
X43082800Y-138037443D01*
X43082798Y-138037451D01*
X43082798Y-138037876D01*
X43082798Y-138037877D01*
X43082800Y-138077013D01*
X43082800Y-200382985D01*
X43082795Y-200422550D01*
X8500500Y-200422550D01*
X8500500Y-121010000D01*
X138130000Y-121010000D01*
X138130000Y-135210000D01*
X142469895Y-135210000D01*
X146082662Y-130557944D01*
X146139328Y-130517069D01*
X146180598Y-130510000D01*
X147165500Y-130510000D01*
X147232539Y-130529685D01*
X147278294Y-130582489D01*
X147289500Y-130634000D01*
X147289500Y-134494166D01*
X147269815Y-134561205D01*
X147253181Y-134581847D01*
X145783835Y-136051192D01*
X145722512Y-136084677D01*
X145652820Y-136079693D01*
X145648702Y-136078072D01*
X145551839Y-136037950D01*
X145551829Y-136037947D01*
X145358543Y-135999500D01*
X145358541Y-135999500D01*
X145161459Y-135999500D01*
X145161457Y-135999500D01*
X144968170Y-136037947D01*
X144968160Y-136037950D01*
X144786092Y-136113364D01*
X144786079Y-136113371D01*
X144622218Y-136222860D01*
X144622214Y-136222863D01*
X144482863Y-136362214D01*
X144482860Y-136362218D01*
X144373371Y-136526079D01*
X144373364Y-136526092D01*
X144297950Y-136708160D01*
X144297947Y-136708170D01*
X144259500Y-136901456D01*
X144259500Y-136901459D01*
X144259500Y-137098541D01*
X144259500Y-137098543D01*
X144259499Y-137098543D01*
X144297947Y-137291829D01*
X144297950Y-137291839D01*
X144373364Y-137473907D01*
X144373371Y-137473920D01*
X144482860Y-137637781D01*
X144482863Y-137637785D01*
X144622214Y-137777136D01*
X144622218Y-137777139D01*
X144786079Y-137886628D01*
X144786092Y-137886635D01*
X144965683Y-137961023D01*
X144968165Y-137962051D01*
X144968169Y-137962051D01*
X144968170Y-137962052D01*
X145161456Y-138000500D01*
X145161459Y-138000500D01*
X145358543Y-138000500D01*
X145496163Y-137973125D01*
X145551835Y-137962051D01*
X145733914Y-137886632D01*
X145897782Y-137777139D01*
X146037139Y-137637782D01*
X146146632Y-137473914D01*
X146151572Y-137461989D01*
X146180222Y-137392820D01*
X146222051Y-137291835D01*
X146259520Y-137103469D01*
X146260500Y-137098543D01*
X146260500Y-136901456D01*
X146222052Y-136708170D01*
X146222051Y-136708169D01*
X146222051Y-136708165D01*
X146181925Y-136611294D01*
X146174457Y-136541828D01*
X146205732Y-136479349D01*
X146208777Y-136476192D01*
X147830460Y-134854511D01*
X147870022Y-134785988D01*
X147890500Y-134709562D01*
X147890500Y-134630438D01*
X147890500Y-131130247D01*
X148949500Y-131130247D01*
X148949500Y-132869752D01*
X148961131Y-132928229D01*
X148961132Y-132928230D01*
X149005447Y-132994552D01*
X149071769Y-133038867D01*
X149071770Y-133038868D01*
X149130247Y-133050499D01*
X149130250Y-133050500D01*
X149130252Y-133050500D01*
X149575500Y-133050500D01*
X149642539Y-133070185D01*
X149688294Y-133122989D01*
X149699500Y-133174500D01*
X149699500Y-138522103D01*
X149679815Y-138589142D01*
X149673878Y-138597587D01*
X149671501Y-138600683D01*
X149605608Y-138714812D01*
X149583048Y-138799009D01*
X149571500Y-138842108D01*
X149571500Y-138973892D01*
X149579340Y-139003152D01*
X149605608Y-139101187D01*
X149621991Y-139129562D01*
X149671500Y-139215314D01*
X149764686Y-139308500D01*
X149878814Y-139374392D01*
X150006108Y-139408500D01*
X150006110Y-139408500D01*
X150137890Y-139408500D01*
X150137892Y-139408500D01*
X150265186Y-139374392D01*
X150379314Y-139308500D01*
X150472500Y-139215314D01*
X150538392Y-139101186D01*
X150572500Y-138973892D01*
X150572500Y-138842108D01*
X150538392Y-138714814D01*
X150472500Y-138600686D01*
X150379314Y-138507500D01*
X150362498Y-138497791D01*
X150314284Y-138447223D01*
X150300500Y-138390405D01*
X150300500Y-133174500D01*
X150320185Y-133107461D01*
X150372989Y-133061706D01*
X150424500Y-133050500D01*
X150869750Y-133050500D01*
X150869751Y-133050499D01*
X150884568Y-133047552D01*
X150928229Y-133038868D01*
X150928229Y-133038867D01*
X150928231Y-133038867D01*
X150994552Y-132994552D01*
X151038867Y-132928231D01*
X151038867Y-132928229D01*
X151038868Y-132928229D01*
X151050499Y-132869752D01*
X151050500Y-132869750D01*
X151050500Y-131896530D01*
X154029500Y-131896530D01*
X154029500Y-132103469D01*
X154069868Y-132306412D01*
X154069870Y-132306420D01*
X154124227Y-132437650D01*
X154149059Y-132497598D01*
X154161867Y-132516766D01*
X154264024Y-132669657D01*
X154410342Y-132815975D01*
X154410345Y-132815977D01*
X154582402Y-132930941D01*
X154773580Y-133010130D01*
X154918052Y-133038867D01*
X154976530Y-133050499D01*
X154976534Y-133050500D01*
X154976535Y-133050500D01*
X155183466Y-133050500D01*
X155183467Y-133050499D01*
X155386420Y-133010130D01*
X155577598Y-132930941D01*
X155749655Y-132815977D01*
X155895977Y-132669655D01*
X156010941Y-132497598D01*
X156090130Y-132306420D01*
X156130500Y-132103465D01*
X156130500Y-131896535D01*
X156090130Y-131693580D01*
X156010941Y-131502402D01*
X155895977Y-131330345D01*
X155895975Y-131330342D01*
X155749657Y-131184024D01*
X155581655Y-131071770D01*
X155577598Y-131069059D01*
X155577593Y-131069057D01*
X155386420Y-130989870D01*
X155386412Y-130989868D01*
X155183469Y-130949500D01*
X155183465Y-130949500D01*
X154976535Y-130949500D01*
X154976530Y-130949500D01*
X154773587Y-130989868D01*
X154773579Y-130989870D01*
X154582403Y-131069058D01*
X154410342Y-131184024D01*
X154264024Y-131330342D01*
X154149058Y-131502403D01*
X154069870Y-131693579D01*
X154069868Y-131693587D01*
X154029500Y-131896530D01*
X151050500Y-131896530D01*
X151050500Y-131130249D01*
X151050499Y-131130247D01*
X151038868Y-131071770D01*
X151038867Y-131071769D01*
X150994552Y-131005447D01*
X150928230Y-130961132D01*
X150928229Y-130961131D01*
X150869752Y-130949500D01*
X150869748Y-130949500D01*
X149130252Y-130949500D01*
X149130247Y-130949500D01*
X149071770Y-130961131D01*
X149071769Y-130961132D01*
X149005447Y-131005447D01*
X148961132Y-131071769D01*
X148961131Y-131071770D01*
X148949500Y-131130247D01*
X147890500Y-131130247D01*
X147890500Y-129024108D01*
X155557500Y-129024108D01*
X155557500Y-129155892D01*
X155569814Y-129201848D01*
X155591608Y-129283187D01*
X155624554Y-129340250D01*
X155657500Y-129397314D01*
X155750686Y-129490500D01*
X155864814Y-129556392D01*
X155992108Y-129590500D01*
X155992110Y-129590500D01*
X156082167Y-129590500D01*
X156149206Y-129610185D01*
X156169848Y-129626819D01*
X157283181Y-130740152D01*
X157297884Y-130767079D01*
X157314477Y-130792898D01*
X157315368Y-130799098D01*
X157316666Y-130801475D01*
X157319500Y-130827833D01*
X157319500Y-130904563D01*
X157299815Y-130971602D01*
X157247011Y-131017357D01*
X157242953Y-131019124D01*
X157122404Y-131069057D01*
X156950342Y-131184024D01*
X156804024Y-131330342D01*
X156689058Y-131502403D01*
X156609870Y-131693579D01*
X156609868Y-131693587D01*
X156569500Y-131896530D01*
X156569500Y-132103469D01*
X156609868Y-132306412D01*
X156609870Y-132306420D01*
X156664227Y-132437650D01*
X156689059Y-132497598D01*
X156701867Y-132516766D01*
X156804024Y-132669657D01*
X156950342Y-132815975D01*
X156950345Y-132815977D01*
X157122402Y-132930941D01*
X157242953Y-132980875D01*
X157297356Y-133024714D01*
X157319421Y-133091008D01*
X157319500Y-133095435D01*
X157319500Y-137170166D01*
X157299815Y-137237205D01*
X157283181Y-137257847D01*
X156169847Y-138371181D01*
X156108524Y-138404666D01*
X156082166Y-138407500D01*
X155992108Y-138407500D01*
X155864812Y-138441608D01*
X155750686Y-138507500D01*
X155750683Y-138507502D01*
X155657502Y-138600683D01*
X155657500Y-138600686D01*
X155591608Y-138714812D01*
X155569048Y-138799009D01*
X155557500Y-138842108D01*
X155557500Y-138973892D01*
X155565340Y-139003152D01*
X155591608Y-139101187D01*
X155607991Y-139129562D01*
X155657500Y-139215314D01*
X155750686Y-139308500D01*
X155864814Y-139374392D01*
X155992108Y-139408500D01*
X155992110Y-139408500D01*
X156123890Y-139408500D01*
X156123892Y-139408500D01*
X156251186Y-139374392D01*
X156365314Y-139308500D01*
X156458500Y-139215314D01*
X156524392Y-139101186D01*
X156558500Y-138973892D01*
X156558500Y-138883832D01*
X156578185Y-138816793D01*
X156594819Y-138796151D01*
X157205187Y-138185783D01*
X157860460Y-137530511D01*
X157900022Y-137461988D01*
X157920500Y-137385562D01*
X157920500Y-137306438D01*
X157920500Y-133095435D01*
X157940185Y-133028396D01*
X157992989Y-132982641D01*
X157997012Y-132980889D01*
X158117598Y-132930941D01*
X158289655Y-132815977D01*
X158435977Y-132669655D01*
X158550941Y-132497598D01*
X158630130Y-132306420D01*
X158670500Y-132103465D01*
X158670500Y-131896535D01*
X158630130Y-131693580D01*
X158550941Y-131502402D01*
X158435977Y-131330345D01*
X158435975Y-131330342D01*
X158289657Y-131184024D01*
X158117595Y-131069057D01*
X157997047Y-131019124D01*
X157942643Y-130975282D01*
X157920579Y-130908988D01*
X157920500Y-130904563D01*
X157920500Y-130612440D01*
X157920500Y-130612438D01*
X157900022Y-130536012D01*
X157860460Y-130467489D01*
X156594819Y-129201848D01*
X156561334Y-129140525D01*
X156558500Y-129114167D01*
X156558500Y-129024110D01*
X156558500Y-129024108D01*
X156524392Y-128896814D01*
X156458500Y-128782686D01*
X156365314Y-128689500D01*
X156308250Y-128656554D01*
X156251187Y-128623608D01*
X156187539Y-128606554D01*
X156123892Y-128589500D01*
X155992108Y-128589500D01*
X155864812Y-128623608D01*
X155750686Y-128689500D01*
X155750683Y-128689502D01*
X155657502Y-128782683D01*
X155657500Y-128782686D01*
X155591608Y-128896812D01*
X155557500Y-129024108D01*
X147890500Y-129024108D01*
X147890500Y-125864108D01*
X191475500Y-125864108D01*
X191475500Y-125995892D01*
X191487814Y-126041848D01*
X191509608Y-126123187D01*
X191542554Y-126180250D01*
X191575500Y-126237314D01*
X191668686Y-126330500D01*
X191782814Y-126396392D01*
X191910108Y-126430500D01*
X191910110Y-126430500D01*
X192000167Y-126430500D01*
X192067206Y-126450185D01*
X192087848Y-126466819D01*
X192283181Y-126662152D01*
X192316666Y-126723475D01*
X192319500Y-126749833D01*
X192319500Y-130904563D01*
X192299815Y-130971602D01*
X192247011Y-131017357D01*
X192242953Y-131019124D01*
X192122404Y-131069057D01*
X191950342Y-131184024D01*
X191804024Y-131330342D01*
X191689058Y-131502403D01*
X191609870Y-131693579D01*
X191609868Y-131693587D01*
X191569500Y-131896530D01*
X191569500Y-132103469D01*
X191609868Y-132306412D01*
X191609870Y-132306420D01*
X191664227Y-132437650D01*
X191689059Y-132497598D01*
X191701867Y-132516766D01*
X191804024Y-132669657D01*
X191950342Y-132815975D01*
X191950345Y-132815977D01*
X192122402Y-132930941D01*
X192313580Y-133010130D01*
X192458052Y-133038867D01*
X192516530Y-133050499D01*
X192516534Y-133050500D01*
X192516535Y-133050500D01*
X192723466Y-133050500D01*
X192723467Y-133050499D01*
X192926420Y-133010130D01*
X193117598Y-132930941D01*
X193289655Y-132815977D01*
X193435977Y-132669655D01*
X193550941Y-132497598D01*
X193630130Y-132306420D01*
X193670500Y-132103465D01*
X193670500Y-131896535D01*
X193670499Y-131896530D01*
X194109500Y-131896530D01*
X194109500Y-132103469D01*
X194149868Y-132306412D01*
X194149870Y-132306420D01*
X194204227Y-132437650D01*
X194229059Y-132497598D01*
X194241867Y-132516766D01*
X194344024Y-132669657D01*
X194490342Y-132815975D01*
X194490345Y-132815977D01*
X194662402Y-132930941D01*
X194853580Y-133010130D01*
X194998052Y-133038867D01*
X195056530Y-133050499D01*
X195056534Y-133050500D01*
X195056535Y-133050500D01*
X195263466Y-133050500D01*
X195263467Y-133050499D01*
X195466420Y-133010130D01*
X195657598Y-132930941D01*
X195829655Y-132815977D01*
X195975977Y-132669655D01*
X196090941Y-132497598D01*
X196170130Y-132306420D01*
X196210500Y-132103465D01*
X196210500Y-131896535D01*
X196210499Y-131896530D01*
X196649500Y-131896530D01*
X196649500Y-132103469D01*
X196689868Y-132306412D01*
X196689870Y-132306420D01*
X196744227Y-132437650D01*
X196769059Y-132497598D01*
X196781867Y-132516766D01*
X196884024Y-132669657D01*
X197030342Y-132815975D01*
X197030345Y-132815977D01*
X197202402Y-132930941D01*
X197393580Y-133010130D01*
X197538052Y-133038867D01*
X197596530Y-133050499D01*
X197596534Y-133050500D01*
X197596535Y-133050500D01*
X197803466Y-133050500D01*
X197803467Y-133050499D01*
X198006420Y-133010130D01*
X198126974Y-132960194D01*
X198196438Y-132952726D01*
X198258918Y-132984000D01*
X198262104Y-132987075D01*
X204663181Y-139388152D01*
X204696666Y-139449475D01*
X204699500Y-139475833D01*
X204699500Y-190269828D01*
X204679815Y-190336867D01*
X204627011Y-190382622D01*
X204613821Y-190387757D01*
X204424008Y-190449432D01*
X204424005Y-190449433D01*
X204213566Y-190556657D01*
X204171901Y-190586929D01*
X204022490Y-190695483D01*
X204022488Y-190695485D01*
X204022487Y-190695485D01*
X203855485Y-190862487D01*
X203855485Y-190862488D01*
X203855483Y-190862490D01*
X203797566Y-190942205D01*
X203716657Y-191053566D01*
X203609433Y-191264003D01*
X203536446Y-191488631D01*
X203499500Y-191721902D01*
X203499500Y-191958097D01*
X203536446Y-192191368D01*
X203609433Y-192415996D01*
X203716657Y-192626433D01*
X203855483Y-192817510D01*
X204022490Y-192984517D01*
X204213567Y-193123343D01*
X204312991Y-193174002D01*
X204424003Y-193230566D01*
X204424005Y-193230566D01*
X204424008Y-193230568D01*
X204544412Y-193269689D01*
X204648631Y-193303553D01*
X204881903Y-193340500D01*
X204881908Y-193340500D01*
X205118097Y-193340500D01*
X205351368Y-193303553D01*
X205575992Y-193230568D01*
X205786433Y-193123343D01*
X205977510Y-192984517D01*
X206144517Y-192817510D01*
X206283343Y-192626433D01*
X206390568Y-192415992D01*
X206463553Y-192191368D01*
X206473362Y-192129438D01*
X206500500Y-191958097D01*
X206500500Y-191721902D01*
X243499500Y-191721902D01*
X243499500Y-191958097D01*
X243536446Y-192191368D01*
X243609433Y-192415996D01*
X243716657Y-192626433D01*
X243855483Y-192817510D01*
X244022490Y-192984517D01*
X244213567Y-193123343D01*
X244312991Y-193174002D01*
X244424003Y-193230566D01*
X244424005Y-193230566D01*
X244424008Y-193230568D01*
X244544412Y-193269689D01*
X244648631Y-193303553D01*
X244881903Y-193340500D01*
X244881908Y-193340500D01*
X245118097Y-193340500D01*
X245351368Y-193303553D01*
X245575992Y-193230568D01*
X245786433Y-193123343D01*
X245977510Y-192984517D01*
X246144517Y-192817510D01*
X246283343Y-192626433D01*
X246390568Y-192415992D01*
X246463553Y-192191368D01*
X246473362Y-192129438D01*
X246500500Y-191958097D01*
X246500500Y-191721902D01*
X246463553Y-191488631D01*
X246406956Y-191314445D01*
X246390568Y-191264008D01*
X246390566Y-191264005D01*
X246390566Y-191264003D01*
X246306673Y-191099355D01*
X246283343Y-191053567D01*
X246144517Y-190862490D01*
X245977510Y-190695483D01*
X245786433Y-190556657D01*
X245774779Y-190550719D01*
X245575996Y-190449433D01*
X245351368Y-190376446D01*
X245118097Y-190339500D01*
X245118092Y-190339500D01*
X244881908Y-190339500D01*
X244881903Y-190339500D01*
X244648631Y-190376446D01*
X244424003Y-190449433D01*
X244213566Y-190556657D01*
X244171901Y-190586929D01*
X244022490Y-190695483D01*
X244022488Y-190695485D01*
X244022487Y-190695485D01*
X243855485Y-190862487D01*
X243855485Y-190862488D01*
X243855483Y-190862490D01*
X243797566Y-190942205D01*
X243716657Y-191053566D01*
X243609433Y-191264003D01*
X243536446Y-191488631D01*
X243499500Y-191721902D01*
X206500500Y-191721902D01*
X206463553Y-191488631D01*
X206406956Y-191314445D01*
X206390568Y-191264008D01*
X206390566Y-191264005D01*
X206390566Y-191264003D01*
X206306673Y-191099355D01*
X206283343Y-191053567D01*
X206144517Y-190862490D01*
X205977510Y-190695483D01*
X205786433Y-190556657D01*
X205575992Y-190449432D01*
X205386181Y-190387758D01*
X205328506Y-190348321D01*
X205301308Y-190283963D01*
X205300500Y-190269828D01*
X205300500Y-139260439D01*
X205300500Y-139260438D01*
X205280021Y-139184011D01*
X205248584Y-139129560D01*
X205240464Y-139115495D01*
X205240458Y-139115487D01*
X198687075Y-132562104D01*
X198653590Y-132500781D01*
X198658574Y-132431089D01*
X198660163Y-132427049D01*
X198710130Y-132306420D01*
X198750500Y-132103465D01*
X198750500Y-131896535D01*
X198750499Y-131896530D01*
X199189500Y-131896530D01*
X199189500Y-132103469D01*
X199229868Y-132306412D01*
X199229870Y-132306420D01*
X199284227Y-132437650D01*
X199309059Y-132497598D01*
X199321867Y-132516766D01*
X199424024Y-132669657D01*
X199570342Y-132815975D01*
X199570345Y-132815977D01*
X199742402Y-132930941D01*
X199933580Y-133010130D01*
X200078052Y-133038867D01*
X200136530Y-133050499D01*
X200136534Y-133050500D01*
X200136535Y-133050500D01*
X200343466Y-133050500D01*
X200343467Y-133050499D01*
X200546420Y-133010130D01*
X200666974Y-132960194D01*
X200736438Y-132952726D01*
X200798918Y-132984000D01*
X200802104Y-132987075D01*
X212590181Y-144775152D01*
X212623666Y-144836475D01*
X212626500Y-144862833D01*
X212626500Y-188479323D01*
X212606815Y-188546362D01*
X212590182Y-188567004D01*
X212526500Y-188630686D01*
X212460608Y-188744812D01*
X212426500Y-188872108D01*
X212426500Y-189003891D01*
X212460608Y-189131187D01*
X212493554Y-189188250D01*
X212526500Y-189245314D01*
X212619686Y-189338500D01*
X212733814Y-189404392D01*
X212861108Y-189438500D01*
X212861110Y-189438500D01*
X212992890Y-189438500D01*
X212992892Y-189438500D01*
X213120186Y-189404392D01*
X213234314Y-189338500D01*
X213327500Y-189245314D01*
X213393392Y-189131186D01*
X213427500Y-189003892D01*
X213427500Y-188872108D01*
X213393392Y-188744814D01*
X213327500Y-188630686D01*
X213263818Y-188567004D01*
X213230334Y-188505680D01*
X213227500Y-188479323D01*
X213227500Y-144647439D01*
X213207020Y-144571009D01*
X213207017Y-144571004D01*
X213167464Y-144502495D01*
X213167458Y-144502487D01*
X201227075Y-132562104D01*
X201193590Y-132500781D01*
X201198574Y-132431089D01*
X201200163Y-132427049D01*
X201250130Y-132306420D01*
X201290500Y-132103465D01*
X201290500Y-131896535D01*
X201290499Y-131896530D01*
X201729500Y-131896530D01*
X201729500Y-132103469D01*
X201769868Y-132306412D01*
X201769870Y-132306420D01*
X201824227Y-132437650D01*
X201849059Y-132497598D01*
X201861867Y-132516766D01*
X201964024Y-132669657D01*
X202110342Y-132815975D01*
X202110345Y-132815977D01*
X202282402Y-132930941D01*
X202473580Y-133010130D01*
X202618052Y-133038867D01*
X202676530Y-133050499D01*
X202676534Y-133050500D01*
X202676535Y-133050500D01*
X202883466Y-133050500D01*
X202883467Y-133050499D01*
X203086420Y-133010130D01*
X203277598Y-132930941D01*
X203449655Y-132815977D01*
X203595977Y-132669655D01*
X203710941Y-132497598D01*
X203790130Y-132306420D01*
X203830500Y-132103465D01*
X203830500Y-131896535D01*
X203830499Y-131896530D01*
X204269500Y-131896530D01*
X204269500Y-132103469D01*
X204309868Y-132306412D01*
X204309870Y-132306420D01*
X204364227Y-132437650D01*
X204389059Y-132497598D01*
X204401867Y-132516766D01*
X204504024Y-132669657D01*
X204650342Y-132815975D01*
X204650345Y-132815977D01*
X204822402Y-132930941D01*
X205013580Y-133010130D01*
X205158052Y-133038867D01*
X205216530Y-133050499D01*
X205216534Y-133050500D01*
X205216535Y-133050500D01*
X205423466Y-133050500D01*
X205423467Y-133050499D01*
X205626420Y-133010130D01*
X205817598Y-132930941D01*
X205989655Y-132815977D01*
X206135977Y-132669655D01*
X206250941Y-132497598D01*
X206330130Y-132306420D01*
X206370500Y-132103465D01*
X206370500Y-131896535D01*
X206330130Y-131693580D01*
X206250941Y-131502402D01*
X206135977Y-131330345D01*
X206135975Y-131330342D01*
X205989657Y-131184024D01*
X205821655Y-131071770D01*
X205817598Y-131069059D01*
X205817593Y-131069057D01*
X205626420Y-130989870D01*
X205626412Y-130989868D01*
X205423469Y-130949500D01*
X205423465Y-130949500D01*
X205216535Y-130949500D01*
X205216530Y-130949500D01*
X205013587Y-130989868D01*
X205013579Y-130989870D01*
X204822403Y-131069058D01*
X204650342Y-131184024D01*
X204504024Y-131330342D01*
X204389058Y-131502403D01*
X204309870Y-131693579D01*
X204309868Y-131693587D01*
X204269500Y-131896530D01*
X203830499Y-131896530D01*
X203790130Y-131693580D01*
X203710941Y-131502402D01*
X203595977Y-131330345D01*
X203595975Y-131330342D01*
X203449657Y-131184024D01*
X203281655Y-131071770D01*
X203277598Y-131069059D01*
X203277593Y-131069057D01*
X203086420Y-130989870D01*
X203086412Y-130989868D01*
X202883469Y-130949500D01*
X202883465Y-130949500D01*
X202676535Y-130949500D01*
X202676530Y-130949500D01*
X202473587Y-130989868D01*
X202473579Y-130989870D01*
X202282403Y-131069058D01*
X202110342Y-131184024D01*
X201964024Y-131330342D01*
X201849058Y-131502403D01*
X201769870Y-131693579D01*
X201769868Y-131693587D01*
X201729500Y-131896530D01*
X201290499Y-131896530D01*
X201250130Y-131693580D01*
X201170941Y-131502402D01*
X201055977Y-131330345D01*
X201055975Y-131330342D01*
X200909657Y-131184024D01*
X200741655Y-131071770D01*
X200737598Y-131069059D01*
X200737593Y-131069057D01*
X200546420Y-130989870D01*
X200546412Y-130989868D01*
X200343469Y-130949500D01*
X200343465Y-130949500D01*
X200136535Y-130949500D01*
X200136530Y-130949500D01*
X199933587Y-130989868D01*
X199933579Y-130989870D01*
X199742403Y-131069058D01*
X199570342Y-131184024D01*
X199424024Y-131330342D01*
X199309058Y-131502403D01*
X199229870Y-131693579D01*
X199229868Y-131693587D01*
X199189500Y-131896530D01*
X198750499Y-131896530D01*
X198710130Y-131693580D01*
X198630941Y-131502402D01*
X198515977Y-131330345D01*
X198515975Y-131330342D01*
X198369657Y-131184024D01*
X198201655Y-131071770D01*
X198197598Y-131069059D01*
X198197593Y-131069057D01*
X198006420Y-130989870D01*
X198006412Y-130989868D01*
X197803469Y-130949500D01*
X197803465Y-130949500D01*
X197596535Y-130949500D01*
X197596530Y-130949500D01*
X197393587Y-130989868D01*
X197393579Y-130989870D01*
X197202403Y-131069058D01*
X197030342Y-131184024D01*
X196884024Y-131330342D01*
X196769058Y-131502403D01*
X196689870Y-131693579D01*
X196689868Y-131693587D01*
X196649500Y-131896530D01*
X196210499Y-131896530D01*
X196170130Y-131693580D01*
X196090941Y-131502402D01*
X195975977Y-131330345D01*
X195975975Y-131330342D01*
X195829657Y-131184024D01*
X195661655Y-131071770D01*
X195657598Y-131069059D01*
X195657593Y-131069057D01*
X195466420Y-130989870D01*
X195466412Y-130989868D01*
X195263469Y-130949500D01*
X195263465Y-130949500D01*
X195056535Y-130949500D01*
X195056530Y-130949500D01*
X194853587Y-130989868D01*
X194853579Y-130989870D01*
X194662403Y-131069058D01*
X194490342Y-131184024D01*
X194344024Y-131330342D01*
X194229058Y-131502403D01*
X194149870Y-131693579D01*
X194149868Y-131693587D01*
X194109500Y-131896530D01*
X193670499Y-131896530D01*
X193630130Y-131693580D01*
X193550941Y-131502402D01*
X193435977Y-131330345D01*
X193435975Y-131330342D01*
X193289657Y-131184024D01*
X193117595Y-131069057D01*
X192997047Y-131019124D01*
X192942643Y-130975282D01*
X192920579Y-130908988D01*
X192920500Y-130904563D01*
X192920500Y-126534440D01*
X192920499Y-126534436D01*
X192911916Y-126502402D01*
X192900022Y-126458012D01*
X192860460Y-126389489D01*
X192512819Y-126041848D01*
X192479334Y-125980525D01*
X192476500Y-125954167D01*
X192476500Y-125864110D01*
X192476500Y-125864108D01*
X192442392Y-125736814D01*
X192376500Y-125622686D01*
X192283314Y-125529500D01*
X192226250Y-125496554D01*
X192169187Y-125463608D01*
X192105539Y-125446554D01*
X192041892Y-125429500D01*
X191910108Y-125429500D01*
X191782812Y-125463608D01*
X191668686Y-125529500D01*
X191668683Y-125529502D01*
X191575502Y-125622683D01*
X191575500Y-125622686D01*
X191509608Y-125736812D01*
X191475500Y-125864108D01*
X147890500Y-125864108D01*
X147890500Y-119469108D01*
X206440500Y-119469108D01*
X206440500Y-119600891D01*
X206474608Y-119728187D01*
X206507554Y-119785250D01*
X206540500Y-119842314D01*
X206540502Y-119842316D01*
X206604181Y-119905995D01*
X206637666Y-119967318D01*
X206640500Y-119993676D01*
X206640500Y-132437650D01*
X206640446Y-132437853D01*
X206640500Y-132477051D01*
X206640500Y-132516568D01*
X206640546Y-132516916D01*
X206640552Y-132516965D01*
X206650764Y-132554870D01*
X206650762Y-132554870D01*
X206650807Y-132555029D01*
X206660979Y-132592988D01*
X206661007Y-132593056D01*
X206661118Y-132593323D01*
X206661137Y-132593370D01*
X206680803Y-132627325D01*
X206680887Y-132627471D01*
X206700538Y-132661508D01*
X206700794Y-132661841D01*
X206700795Y-132661843D01*
X206728730Y-132689701D01*
X206756489Y-132717460D01*
X206756670Y-132717564D01*
X206762515Y-132723393D01*
X206762516Y-132723394D01*
X206767055Y-132727920D01*
X206800628Y-132789195D01*
X206803500Y-132815727D01*
X206803500Y-132904892D01*
X206809754Y-132928231D01*
X206837608Y-133032187D01*
X206854651Y-133061706D01*
X206903500Y-133146314D01*
X206996686Y-133239500D01*
X207110814Y-133305392D01*
X207238108Y-133339500D01*
X207238110Y-133339500D01*
X207369890Y-133339500D01*
X207369892Y-133339500D01*
X207497186Y-133305392D01*
X207611314Y-133239500D01*
X207704500Y-133146314D01*
X207770392Y-133032186D01*
X207804500Y-132904892D01*
X207804500Y-132773108D01*
X207770392Y-132645814D01*
X207704500Y-132531686D01*
X207611314Y-132438500D01*
X207554250Y-132405554D01*
X207497187Y-132372608D01*
X207432602Y-132355303D01*
X207369892Y-132338500D01*
X207369891Y-132338500D01*
X207365500Y-132338500D01*
X207361931Y-132337452D01*
X207361832Y-132337439D01*
X207361834Y-132337423D01*
X207298461Y-132318815D01*
X207252706Y-132266011D01*
X207241500Y-132214500D01*
X207241500Y-126130247D01*
X223949500Y-126130247D01*
X223949500Y-127869752D01*
X223961131Y-127928229D01*
X223961132Y-127928230D01*
X224005447Y-127994552D01*
X224071769Y-128038867D01*
X224071770Y-128038868D01*
X224130247Y-128050499D01*
X224130250Y-128050500D01*
X224130252Y-128050500D01*
X224575500Y-128050500D01*
X224642539Y-128070185D01*
X224688294Y-128122989D01*
X224699500Y-128174500D01*
X224699500Y-143958683D01*
X224679815Y-144025722D01*
X224627011Y-144071477D01*
X224622953Y-144073244D01*
X224526089Y-144113366D01*
X224526079Y-144113371D01*
X224362218Y-144222860D01*
X224362214Y-144222863D01*
X224222863Y-144362214D01*
X224222860Y-144362218D01*
X224113371Y-144526079D01*
X224113364Y-144526092D01*
X224037950Y-144708160D01*
X224037947Y-144708170D01*
X223999500Y-144901456D01*
X223999500Y-144901459D01*
X223999500Y-145098541D01*
X223999500Y-145098543D01*
X223999499Y-145098543D01*
X224037947Y-145291829D01*
X224037950Y-145291839D01*
X224113364Y-145473907D01*
X224113371Y-145473920D01*
X224222860Y-145637781D01*
X224222863Y-145637785D01*
X224362214Y-145777136D01*
X224362218Y-145777139D01*
X224526079Y-145886628D01*
X224526092Y-145886635D01*
X224708160Y-145962049D01*
X224708165Y-145962051D01*
X224708169Y-145962051D01*
X224708170Y-145962052D01*
X224901456Y-146000500D01*
X224901459Y-146000500D01*
X225098543Y-146000500D01*
X225228582Y-145974632D01*
X225291835Y-145962051D01*
X225473914Y-145886632D01*
X225637782Y-145777139D01*
X225777139Y-145637782D01*
X225886632Y-145473914D01*
X225962051Y-145291835D01*
X226000500Y-145098541D01*
X226000500Y-144901459D01*
X226000500Y-144901456D01*
X225962052Y-144708170D01*
X225962051Y-144708169D01*
X225962051Y-144708165D01*
X225936897Y-144647438D01*
X225886635Y-144526092D01*
X225886628Y-144526079D01*
X225777139Y-144362218D01*
X225777136Y-144362214D01*
X225637785Y-144222863D01*
X225637781Y-144222860D01*
X225473920Y-144113371D01*
X225473910Y-144113366D01*
X225377047Y-144073244D01*
X225322644Y-144029403D01*
X225300579Y-143963109D01*
X225300500Y-143958683D01*
X225300500Y-128174500D01*
X225320185Y-128107461D01*
X225372989Y-128061706D01*
X225424500Y-128050500D01*
X225869750Y-128050500D01*
X225869751Y-128050499D01*
X225884568Y-128047552D01*
X225928229Y-128038868D01*
X225928229Y-128038867D01*
X225928231Y-128038867D01*
X225994552Y-127994552D01*
X226038867Y-127928231D01*
X226038867Y-127928229D01*
X226038868Y-127928229D01*
X226050499Y-127869752D01*
X226050500Y-127869750D01*
X226050500Y-126896530D01*
X226489500Y-126896530D01*
X226489500Y-127103469D01*
X226529868Y-127306412D01*
X226529870Y-127306420D01*
X226609058Y-127497596D01*
X226724024Y-127669657D01*
X226870342Y-127815975D01*
X226870345Y-127815977D01*
X227042402Y-127930941D01*
X227233580Y-128010130D01*
X227378052Y-128038867D01*
X227436530Y-128050499D01*
X227436534Y-128050500D01*
X227436535Y-128050500D01*
X227643466Y-128050500D01*
X227643467Y-128050499D01*
X227846420Y-128010130D01*
X227966974Y-127960194D01*
X228036438Y-127952726D01*
X228098918Y-127984000D01*
X228102104Y-127987075D01*
X232283181Y-132168152D01*
X232316666Y-132229475D01*
X232319500Y-132255833D01*
X232319500Y-143958683D01*
X232299815Y-144025722D01*
X232247011Y-144071477D01*
X232242953Y-144073244D01*
X232146089Y-144113366D01*
X232146079Y-144113371D01*
X231982218Y-144222860D01*
X231982214Y-144222863D01*
X231842863Y-144362214D01*
X231842860Y-144362218D01*
X231733371Y-144526079D01*
X231733364Y-144526092D01*
X231657950Y-144708160D01*
X231657947Y-144708170D01*
X231619500Y-144901456D01*
X231619500Y-144901459D01*
X231619500Y-145098541D01*
X231619500Y-145098543D01*
X231619499Y-145098543D01*
X231657947Y-145291829D01*
X231657950Y-145291839D01*
X231733364Y-145473907D01*
X231733371Y-145473920D01*
X231842860Y-145637781D01*
X231842863Y-145637785D01*
X231982214Y-145777136D01*
X231982218Y-145777139D01*
X232146079Y-145886628D01*
X232146092Y-145886635D01*
X232328160Y-145962049D01*
X232328165Y-145962051D01*
X232328169Y-145962051D01*
X232328170Y-145962052D01*
X232521456Y-146000500D01*
X232521459Y-146000500D01*
X232718543Y-146000500D01*
X232848582Y-145974632D01*
X232911835Y-145962051D01*
X233093914Y-145886632D01*
X233257782Y-145777139D01*
X233397139Y-145637782D01*
X233506632Y-145473914D01*
X233582051Y-145291835D01*
X233620500Y-145098541D01*
X233620500Y-144901459D01*
X233620500Y-144901456D01*
X233582052Y-144708170D01*
X233582051Y-144708169D01*
X233582051Y-144708165D01*
X233556897Y-144647438D01*
X233506635Y-144526092D01*
X233506628Y-144526079D01*
X233397139Y-144362218D01*
X233397136Y-144362214D01*
X233257785Y-144222863D01*
X233257781Y-144222860D01*
X233093920Y-144113371D01*
X233093910Y-144113366D01*
X232997047Y-144073244D01*
X232942644Y-144029403D01*
X232920579Y-143963109D01*
X232920500Y-143958683D01*
X232920500Y-132040439D01*
X232900020Y-131964009D01*
X232900017Y-131964004D01*
X232860464Y-131895495D01*
X232860458Y-131895487D01*
X228527075Y-127562104D01*
X228493590Y-127500781D01*
X228498574Y-127431089D01*
X228500163Y-127427049D01*
X228550130Y-127306420D01*
X228590500Y-127103465D01*
X228590500Y-126896535D01*
X228550130Y-126693580D01*
X228470941Y-126502402D01*
X228355977Y-126330345D01*
X228355975Y-126330342D01*
X228209657Y-126184024D01*
X228041655Y-126071770D01*
X228037598Y-126069059D01*
X227971905Y-126041848D01*
X227846420Y-125989870D01*
X227846412Y-125989868D01*
X227643469Y-125949500D01*
X227643465Y-125949500D01*
X227436535Y-125949500D01*
X227436530Y-125949500D01*
X227233587Y-125989868D01*
X227233579Y-125989870D01*
X227042403Y-126069058D01*
X226870342Y-126184024D01*
X226724024Y-126330342D01*
X226609058Y-126502403D01*
X226529870Y-126693579D01*
X226529868Y-126693587D01*
X226489500Y-126896530D01*
X226050500Y-126896530D01*
X226050500Y-126130249D01*
X226050499Y-126130247D01*
X226038868Y-126071770D01*
X226038867Y-126071769D01*
X225994552Y-126005447D01*
X225928230Y-125961132D01*
X225928229Y-125961131D01*
X225869752Y-125949500D01*
X225869748Y-125949500D01*
X224130252Y-125949500D01*
X224130247Y-125949500D01*
X224071770Y-125961131D01*
X224071769Y-125961132D01*
X224005447Y-126005447D01*
X223961132Y-126071769D01*
X223961131Y-126071770D01*
X223949500Y-126130247D01*
X207241500Y-126130247D01*
X207241500Y-119993676D01*
X207261185Y-119926637D01*
X207277819Y-119905995D01*
X207341500Y-119842314D01*
X207407392Y-119728186D01*
X207441500Y-119600892D01*
X207441500Y-119469108D01*
X207407392Y-119341814D01*
X207341500Y-119227686D01*
X207248314Y-119134500D01*
X207191250Y-119101554D01*
X207134187Y-119068608D01*
X207070539Y-119051554D01*
X207006892Y-119034500D01*
X206875108Y-119034500D01*
X206747812Y-119068608D01*
X206633686Y-119134500D01*
X206633683Y-119134502D01*
X206540502Y-119227683D01*
X206540500Y-119227686D01*
X206474608Y-119341812D01*
X206440500Y-119469108D01*
X147890500Y-119469108D01*
X147890500Y-81911208D01*
X174306500Y-81911208D01*
X174306500Y-82042991D01*
X174340608Y-82170287D01*
X174362613Y-82208400D01*
X174406500Y-82284414D01*
X174499686Y-82377600D01*
X174613814Y-82443492D01*
X174741108Y-82477600D01*
X174741110Y-82477600D01*
X174872890Y-82477600D01*
X174872892Y-82477600D01*
X175000186Y-82443492D01*
X175114314Y-82377600D01*
X175207500Y-82284414D01*
X175273392Y-82170286D01*
X175307500Y-82042992D01*
X175307500Y-81911208D01*
X175273392Y-81783914D01*
X175207500Y-81669786D01*
X175143818Y-81606104D01*
X175110334Y-81544780D01*
X175107500Y-81518423D01*
X175107500Y-52002644D01*
X175127185Y-51935605D01*
X175143823Y-51914959D01*
X179059127Y-48000014D01*
X179120450Y-47966533D01*
X179146803Y-47963700D01*
X179236890Y-47963700D01*
X179236892Y-47963700D01*
X179364186Y-47929592D01*
X179371533Y-47925349D01*
X179439432Y-47908874D01*
X179505460Y-47931723D01*
X179548653Y-47986642D01*
X179555298Y-48056195D01*
X179540928Y-48094729D01*
X179536610Y-48102208D01*
X179536609Y-48102211D01*
X179502500Y-48229508D01*
X179502500Y-48361291D01*
X179536608Y-48488587D01*
X179569554Y-48545650D01*
X179602500Y-48602714D01*
X179602502Y-48602716D01*
X179666181Y-48666395D01*
X179699666Y-48727718D01*
X179702500Y-48754076D01*
X179702500Y-75186046D01*
X179702497Y-75186058D01*
X179702500Y-75219111D01*
X179702500Y-75265162D01*
X179702502Y-75265173D01*
X179702503Y-75265182D01*
X179713156Y-75304930D01*
X179713361Y-75305696D01*
X179713380Y-75305770D01*
X179722977Y-75341586D01*
X179722986Y-75341608D01*
X179744605Y-75379047D01*
X179744793Y-75379372D01*
X179762540Y-75410111D01*
X179762546Y-75410117D01*
X179762552Y-75410127D01*
X179792504Y-75440075D01*
X179818489Y-75466060D01*
X179818497Y-75466064D01*
X185180317Y-80827169D01*
X185453175Y-81099990D01*
X185486664Y-81161311D01*
X185489500Y-81187677D01*
X185489500Y-81277691D01*
X185523608Y-81404987D01*
X185530118Y-81416262D01*
X185589500Y-81519114D01*
X185682686Y-81612300D01*
X185796814Y-81678192D01*
X185924108Y-81712300D01*
X185924110Y-81712300D01*
X186055890Y-81712300D01*
X186055892Y-81712300D01*
X186183186Y-81678192D01*
X186297314Y-81612300D01*
X186390500Y-81519114D01*
X186456392Y-81404986D01*
X186490500Y-81277692D01*
X186490500Y-81145908D01*
X186456392Y-81018614D01*
X186390500Y-80904486D01*
X186297314Y-80811300D01*
X186240250Y-80778354D01*
X186183187Y-80745408D01*
X186063520Y-80713344D01*
X186055892Y-80711300D01*
X185965790Y-80711300D01*
X185898751Y-80691615D01*
X185878115Y-80674987D01*
X183632708Y-78429880D01*
X183599219Y-78368559D01*
X183604198Y-78298867D01*
X183646066Y-78242931D01*
X183658368Y-78234815D01*
X183731314Y-78192700D01*
X183824500Y-78099514D01*
X183890392Y-77985386D01*
X183924500Y-77858092D01*
X183924500Y-77726308D01*
X183890392Y-77599014D01*
X183824500Y-77484886D01*
X183731314Y-77391700D01*
X183674250Y-77358754D01*
X183617187Y-77325808D01*
X183553539Y-77308754D01*
X183489892Y-77291700D01*
X183399787Y-77291700D01*
X183332748Y-77272015D01*
X183312112Y-77255388D01*
X181002825Y-74946434D01*
X180969336Y-74885113D01*
X180966500Y-74858746D01*
X180966500Y-63191508D01*
X197461500Y-63191508D01*
X197461500Y-63323291D01*
X197495608Y-63450587D01*
X197528554Y-63507650D01*
X197561500Y-63564714D01*
X197561502Y-63564716D01*
X197625181Y-63628395D01*
X197658666Y-63689718D01*
X197661500Y-63716076D01*
X197661500Y-92746442D01*
X197661499Y-92746446D01*
X197661500Y-92786008D01*
X197661500Y-92825567D01*
X197670737Y-92860035D01*
X197670737Y-92860037D01*
X197681977Y-92901985D01*
X197681980Y-92901992D01*
X197721538Y-92970509D01*
X197721541Y-92970513D01*
X197721544Y-92970516D01*
X197721545Y-92970517D01*
X197741015Y-92989986D01*
X197741017Y-92989988D01*
X197784540Y-93033511D01*
X197784558Y-93033526D01*
X201302181Y-96550969D01*
X201335666Y-96612288D01*
X201338500Y-96638649D01*
X201338500Y-96728691D01*
X201372608Y-96855987D01*
X201405554Y-96913050D01*
X201438500Y-96970114D01*
X201531686Y-97063300D01*
X201645814Y-97129192D01*
X201773108Y-97163300D01*
X201773110Y-97163300D01*
X201904890Y-97163300D01*
X201904892Y-97163300D01*
X202032186Y-97129192D01*
X202146314Y-97063300D01*
X202239500Y-96970114D01*
X202305392Y-96855986D01*
X202339500Y-96728692D01*
X202339500Y-96596908D01*
X202305392Y-96469614D01*
X202239500Y-96355486D01*
X202146314Y-96262300D01*
X202089250Y-96229354D01*
X202032187Y-96196408D01*
X201968539Y-96179354D01*
X201904892Y-96162300D01*
X201814818Y-96162300D01*
X201747779Y-96142615D01*
X201727139Y-96125984D01*
X201581761Y-95980614D01*
X198571501Y-92970509D01*
X198298821Y-92697843D01*
X198265334Y-92636520D01*
X198262500Y-92610159D01*
X198262500Y-63716076D01*
X198282185Y-63649037D01*
X198298819Y-63628395D01*
X198362500Y-63564714D01*
X198428392Y-63450586D01*
X198462500Y-63323292D01*
X198462500Y-63191508D01*
X198428392Y-63064214D01*
X198362500Y-62950086D01*
X198269314Y-62856900D01*
X198212250Y-62823954D01*
X198155187Y-62791008D01*
X198091539Y-62773954D01*
X198027892Y-62756900D01*
X197896108Y-62756900D01*
X197768812Y-62791008D01*
X197654686Y-62856900D01*
X197654683Y-62856902D01*
X197561502Y-62950083D01*
X197561500Y-62950086D01*
X197495608Y-63064212D01*
X197461500Y-63191508D01*
X180966500Y-63191508D01*
X180966500Y-57866476D01*
X180986185Y-57799437D01*
X181002819Y-57778795D01*
X181028500Y-57753114D01*
X181066500Y-57715114D01*
X181132392Y-57600986D01*
X181166500Y-57473692D01*
X181166500Y-57341908D01*
X181132392Y-57214614D01*
X181066500Y-57100486D01*
X180973314Y-57007300D01*
X180916250Y-56974354D01*
X180859187Y-56941408D01*
X180767018Y-56916712D01*
X180731892Y-56907300D01*
X180600108Y-56907300D01*
X180472814Y-56941408D01*
X180472812Y-56941408D01*
X180464963Y-56943512D01*
X180464464Y-56941651D01*
X180405477Y-56947990D01*
X180342999Y-56916712D01*
X180307350Y-56856621D01*
X180303500Y-56825961D01*
X180303500Y-51097408D01*
X209433500Y-51097408D01*
X209433500Y-51229191D01*
X209467608Y-51356487D01*
X209500554Y-51413550D01*
X209533500Y-51470614D01*
X209533502Y-51470616D01*
X209597181Y-51534295D01*
X209630666Y-51595618D01*
X209633500Y-51621976D01*
X209633500Y-62798723D01*
X209613815Y-62865762D01*
X209597182Y-62886404D01*
X209533500Y-62950086D01*
X209467608Y-63064212D01*
X209433500Y-63191508D01*
X209433500Y-63323291D01*
X209467608Y-63450587D01*
X209500554Y-63507650D01*
X209533500Y-63564714D01*
X209533502Y-63564716D01*
X209597181Y-63628395D01*
X209630666Y-63689718D01*
X209633500Y-63716076D01*
X209633500Y-81349223D01*
X209613815Y-81416262D01*
X209597182Y-81436904D01*
X209533500Y-81500586D01*
X209467608Y-81614712D01*
X209450599Y-81678192D01*
X209433500Y-81742008D01*
X209433500Y-81873792D01*
X209443526Y-81911210D01*
X209467608Y-82001087D01*
X209500554Y-82058150D01*
X209533500Y-82115214D01*
X209626686Y-82208400D01*
X209740814Y-82274292D01*
X209868108Y-82308400D01*
X209868110Y-82308400D01*
X209999890Y-82308400D01*
X209999892Y-82308400D01*
X210127186Y-82274292D01*
X210241314Y-82208400D01*
X210334500Y-82115214D01*
X210400392Y-82001086D01*
X210434500Y-81873792D01*
X210434500Y-81742008D01*
X210400392Y-81614714D01*
X210334500Y-81500586D01*
X210270818Y-81436904D01*
X210237334Y-81375580D01*
X210234500Y-81349223D01*
X210234500Y-63716076D01*
X210254185Y-63649037D01*
X210270819Y-63628395D01*
X210334500Y-63564714D01*
X210400392Y-63450586D01*
X210434500Y-63323292D01*
X210434500Y-63191508D01*
X210400392Y-63064214D01*
X210334500Y-62950086D01*
X210270818Y-62886404D01*
X210237334Y-62825080D01*
X210234500Y-62798723D01*
X210234500Y-51621976D01*
X210254185Y-51554937D01*
X210270819Y-51534295D01*
X210334500Y-51470614D01*
X210400392Y-51356486D01*
X210434500Y-51229192D01*
X210434500Y-51097408D01*
X210400392Y-50970114D01*
X210334500Y-50855986D01*
X210241314Y-50762800D01*
X210184250Y-50729854D01*
X210127187Y-50696908D01*
X210063539Y-50679854D01*
X209999892Y-50662800D01*
X209868108Y-50662800D01*
X209740812Y-50696908D01*
X209626686Y-50762800D01*
X209626683Y-50762802D01*
X209533502Y-50855983D01*
X209533500Y-50855986D01*
X209467608Y-50970112D01*
X209433500Y-51097408D01*
X180303500Y-51097408D01*
X180303500Y-48754076D01*
X180323185Y-48687037D01*
X180339819Y-48666395D01*
X180403500Y-48602714D01*
X180469392Y-48488586D01*
X180503500Y-48361292D01*
X180503500Y-48229508D01*
X221104500Y-48229508D01*
X221104500Y-48361291D01*
X221138608Y-48488587D01*
X221171554Y-48545650D01*
X221204500Y-48602714D01*
X221297686Y-48695900D01*
X221396521Y-48752963D01*
X221398449Y-48754076D01*
X221411814Y-48761792D01*
X221539108Y-48795900D01*
X221539110Y-48795900D01*
X221629196Y-48795900D01*
X221696235Y-48815585D01*
X221716870Y-48832213D01*
X222319562Y-49434848D01*
X222368177Y-49483458D01*
X222401665Y-49544779D01*
X222404500Y-49571143D01*
X222404500Y-53774729D01*
X222384815Y-53841768D01*
X222332011Y-53887523D01*
X222262853Y-53897467D01*
X222218500Y-53882116D01*
X222100189Y-53813809D01*
X222100186Y-53813808D01*
X221972892Y-53779700D01*
X221841108Y-53779700D01*
X221713812Y-53813808D01*
X221599686Y-53879700D01*
X221599683Y-53879702D01*
X221506502Y-53972883D01*
X221506500Y-53972886D01*
X221440608Y-54087012D01*
X221406500Y-54214308D01*
X221406500Y-54346091D01*
X221440608Y-54473387D01*
X221473554Y-54530450D01*
X221506500Y-54587514D01*
X221506502Y-54587516D01*
X221570181Y-54651195D01*
X221603666Y-54712518D01*
X221606500Y-54738876D01*
X221606500Y-90495184D01*
X221606498Y-90534746D01*
X221606500Y-90534753D01*
X221606500Y-90534762D01*
X221607376Y-90538034D01*
X221607377Y-90538036D01*
X221618206Y-90578448D01*
X221618207Y-90578453D01*
X221626973Y-90611173D01*
X221626977Y-90611183D01*
X221626979Y-90611189D01*
X221626982Y-90611194D01*
X221627004Y-90611246D01*
X221627393Y-90611907D01*
X221649311Y-90649870D01*
X221649312Y-90649875D01*
X221649313Y-90649875D01*
X221666527Y-90679694D01*
X221666542Y-90679713D01*
X221694910Y-90708081D01*
X221694913Y-90708087D01*
X221694915Y-90708086D01*
X227048187Y-96061924D01*
X227081668Y-96123247D01*
X227084500Y-96149599D01*
X227084500Y-96239691D01*
X227118608Y-96366987D01*
X227151554Y-96424050D01*
X227184500Y-96481114D01*
X227277686Y-96574300D01*
X227391814Y-96640192D01*
X227519108Y-96674300D01*
X227519110Y-96674300D01*
X227650890Y-96674300D01*
X227650892Y-96674300D01*
X227778186Y-96640192D01*
X227892314Y-96574300D01*
X227985500Y-96481114D01*
X228051392Y-96366986D01*
X228085500Y-96239692D01*
X228085500Y-96107908D01*
X228051392Y-95980614D01*
X227985500Y-95866486D01*
X227892314Y-95773300D01*
X227835250Y-95740354D01*
X227778187Y-95707408D01*
X227714539Y-95690354D01*
X227650892Y-95673300D01*
X227560868Y-95673300D01*
X227493829Y-95653615D01*
X227473182Y-95636977D01*
X222243814Y-90407055D01*
X222210332Y-90345730D01*
X222207500Y-90319378D01*
X222207500Y-70303770D01*
X222227185Y-70236731D01*
X222279989Y-70190976D01*
X222349147Y-70181032D01*
X222393501Y-70196383D01*
X222397684Y-70198798D01*
X222397686Y-70198800D01*
X222511814Y-70264692D01*
X222639108Y-70298800D01*
X222639110Y-70298800D01*
X222770890Y-70298800D01*
X222770892Y-70298800D01*
X222898186Y-70264692D01*
X223012314Y-70198800D01*
X223105500Y-70105614D01*
X223171392Y-69991486D01*
X223205500Y-69864192D01*
X223205500Y-69732408D01*
X223171392Y-69605114D01*
X223105500Y-69490986D01*
X223041818Y-69427304D01*
X223008334Y-69365980D01*
X223005500Y-69339623D01*
X223005500Y-49434855D01*
X223005502Y-49434848D01*
X223005500Y-49395286D01*
X223005500Y-49355738D01*
X223005498Y-49355730D01*
X223005498Y-49355724D01*
X222995353Y-49317869D01*
X222985021Y-49279311D01*
X222985019Y-49279308D01*
X222985018Y-49279303D01*
X222985016Y-49279299D01*
X222983038Y-49275873D01*
X222963691Y-49242365D01*
X222963689Y-49242362D01*
X222945459Y-49210787D01*
X222945454Y-49210780D01*
X222945452Y-49210778D01*
X222912424Y-49177753D01*
X222889511Y-49154840D01*
X222889506Y-49154837D01*
X222566855Y-48832215D01*
X222141823Y-48407221D01*
X222108335Y-48345900D01*
X222105500Y-48319536D01*
X222105500Y-48229510D01*
X222105500Y-48229508D01*
X222071392Y-48102214D01*
X222005500Y-47988086D01*
X221912314Y-47894900D01*
X221808047Y-47834701D01*
X221798187Y-47829008D01*
X221734539Y-47811954D01*
X221670892Y-47794900D01*
X221539108Y-47794900D01*
X221411812Y-47829008D01*
X221297686Y-47894900D01*
X221297683Y-47894902D01*
X221204502Y-47988083D01*
X221204500Y-47988086D01*
X221138608Y-48102212D01*
X221104500Y-48229508D01*
X180503500Y-48229508D01*
X180469392Y-48102214D01*
X180403500Y-47988086D01*
X180310314Y-47894900D01*
X180206047Y-47834701D01*
X180196187Y-47829008D01*
X180132539Y-47811954D01*
X180068892Y-47794900D01*
X179937108Y-47794900D01*
X179809814Y-47829008D01*
X179809813Y-47829008D01*
X179809811Y-47829009D01*
X179809806Y-47829010D01*
X179802457Y-47833254D01*
X179734557Y-47849724D01*
X179668531Y-47826870D01*
X179625342Y-47771947D01*
X179618703Y-47702394D01*
X179633076Y-47663862D01*
X179637390Y-47656389D01*
X179637392Y-47656386D01*
X179671500Y-47529092D01*
X179671500Y-47397308D01*
X179637392Y-47270014D01*
X179571500Y-47155886D01*
X179478314Y-47062700D01*
X179421250Y-47029754D01*
X179364187Y-46996808D01*
X179300539Y-46979754D01*
X179236892Y-46962700D01*
X179105108Y-46962700D01*
X178977812Y-46996808D01*
X178863686Y-47062700D01*
X178863683Y-47062702D01*
X178770502Y-47155883D01*
X178770500Y-47155886D01*
X178704608Y-47270012D01*
X178670500Y-47397308D01*
X178670500Y-47487337D01*
X178650815Y-47554376D01*
X178634177Y-47575022D01*
X174628494Y-51580336D01*
X174628438Y-51580393D01*
X174622494Y-51586337D01*
X174622489Y-51586340D01*
X174599207Y-51609621D01*
X174566548Y-51642278D01*
X174566543Y-51642285D01*
X174566540Y-51642289D01*
X174564093Y-51646526D01*
X174564091Y-51646529D01*
X174554124Y-51663794D01*
X174554121Y-51663799D01*
X174526984Y-51710797D01*
X174526980Y-51710807D01*
X174526979Y-51710811D01*
X174516646Y-51749369D01*
X174516646Y-51749370D01*
X174516645Y-51749369D01*
X174506504Y-51787214D01*
X174506502Y-51787222D01*
X174506502Y-51787224D01*
X174506501Y-51787230D01*
X174506500Y-51787238D01*
X174506500Y-51826786D01*
X174506498Y-51866348D01*
X174506500Y-51866355D01*
X174506500Y-81518423D01*
X174486815Y-81585462D01*
X174470182Y-81606104D01*
X174406500Y-81669786D01*
X174340608Y-81783912D01*
X174306500Y-81911208D01*
X147890500Y-81911208D01*
X147890500Y-80878531D01*
X147910185Y-80811492D01*
X147926815Y-80790852D01*
X155946155Y-72771418D01*
X156007478Y-72737934D01*
X156033837Y-72735100D01*
X156123890Y-72735100D01*
X156123892Y-72735100D01*
X156251186Y-72700992D01*
X156365314Y-72635100D01*
X156458500Y-72541914D01*
X156524392Y-72427786D01*
X156558500Y-72300492D01*
X156558500Y-72168708D01*
X156524392Y-72041414D01*
X156458500Y-71927286D01*
X156365314Y-71834100D01*
X156308250Y-71801154D01*
X156251187Y-71768208D01*
X156187539Y-71751154D01*
X156123892Y-71734100D01*
X155992108Y-71734100D01*
X155864812Y-71768208D01*
X155750686Y-71834100D01*
X155750683Y-71834102D01*
X155657502Y-71927283D01*
X155657500Y-71927286D01*
X155591608Y-72041412D01*
X155557500Y-72168708D01*
X155557500Y-72258768D01*
X155537815Y-72325807D01*
X155521182Y-72346449D01*
X147349537Y-80518191D01*
X147309982Y-80586704D01*
X147309979Y-80586709D01*
X147289500Y-80663139D01*
X147289500Y-125586000D01*
X147269815Y-125653039D01*
X147217011Y-125698794D01*
X147165500Y-125710000D01*
X146180598Y-125710000D01*
X146113559Y-125690315D01*
X146082662Y-125662056D01*
X142469895Y-121010000D01*
X138130000Y-121010000D01*
X8500500Y-121010000D01*
X8500500Y-119318543D01*
X95999499Y-119318543D01*
X96037947Y-119511829D01*
X96037950Y-119511839D01*
X96113364Y-119693907D01*
X96113371Y-119693920D01*
X96222860Y-119857781D01*
X96222863Y-119857785D01*
X96362214Y-119997136D01*
X96362218Y-119997139D01*
X96526079Y-120106628D01*
X96526092Y-120106635D01*
X96708160Y-120182049D01*
X96708165Y-120182051D01*
X96708169Y-120182051D01*
X96708170Y-120182052D01*
X96901456Y-120220500D01*
X96901459Y-120220500D01*
X97098543Y-120220500D01*
X97228582Y-120194632D01*
X97291835Y-120182051D01*
X97473914Y-120106632D01*
X97637782Y-119997139D01*
X97777139Y-119857782D01*
X97886632Y-119693914D01*
X97962051Y-119511835D01*
X98000500Y-119318543D01*
X98539499Y-119318543D01*
X98577947Y-119511829D01*
X98577950Y-119511839D01*
X98653364Y-119693907D01*
X98653371Y-119693920D01*
X98762860Y-119857781D01*
X98762863Y-119857785D01*
X98902214Y-119997136D01*
X98902218Y-119997139D01*
X99066079Y-120106628D01*
X99066092Y-120106635D01*
X99248160Y-120182049D01*
X99248165Y-120182051D01*
X99248169Y-120182051D01*
X99248170Y-120182052D01*
X99441456Y-120220500D01*
X99441459Y-120220500D01*
X99638543Y-120220500D01*
X99768582Y-120194632D01*
X99831835Y-120182051D01*
X100013914Y-120106632D01*
X100177782Y-119997139D01*
X100317139Y-119857782D01*
X100426632Y-119693914D01*
X100502051Y-119511835D01*
X100540500Y-119318543D01*
X103619499Y-119318543D01*
X103657947Y-119511829D01*
X103657950Y-119511839D01*
X103733364Y-119693907D01*
X103733371Y-119693920D01*
X103842860Y-119857781D01*
X103842863Y-119857785D01*
X103982214Y-119997136D01*
X103982218Y-119997139D01*
X104146079Y-120106628D01*
X104146092Y-120106635D01*
X104328160Y-120182049D01*
X104328165Y-120182051D01*
X104328169Y-120182051D01*
X104328170Y-120182052D01*
X104521456Y-120220500D01*
X104521459Y-120220500D01*
X104718543Y-120220500D01*
X104848582Y-120194632D01*
X104911835Y-120182051D01*
X105093914Y-120106632D01*
X105257782Y-119997139D01*
X105397139Y-119857782D01*
X105506632Y-119693914D01*
X105582051Y-119511835D01*
X105620500Y-119318543D01*
X106159499Y-119318543D01*
X106197947Y-119511829D01*
X106197950Y-119511839D01*
X106273364Y-119693907D01*
X106273371Y-119693920D01*
X106382860Y-119857781D01*
X106382863Y-119857785D01*
X106522214Y-119997136D01*
X106522218Y-119997139D01*
X106686079Y-120106628D01*
X106686092Y-120106635D01*
X106868160Y-120182049D01*
X106868165Y-120182051D01*
X106868169Y-120182051D01*
X106868170Y-120182052D01*
X107061456Y-120220500D01*
X107061459Y-120220500D01*
X107258543Y-120220500D01*
X107388582Y-120194632D01*
X107451835Y-120182051D01*
X107633914Y-120106632D01*
X107797782Y-119997139D01*
X107937139Y-119857782D01*
X108046632Y-119693914D01*
X108122051Y-119511835D01*
X108160500Y-119318543D01*
X108699499Y-119318543D01*
X108737947Y-119511829D01*
X108737950Y-119511839D01*
X108813364Y-119693907D01*
X108813371Y-119693920D01*
X108922860Y-119857781D01*
X108922863Y-119857785D01*
X109062214Y-119997136D01*
X109062218Y-119997139D01*
X109226079Y-120106628D01*
X109226092Y-120106635D01*
X109408160Y-120182049D01*
X109408165Y-120182051D01*
X109408169Y-120182051D01*
X109408170Y-120182052D01*
X109601456Y-120220500D01*
X109601459Y-120220500D01*
X109798543Y-120220500D01*
X109928582Y-120194632D01*
X109991835Y-120182051D01*
X110173914Y-120106632D01*
X110337782Y-119997139D01*
X110477139Y-119857782D01*
X110586632Y-119693914D01*
X110662051Y-119511835D01*
X110700500Y-119318543D01*
X111239499Y-119318543D01*
X111277947Y-119511829D01*
X111277950Y-119511839D01*
X111353364Y-119693907D01*
X111353371Y-119693920D01*
X111462860Y-119857781D01*
X111462863Y-119857785D01*
X111602214Y-119997136D01*
X111602218Y-119997139D01*
X111766079Y-120106628D01*
X111766092Y-120106635D01*
X111948160Y-120182049D01*
X111948165Y-120182051D01*
X111948169Y-120182051D01*
X111948170Y-120182052D01*
X112141456Y-120220500D01*
X112141459Y-120220500D01*
X112338543Y-120220500D01*
X112468582Y-120194632D01*
X112531835Y-120182051D01*
X112713914Y-120106632D01*
X112877782Y-119997139D01*
X113017139Y-119857782D01*
X113126632Y-119693914D01*
X113202051Y-119511835D01*
X113240500Y-119318543D01*
X116319499Y-119318543D01*
X116357947Y-119511829D01*
X116357950Y-119511839D01*
X116433364Y-119693907D01*
X116433371Y-119693920D01*
X116542860Y-119857781D01*
X116542863Y-119857785D01*
X116682214Y-119997136D01*
X116682218Y-119997139D01*
X116846079Y-120106628D01*
X116846092Y-120106635D01*
X117028160Y-120182049D01*
X117028165Y-120182051D01*
X117028169Y-120182051D01*
X117028170Y-120182052D01*
X117221456Y-120220500D01*
X117221459Y-120220500D01*
X117418543Y-120220500D01*
X117548582Y-120194632D01*
X117611835Y-120182051D01*
X117793914Y-120106632D01*
X117957782Y-119997139D01*
X118097139Y-119857782D01*
X118206632Y-119693914D01*
X118282051Y-119511835D01*
X118320500Y-119318543D01*
X118859499Y-119318543D01*
X118897947Y-119511829D01*
X118897950Y-119511839D01*
X118973364Y-119693907D01*
X118973371Y-119693920D01*
X119082860Y-119857781D01*
X119082863Y-119857785D01*
X119222214Y-119997136D01*
X119222218Y-119997139D01*
X119386079Y-120106628D01*
X119386092Y-120106635D01*
X119568160Y-120182049D01*
X119568165Y-120182051D01*
X119568169Y-120182051D01*
X119568170Y-120182052D01*
X119761456Y-120220500D01*
X119761459Y-120220500D01*
X119958543Y-120220500D01*
X120088582Y-120194632D01*
X120151835Y-120182051D01*
X120333914Y-120106632D01*
X120497782Y-119997139D01*
X120637139Y-119857782D01*
X120746632Y-119693914D01*
X120822051Y-119511835D01*
X120860500Y-119318543D01*
X121399499Y-119318543D01*
X121437947Y-119511829D01*
X121437950Y-119511839D01*
X121513364Y-119693907D01*
X121513371Y-119693920D01*
X121622860Y-119857781D01*
X121622863Y-119857785D01*
X121762214Y-119997136D01*
X121762218Y-119997139D01*
X121926079Y-120106628D01*
X121926092Y-120106635D01*
X122108160Y-120182049D01*
X122108165Y-120182051D01*
X122108169Y-120182051D01*
X122108170Y-120182052D01*
X122301456Y-120220500D01*
X122301459Y-120220500D01*
X122498543Y-120220500D01*
X122628582Y-120194632D01*
X122691835Y-120182051D01*
X122873914Y-120106632D01*
X123037782Y-119997139D01*
X123177139Y-119857782D01*
X123286632Y-119693914D01*
X123362051Y-119511835D01*
X123400500Y-119318543D01*
X123939499Y-119318543D01*
X123977947Y-119511829D01*
X123977950Y-119511839D01*
X124053364Y-119693907D01*
X124053371Y-119693920D01*
X124162860Y-119857781D01*
X124162863Y-119857785D01*
X124302214Y-119997136D01*
X124302218Y-119997139D01*
X124466079Y-120106628D01*
X124466092Y-120106635D01*
X124648160Y-120182049D01*
X124648165Y-120182051D01*
X124648169Y-120182051D01*
X124648170Y-120182052D01*
X124841456Y-120220500D01*
X124841459Y-120220500D01*
X125038543Y-120220500D01*
X125168582Y-120194632D01*
X125231835Y-120182051D01*
X125413914Y-120106632D01*
X125577782Y-119997139D01*
X125717139Y-119857782D01*
X125826632Y-119693914D01*
X125902051Y-119511835D01*
X125940500Y-119318543D01*
X129019499Y-119318543D01*
X129057947Y-119511829D01*
X129057950Y-119511839D01*
X129133364Y-119693907D01*
X129133371Y-119693920D01*
X129242860Y-119857781D01*
X129242863Y-119857785D01*
X129382214Y-119997136D01*
X129382218Y-119997139D01*
X129546079Y-120106628D01*
X129546092Y-120106635D01*
X129728160Y-120182049D01*
X129728165Y-120182051D01*
X129728169Y-120182051D01*
X129728170Y-120182052D01*
X129921456Y-120220500D01*
X129921459Y-120220500D01*
X130118543Y-120220500D01*
X130248582Y-120194632D01*
X130311835Y-120182051D01*
X130493914Y-120106632D01*
X130657782Y-119997139D01*
X130797139Y-119857782D01*
X130906632Y-119693914D01*
X130982051Y-119511835D01*
X131020500Y-119318543D01*
X131559499Y-119318543D01*
X131597947Y-119511829D01*
X131597950Y-119511839D01*
X131673364Y-119693907D01*
X131673371Y-119693920D01*
X131782860Y-119857781D01*
X131782863Y-119857785D01*
X131922214Y-119997136D01*
X131922218Y-119997139D01*
X132086079Y-120106628D01*
X132086092Y-120106635D01*
X132268160Y-120182049D01*
X132268165Y-120182051D01*
X132268169Y-120182051D01*
X132268170Y-120182052D01*
X132461456Y-120220500D01*
X132461459Y-120220500D01*
X132658543Y-120220500D01*
X132788582Y-120194632D01*
X132851835Y-120182051D01*
X133033914Y-120106632D01*
X133197782Y-119997139D01*
X133337139Y-119857782D01*
X133446632Y-119693914D01*
X133522051Y-119511835D01*
X133560500Y-119318543D01*
X134099499Y-119318543D01*
X134137947Y-119511829D01*
X134137950Y-119511839D01*
X134213364Y-119693907D01*
X134213371Y-119693920D01*
X134322860Y-119857781D01*
X134322863Y-119857785D01*
X134462214Y-119997136D01*
X134462218Y-119997139D01*
X134626079Y-120106628D01*
X134626092Y-120106635D01*
X134808160Y-120182049D01*
X134808165Y-120182051D01*
X134808169Y-120182051D01*
X134808170Y-120182052D01*
X135001456Y-120220500D01*
X135001459Y-120220500D01*
X135198543Y-120220500D01*
X135328582Y-120194632D01*
X135391835Y-120182051D01*
X135573914Y-120106632D01*
X135737782Y-119997139D01*
X135877139Y-119857782D01*
X135986632Y-119693914D01*
X136062051Y-119511835D01*
X136100500Y-119318543D01*
X136639499Y-119318543D01*
X136677947Y-119511829D01*
X136677950Y-119511839D01*
X136753364Y-119693907D01*
X136753371Y-119693920D01*
X136862860Y-119857781D01*
X136862863Y-119857785D01*
X137002214Y-119997136D01*
X137002218Y-119997139D01*
X137166079Y-120106628D01*
X137166092Y-120106635D01*
X137348160Y-120182049D01*
X137348165Y-120182051D01*
X137348169Y-120182051D01*
X137348170Y-120182052D01*
X137541456Y-120220500D01*
X137541459Y-120220500D01*
X137738543Y-120220500D01*
X137868582Y-120194632D01*
X137931835Y-120182051D01*
X138113914Y-120106632D01*
X138277782Y-119997139D01*
X138417139Y-119857782D01*
X138526632Y-119693914D01*
X138602051Y-119511835D01*
X138640500Y-119318543D01*
X141719499Y-119318543D01*
X141757947Y-119511829D01*
X141757950Y-119511839D01*
X141833364Y-119693907D01*
X141833371Y-119693920D01*
X141942860Y-119857781D01*
X141942863Y-119857785D01*
X142082214Y-119997136D01*
X142082218Y-119997139D01*
X142246079Y-120106628D01*
X142246092Y-120106635D01*
X142428160Y-120182049D01*
X142428165Y-120182051D01*
X142428169Y-120182051D01*
X142428170Y-120182052D01*
X142621456Y-120220500D01*
X142621459Y-120220500D01*
X142818543Y-120220500D01*
X142948582Y-120194632D01*
X143011835Y-120182051D01*
X143193914Y-120106632D01*
X143357782Y-119997139D01*
X143497139Y-119857782D01*
X143606632Y-119693914D01*
X143682051Y-119511835D01*
X143720500Y-119318543D01*
X144259499Y-119318543D01*
X144297947Y-119511829D01*
X144297950Y-119511839D01*
X144373364Y-119693907D01*
X144373371Y-119693920D01*
X144482860Y-119857781D01*
X144482863Y-119857785D01*
X144622214Y-119997136D01*
X144622218Y-119997139D01*
X144786079Y-120106628D01*
X144786092Y-120106635D01*
X144968160Y-120182049D01*
X144968165Y-120182051D01*
X144968169Y-120182051D01*
X144968170Y-120182052D01*
X145161456Y-120220500D01*
X145161459Y-120220500D01*
X145358543Y-120220500D01*
X145488582Y-120194632D01*
X145551835Y-120182051D01*
X145733914Y-120106632D01*
X145897782Y-119997139D01*
X146037139Y-119857782D01*
X146146632Y-119693914D01*
X146222051Y-119511835D01*
X146260500Y-119318541D01*
X146260500Y-119121459D01*
X146260500Y-119121456D01*
X146222052Y-118928170D01*
X146222051Y-118928169D01*
X146222051Y-118928165D01*
X146222049Y-118928160D01*
X146146635Y-118746092D01*
X146146628Y-118746079D01*
X146037139Y-118582218D01*
X146037136Y-118582214D01*
X145897785Y-118442863D01*
X145897781Y-118442860D01*
X145733920Y-118333371D01*
X145733907Y-118333364D01*
X145551839Y-118257950D01*
X145551829Y-118257947D01*
X145358543Y-118219500D01*
X145358541Y-118219500D01*
X145161459Y-118219500D01*
X145161457Y-118219500D01*
X144968170Y-118257947D01*
X144968160Y-118257950D01*
X144786092Y-118333364D01*
X144786079Y-118333371D01*
X144622218Y-118442860D01*
X144622214Y-118442863D01*
X144482863Y-118582214D01*
X144482860Y-118582218D01*
X144373371Y-118746079D01*
X144373364Y-118746092D01*
X144297950Y-118928160D01*
X144297947Y-118928170D01*
X144259500Y-119121456D01*
X144259500Y-119121459D01*
X144259500Y-119318541D01*
X144259500Y-119318543D01*
X144259499Y-119318543D01*
X143720500Y-119318543D01*
X143720500Y-119318541D01*
X143720500Y-119121459D01*
X143720500Y-119121456D01*
X143682052Y-118928170D01*
X143682051Y-118928169D01*
X143682051Y-118928165D01*
X143682049Y-118928160D01*
X143606635Y-118746092D01*
X143606628Y-118746079D01*
X143497139Y-118582218D01*
X143497136Y-118582214D01*
X143357785Y-118442863D01*
X143357781Y-118442860D01*
X143193920Y-118333371D01*
X143193907Y-118333364D01*
X143011839Y-118257950D01*
X143011829Y-118257947D01*
X142818543Y-118219500D01*
X142818541Y-118219500D01*
X142621459Y-118219500D01*
X142621457Y-118219500D01*
X142428170Y-118257947D01*
X142428160Y-118257950D01*
X142246092Y-118333364D01*
X142246079Y-118333371D01*
X142082218Y-118442860D01*
X142082214Y-118442863D01*
X141942863Y-118582214D01*
X141942860Y-118582218D01*
X141833371Y-118746079D01*
X141833364Y-118746092D01*
X141757950Y-118928160D01*
X141757947Y-118928170D01*
X141719500Y-119121456D01*
X141719500Y-119121459D01*
X141719500Y-119318541D01*
X141719500Y-119318543D01*
X141719499Y-119318543D01*
X138640500Y-119318543D01*
X138640500Y-119318541D01*
X138640500Y-119121459D01*
X138640500Y-119121456D01*
X138602052Y-118928170D01*
X138602051Y-118928169D01*
X138602051Y-118928165D01*
X138602049Y-118928160D01*
X138526635Y-118746092D01*
X138526628Y-118746079D01*
X138417139Y-118582218D01*
X138417136Y-118582214D01*
X138277785Y-118442863D01*
X138277781Y-118442860D01*
X138113920Y-118333371D01*
X138113907Y-118333364D01*
X137931839Y-118257950D01*
X137931829Y-118257947D01*
X137738543Y-118219500D01*
X137738541Y-118219500D01*
X137541459Y-118219500D01*
X137541457Y-118219500D01*
X137348170Y-118257947D01*
X137348160Y-118257950D01*
X137166092Y-118333364D01*
X137166079Y-118333371D01*
X137002218Y-118442860D01*
X137002214Y-118442863D01*
X136862863Y-118582214D01*
X136862860Y-118582218D01*
X136753371Y-118746079D01*
X136753364Y-118746092D01*
X136677950Y-118928160D01*
X136677947Y-118928170D01*
X136639500Y-119121456D01*
X136639500Y-119121459D01*
X136639500Y-119318541D01*
X136639500Y-119318543D01*
X136639499Y-119318543D01*
X136100500Y-119318543D01*
X136100500Y-119318541D01*
X136100500Y-119121459D01*
X136100500Y-119121456D01*
X136062052Y-118928170D01*
X136062051Y-118928169D01*
X136062051Y-118928165D01*
X136062049Y-118928160D01*
X135986635Y-118746092D01*
X135986628Y-118746079D01*
X135877139Y-118582218D01*
X135877136Y-118582214D01*
X135737785Y-118442863D01*
X135737781Y-118442860D01*
X135573920Y-118333371D01*
X135573907Y-118333364D01*
X135391839Y-118257950D01*
X135391829Y-118257947D01*
X135198543Y-118219500D01*
X135198541Y-118219500D01*
X135001459Y-118219500D01*
X135001457Y-118219500D01*
X134808170Y-118257947D01*
X134808160Y-118257950D01*
X134626092Y-118333364D01*
X134626079Y-118333371D01*
X134462218Y-118442860D01*
X134462214Y-118442863D01*
X134322863Y-118582214D01*
X134322860Y-118582218D01*
X134213371Y-118746079D01*
X134213364Y-118746092D01*
X134137950Y-118928160D01*
X134137947Y-118928170D01*
X134099500Y-119121456D01*
X134099500Y-119121459D01*
X134099500Y-119318541D01*
X134099500Y-119318543D01*
X134099499Y-119318543D01*
X133560500Y-119318543D01*
X133560500Y-119318541D01*
X133560500Y-119121459D01*
X133560500Y-119121456D01*
X133522052Y-118928170D01*
X133522051Y-118928169D01*
X133522051Y-118928165D01*
X133522049Y-118928160D01*
X133446635Y-118746092D01*
X133446628Y-118746079D01*
X133337139Y-118582218D01*
X133337136Y-118582214D01*
X133197785Y-118442863D01*
X133197781Y-118442860D01*
X133033920Y-118333371D01*
X133033907Y-118333364D01*
X132851839Y-118257950D01*
X132851829Y-118257947D01*
X132658543Y-118219500D01*
X132658541Y-118219500D01*
X132461459Y-118219500D01*
X132461457Y-118219500D01*
X132268170Y-118257947D01*
X132268160Y-118257950D01*
X132086092Y-118333364D01*
X132086079Y-118333371D01*
X131922218Y-118442860D01*
X131922214Y-118442863D01*
X131782863Y-118582214D01*
X131782860Y-118582218D01*
X131673371Y-118746079D01*
X131673364Y-118746092D01*
X131597950Y-118928160D01*
X131597947Y-118928170D01*
X131559500Y-119121456D01*
X131559500Y-119121459D01*
X131559500Y-119318541D01*
X131559500Y-119318543D01*
X131559499Y-119318543D01*
X131020500Y-119318543D01*
X131020500Y-119318541D01*
X131020500Y-119121459D01*
X131020500Y-119121456D01*
X130982052Y-118928170D01*
X130982051Y-118928169D01*
X130982051Y-118928165D01*
X130982049Y-118928160D01*
X130906635Y-118746092D01*
X130906628Y-118746079D01*
X130797139Y-118582218D01*
X130797136Y-118582214D01*
X130657785Y-118442863D01*
X130657781Y-118442860D01*
X130493920Y-118333371D01*
X130493907Y-118333364D01*
X130311839Y-118257950D01*
X130311829Y-118257947D01*
X130118543Y-118219500D01*
X130118541Y-118219500D01*
X129921459Y-118219500D01*
X129921457Y-118219500D01*
X129728170Y-118257947D01*
X129728160Y-118257950D01*
X129546092Y-118333364D01*
X129546079Y-118333371D01*
X129382218Y-118442860D01*
X129382214Y-118442863D01*
X129242863Y-118582214D01*
X129242860Y-118582218D01*
X129133371Y-118746079D01*
X129133364Y-118746092D01*
X129057950Y-118928160D01*
X129057947Y-118928170D01*
X129019500Y-119121456D01*
X129019500Y-119121459D01*
X129019500Y-119318541D01*
X129019500Y-119318543D01*
X129019499Y-119318543D01*
X125940500Y-119318543D01*
X125940500Y-119318541D01*
X125940500Y-119121459D01*
X125940500Y-119121456D01*
X125902052Y-118928170D01*
X125902051Y-118928169D01*
X125902051Y-118928165D01*
X125902049Y-118928160D01*
X125826635Y-118746092D01*
X125826628Y-118746079D01*
X125717139Y-118582218D01*
X125717136Y-118582214D01*
X125577785Y-118442863D01*
X125577781Y-118442860D01*
X125413920Y-118333371D01*
X125413907Y-118333364D01*
X125231839Y-118257950D01*
X125231829Y-118257947D01*
X125038543Y-118219500D01*
X125038541Y-118219500D01*
X124841459Y-118219500D01*
X124841457Y-118219500D01*
X124648170Y-118257947D01*
X124648160Y-118257950D01*
X124466092Y-118333364D01*
X124466079Y-118333371D01*
X124302218Y-118442860D01*
X124302214Y-118442863D01*
X124162863Y-118582214D01*
X124162860Y-118582218D01*
X124053371Y-118746079D01*
X124053364Y-118746092D01*
X123977950Y-118928160D01*
X123977947Y-118928170D01*
X123939500Y-119121456D01*
X123939500Y-119121459D01*
X123939500Y-119318541D01*
X123939500Y-119318543D01*
X123939499Y-119318543D01*
X123400500Y-119318543D01*
X123400500Y-119318541D01*
X123400500Y-119121459D01*
X123400500Y-119121456D01*
X123362052Y-118928170D01*
X123362051Y-118928169D01*
X123362051Y-118928165D01*
X123362049Y-118928160D01*
X123286635Y-118746092D01*
X123286628Y-118746079D01*
X123177139Y-118582218D01*
X123177136Y-118582214D01*
X123037785Y-118442863D01*
X123037781Y-118442860D01*
X122873920Y-118333371D01*
X122873907Y-118333364D01*
X122691839Y-118257950D01*
X122691829Y-118257947D01*
X122498543Y-118219500D01*
X122498541Y-118219500D01*
X122301459Y-118219500D01*
X122301457Y-118219500D01*
X122108170Y-118257947D01*
X122108160Y-118257950D01*
X121926092Y-118333364D01*
X121926079Y-118333371D01*
X121762218Y-118442860D01*
X121762214Y-118442863D01*
X121622863Y-118582214D01*
X121622860Y-118582218D01*
X121513371Y-118746079D01*
X121513364Y-118746092D01*
X121437950Y-118928160D01*
X121437947Y-118928170D01*
X121399500Y-119121456D01*
X121399500Y-119121459D01*
X121399500Y-119318541D01*
X121399500Y-119318543D01*
X121399499Y-119318543D01*
X120860500Y-119318543D01*
X120860500Y-119318541D01*
X120860500Y-119121459D01*
X120860500Y-119121456D01*
X120822052Y-118928170D01*
X120822051Y-118928169D01*
X120822051Y-118928165D01*
X120822049Y-118928160D01*
X120746635Y-118746092D01*
X120746628Y-118746079D01*
X120637139Y-118582218D01*
X120637136Y-118582214D01*
X120497785Y-118442863D01*
X120497781Y-118442860D01*
X120333920Y-118333371D01*
X120333907Y-118333364D01*
X120151839Y-118257950D01*
X120151829Y-118257947D01*
X119958543Y-118219500D01*
X119958541Y-118219500D01*
X119761459Y-118219500D01*
X119761457Y-118219500D01*
X119568170Y-118257947D01*
X119568160Y-118257950D01*
X119386092Y-118333364D01*
X119386079Y-118333371D01*
X119222218Y-118442860D01*
X119222214Y-118442863D01*
X119082863Y-118582214D01*
X119082860Y-118582218D01*
X118973371Y-118746079D01*
X118973364Y-118746092D01*
X118897950Y-118928160D01*
X118897947Y-118928170D01*
X118859500Y-119121456D01*
X118859500Y-119121459D01*
X118859500Y-119318541D01*
X118859500Y-119318543D01*
X118859499Y-119318543D01*
X118320500Y-119318543D01*
X118320500Y-119318541D01*
X118320500Y-119121459D01*
X118320500Y-119121456D01*
X118282052Y-118928170D01*
X118282051Y-118928169D01*
X118282051Y-118928165D01*
X118282049Y-118928160D01*
X118206635Y-118746092D01*
X118206628Y-118746079D01*
X118097139Y-118582218D01*
X118097136Y-118582214D01*
X117957785Y-118442863D01*
X117957781Y-118442860D01*
X117793920Y-118333371D01*
X117793907Y-118333364D01*
X117611839Y-118257950D01*
X117611829Y-118257947D01*
X117418543Y-118219500D01*
X117418541Y-118219500D01*
X117221459Y-118219500D01*
X117221457Y-118219500D01*
X117028170Y-118257947D01*
X117028160Y-118257950D01*
X116846092Y-118333364D01*
X116846079Y-118333371D01*
X116682218Y-118442860D01*
X116682214Y-118442863D01*
X116542863Y-118582214D01*
X116542860Y-118582218D01*
X116433371Y-118746079D01*
X116433364Y-118746092D01*
X116357950Y-118928160D01*
X116357947Y-118928170D01*
X116319500Y-119121456D01*
X116319500Y-119121459D01*
X116319500Y-119318541D01*
X116319500Y-119318543D01*
X116319499Y-119318543D01*
X113240500Y-119318543D01*
X113240500Y-119318541D01*
X113240500Y-119121459D01*
X113240500Y-119121456D01*
X113202052Y-118928170D01*
X113202051Y-118928169D01*
X113202051Y-118928165D01*
X113202049Y-118928160D01*
X113126635Y-118746092D01*
X113126628Y-118746079D01*
X113017139Y-118582218D01*
X113017136Y-118582214D01*
X112877785Y-118442863D01*
X112877781Y-118442860D01*
X112713920Y-118333371D01*
X112713907Y-118333364D01*
X112531839Y-118257950D01*
X112531829Y-118257947D01*
X112338543Y-118219500D01*
X112338541Y-118219500D01*
X112141459Y-118219500D01*
X112141457Y-118219500D01*
X111948170Y-118257947D01*
X111948160Y-118257950D01*
X111766092Y-118333364D01*
X111766079Y-118333371D01*
X111602218Y-118442860D01*
X111602214Y-118442863D01*
X111462863Y-118582214D01*
X111462860Y-118582218D01*
X111353371Y-118746079D01*
X111353364Y-118746092D01*
X111277950Y-118928160D01*
X111277947Y-118928170D01*
X111239500Y-119121456D01*
X111239500Y-119121459D01*
X111239500Y-119318541D01*
X111239500Y-119318543D01*
X111239499Y-119318543D01*
X110700500Y-119318543D01*
X110700500Y-119318541D01*
X110700500Y-119121459D01*
X110700500Y-119121456D01*
X110662052Y-118928170D01*
X110662051Y-118928169D01*
X110662051Y-118928165D01*
X110662049Y-118928160D01*
X110586635Y-118746092D01*
X110586628Y-118746079D01*
X110477139Y-118582218D01*
X110477136Y-118582214D01*
X110337785Y-118442863D01*
X110337781Y-118442860D01*
X110173920Y-118333371D01*
X110173907Y-118333364D01*
X109991839Y-118257950D01*
X109991829Y-118257947D01*
X109798543Y-118219500D01*
X109798541Y-118219500D01*
X109601459Y-118219500D01*
X109601457Y-118219500D01*
X109408170Y-118257947D01*
X109408160Y-118257950D01*
X109226092Y-118333364D01*
X109226079Y-118333371D01*
X109062218Y-118442860D01*
X109062214Y-118442863D01*
X108922863Y-118582214D01*
X108922860Y-118582218D01*
X108813371Y-118746079D01*
X108813364Y-118746092D01*
X108737950Y-118928160D01*
X108737947Y-118928170D01*
X108699500Y-119121456D01*
X108699500Y-119121459D01*
X108699500Y-119318541D01*
X108699500Y-119318543D01*
X108699499Y-119318543D01*
X108160500Y-119318543D01*
X108160500Y-119318541D01*
X108160500Y-119121459D01*
X108160500Y-119121456D01*
X108122052Y-118928170D01*
X108122051Y-118928169D01*
X108122051Y-118928165D01*
X108122049Y-118928160D01*
X108046635Y-118746092D01*
X108046628Y-118746079D01*
X107937139Y-118582218D01*
X107937136Y-118582214D01*
X107797785Y-118442863D01*
X107797781Y-118442860D01*
X107633920Y-118333371D01*
X107633907Y-118333364D01*
X107451839Y-118257950D01*
X107451829Y-118257947D01*
X107258543Y-118219500D01*
X107258541Y-118219500D01*
X107061459Y-118219500D01*
X107061457Y-118219500D01*
X106868170Y-118257947D01*
X106868160Y-118257950D01*
X106686092Y-118333364D01*
X106686079Y-118333371D01*
X106522218Y-118442860D01*
X106522214Y-118442863D01*
X106382863Y-118582214D01*
X106382860Y-118582218D01*
X106273371Y-118746079D01*
X106273364Y-118746092D01*
X106197950Y-118928160D01*
X106197947Y-118928170D01*
X106159500Y-119121456D01*
X106159500Y-119121459D01*
X106159500Y-119318541D01*
X106159500Y-119318543D01*
X106159499Y-119318543D01*
X105620500Y-119318543D01*
X105620500Y-119318541D01*
X105620500Y-119121459D01*
X105620500Y-119121456D01*
X105582052Y-118928170D01*
X105582051Y-118928169D01*
X105582051Y-118928165D01*
X105582049Y-118928160D01*
X105506635Y-118746092D01*
X105506628Y-118746079D01*
X105397139Y-118582218D01*
X105397136Y-118582214D01*
X105257785Y-118442863D01*
X105257781Y-118442860D01*
X105093920Y-118333371D01*
X105093907Y-118333364D01*
X104911839Y-118257950D01*
X104911829Y-118257947D01*
X104718543Y-118219500D01*
X104718541Y-118219500D01*
X104521459Y-118219500D01*
X104521457Y-118219500D01*
X104328170Y-118257947D01*
X104328160Y-118257950D01*
X104146092Y-118333364D01*
X104146079Y-118333371D01*
X103982218Y-118442860D01*
X103982214Y-118442863D01*
X103842863Y-118582214D01*
X103842860Y-118582218D01*
X103733371Y-118746079D01*
X103733364Y-118746092D01*
X103657950Y-118928160D01*
X103657947Y-118928170D01*
X103619500Y-119121456D01*
X103619500Y-119121459D01*
X103619500Y-119318541D01*
X103619500Y-119318543D01*
X103619499Y-119318543D01*
X100540500Y-119318543D01*
X100540500Y-119318541D01*
X100540500Y-119121459D01*
X100540500Y-119121456D01*
X100502052Y-118928170D01*
X100502051Y-118928169D01*
X100502051Y-118928165D01*
X100502049Y-118928160D01*
X100426635Y-118746092D01*
X100426628Y-118746079D01*
X100317139Y-118582218D01*
X100317136Y-118582214D01*
X100177785Y-118442863D01*
X100177781Y-118442860D01*
X100013920Y-118333371D01*
X100013910Y-118333366D01*
X99917047Y-118293244D01*
X99862644Y-118249403D01*
X99840579Y-118183109D01*
X99840500Y-118178683D01*
X99840500Y-84515039D01*
X99839556Y-84511516D01*
X99820021Y-84438611D01*
X99820017Y-84438604D01*
X99780464Y-84370095D01*
X99780458Y-84370087D01*
X99726419Y-84316048D01*
X99692934Y-84254725D01*
X99690100Y-84228367D01*
X99690100Y-84138310D01*
X99690100Y-84138308D01*
X99655992Y-84011014D01*
X99590100Y-83896886D01*
X99496914Y-83803700D01*
X99439850Y-83770754D01*
X99382787Y-83737808D01*
X99319139Y-83720754D01*
X99255492Y-83703700D01*
X99123708Y-83703700D01*
X98996412Y-83737808D01*
X98882286Y-83803700D01*
X98882283Y-83803702D01*
X98789102Y-83896883D01*
X98789100Y-83896886D01*
X98723208Y-84011012D01*
X98689100Y-84138308D01*
X98689100Y-84270092D01*
X98700903Y-84314140D01*
X98723208Y-84397387D01*
X98747005Y-84438604D01*
X98789100Y-84511514D01*
X98882286Y-84604700D01*
X98996414Y-84670592D01*
X99123708Y-84704700D01*
X99123709Y-84704700D01*
X99131685Y-84705750D01*
X99195582Y-84734016D01*
X99234053Y-84792340D01*
X99239500Y-84828689D01*
X99239500Y-118178683D01*
X99219815Y-118245722D01*
X99167011Y-118291477D01*
X99162953Y-118293244D01*
X99066089Y-118333366D01*
X99066079Y-118333371D01*
X98902218Y-118442860D01*
X98902214Y-118442863D01*
X98762863Y-118582214D01*
X98762860Y-118582218D01*
X98653371Y-118746079D01*
X98653364Y-118746092D01*
X98577950Y-118928160D01*
X98577947Y-118928170D01*
X98539500Y-119121456D01*
X98539500Y-119121459D01*
X98539500Y-119318541D01*
X98539500Y-119318543D01*
X98539499Y-119318543D01*
X98000500Y-119318543D01*
X98000500Y-119318541D01*
X98000500Y-119121459D01*
X98000500Y-119121456D01*
X97962052Y-118928170D01*
X97962051Y-118928169D01*
X97962051Y-118928165D01*
X97962049Y-118928160D01*
X97886635Y-118746092D01*
X97886628Y-118746079D01*
X97777139Y-118582218D01*
X97777136Y-118582214D01*
X97637785Y-118442863D01*
X97637781Y-118442860D01*
X97473920Y-118333371D01*
X97473907Y-118333364D01*
X97291839Y-118257950D01*
X97291829Y-118257947D01*
X97098543Y-118219500D01*
X97098541Y-118219500D01*
X96901459Y-118219500D01*
X96901457Y-118219500D01*
X96708170Y-118257947D01*
X96708160Y-118257950D01*
X96526092Y-118333364D01*
X96526079Y-118333371D01*
X96362218Y-118442860D01*
X96362214Y-118442863D01*
X96222863Y-118582214D01*
X96222860Y-118582218D01*
X96113371Y-118746079D01*
X96113364Y-118746092D01*
X96037950Y-118928160D01*
X96037947Y-118928170D01*
X95999500Y-119121456D01*
X95999500Y-119121459D01*
X95999500Y-119318541D01*
X95999500Y-119318543D01*
X95999499Y-119318543D01*
X8500500Y-119318543D01*
X8500500Y-44324234D01*
X36534500Y-44324234D01*
X36534500Y-44475765D01*
X36573719Y-44622136D01*
X36611602Y-44687750D01*
X36649485Y-44753365D01*
X36756635Y-44860515D01*
X36887865Y-44936281D01*
X37034234Y-44975500D01*
X37034236Y-44975500D01*
X37185764Y-44975500D01*
X37185766Y-44975500D01*
X37332135Y-44936281D01*
X37463365Y-44860515D01*
X37570515Y-44753365D01*
X37646281Y-44622135D01*
X37685500Y-44475766D01*
X37685500Y-44324234D01*
X42314500Y-44324234D01*
X42314500Y-44475765D01*
X42353719Y-44622136D01*
X42391602Y-44687750D01*
X42429485Y-44753365D01*
X42536635Y-44860515D01*
X42667865Y-44936281D01*
X42814234Y-44975500D01*
X42814236Y-44975500D01*
X42965764Y-44975500D01*
X42965766Y-44975500D01*
X43112135Y-44936281D01*
X43243365Y-44860515D01*
X43350515Y-44753365D01*
X43426281Y-44622135D01*
X43465500Y-44475766D01*
X43465500Y-44324234D01*
X43426281Y-44177865D01*
X43350515Y-44046635D01*
X43243365Y-43939485D01*
X43177750Y-43901602D01*
X43112136Y-43863719D01*
X43038950Y-43844109D01*
X42965766Y-43824500D01*
X42814234Y-43824500D01*
X42667863Y-43863719D01*
X42536635Y-43939485D01*
X42536632Y-43939487D01*
X42429487Y-44046632D01*
X42429485Y-44046635D01*
X42353719Y-44177863D01*
X42314500Y-44324234D01*
X37685500Y-44324234D01*
X37646281Y-44177865D01*
X37570515Y-44046635D01*
X37463365Y-43939485D01*
X37397750Y-43901602D01*
X37332136Y-43863719D01*
X37258950Y-43844109D01*
X37185766Y-43824500D01*
X37034234Y-43824500D01*
X36887863Y-43863719D01*
X36756635Y-43939485D01*
X36756632Y-43939487D01*
X36649487Y-44046632D01*
X36649485Y-44046635D01*
X36573719Y-44177863D01*
X36534500Y-44324234D01*
X8500500Y-44324234D01*
X8500500Y-15878711D01*
X14149500Y-15878711D01*
X14149500Y-16121288D01*
X14181161Y-16361785D01*
X14243947Y-16596104D01*
X14336773Y-16820205D01*
X14336776Y-16820212D01*
X14458064Y-17030289D01*
X14458066Y-17030292D01*
X14458067Y-17030293D01*
X14605733Y-17222736D01*
X14605739Y-17222743D01*
X14777256Y-17394260D01*
X14777262Y-17394265D01*
X14969711Y-17541936D01*
X15179788Y-17663224D01*
X15403900Y-17756054D01*
X15638211Y-17818838D01*
X15818586Y-17842584D01*
X15878711Y-17850500D01*
X15878712Y-17850500D01*
X16121289Y-17850500D01*
X16169388Y-17844167D01*
X16361789Y-17818838D01*
X16596100Y-17756054D01*
X16820212Y-17663224D01*
X17030289Y-17541936D01*
X17222738Y-17394265D01*
X17394265Y-17222738D01*
X17541936Y-17030289D01*
X17663224Y-16820212D01*
X17756054Y-16596100D01*
X17818838Y-16361789D01*
X17850500Y-16121288D01*
X17850500Y-15878712D01*
X17850500Y-15878711D01*
X342149500Y-15878711D01*
X342149500Y-16121288D01*
X342181161Y-16361785D01*
X342243947Y-16596104D01*
X342336773Y-16820205D01*
X342336776Y-16820212D01*
X342458064Y-17030289D01*
X342458066Y-17030292D01*
X342458067Y-17030293D01*
X342605733Y-17222736D01*
X342605739Y-17222743D01*
X342777256Y-17394260D01*
X342777262Y-17394265D01*
X342969711Y-17541936D01*
X343179788Y-17663224D01*
X343403900Y-17756054D01*
X343638211Y-17818838D01*
X343818586Y-17842584D01*
X343878711Y-17850500D01*
X343878712Y-17850500D01*
X344121289Y-17850500D01*
X344169388Y-17844167D01*
X344361789Y-17818838D01*
X344596100Y-17756054D01*
X344820212Y-17663224D01*
X345030289Y-17541936D01*
X345222738Y-17394265D01*
X345394265Y-17222738D01*
X345541936Y-17030289D01*
X345663224Y-16820212D01*
X345756054Y-16596100D01*
X345818838Y-16361789D01*
X345850500Y-16121288D01*
X345850500Y-15878712D01*
X345818838Y-15638211D01*
X345756054Y-15403900D01*
X345663224Y-15179788D01*
X345541936Y-14969711D01*
X345394265Y-14777262D01*
X345394260Y-14777256D01*
X345222743Y-14605739D01*
X345222736Y-14605733D01*
X345030293Y-14458067D01*
X345030292Y-14458066D01*
X345030289Y-14458064D01*
X344820212Y-14336776D01*
X344820205Y-14336773D01*
X344596104Y-14243947D01*
X344361785Y-14181161D01*
X344121289Y-14149500D01*
X344121288Y-14149500D01*
X343878712Y-14149500D01*
X343878711Y-14149500D01*
X343638214Y-14181161D01*
X343403895Y-14243947D01*
X343179794Y-14336773D01*
X343179785Y-14336777D01*
X342969706Y-14458067D01*
X342777263Y-14605733D01*
X342777256Y-14605739D01*
X342605739Y-14777256D01*
X342605733Y-14777263D01*
X342458067Y-14969706D01*
X342336777Y-15179785D01*
X342336773Y-15179794D01*
X342243947Y-15403895D01*
X342181161Y-15638214D01*
X342149500Y-15878711D01*
X17850500Y-15878711D01*
X17818838Y-15638211D01*
X17756054Y-15403900D01*
X17663224Y-15179788D01*
X17541936Y-14969711D01*
X17394265Y-14777262D01*
X17394260Y-14777256D01*
X17222743Y-14605739D01*
X17222736Y-14605733D01*
X17030293Y-14458067D01*
X17030292Y-14458066D01*
X17030289Y-14458064D01*
X16820212Y-14336776D01*
X16820205Y-14336773D01*
X16596104Y-14243947D01*
X16361785Y-14181161D01*
X16121289Y-14149500D01*
X16121288Y-14149500D01*
X15878712Y-14149500D01*
X15878711Y-14149500D01*
X15638214Y-14181161D01*
X15403895Y-14243947D01*
X15179794Y-14336773D01*
X15179785Y-14336777D01*
X14969706Y-14458067D01*
X14777263Y-14605733D01*
X14777256Y-14605739D01*
X14605739Y-14777256D01*
X14605733Y-14777263D01*
X14458067Y-14969706D01*
X14336777Y-15179785D01*
X14336773Y-15179794D01*
X14243947Y-15403895D01*
X14181161Y-15638214D01*
X14149500Y-15878711D01*
X8500500Y-15878711D01*
X8500500Y-8624500D01*
X8520185Y-8557461D01*
X8572989Y-8511706D01*
X8624500Y-8500500D01*
X351375500Y-8500500D01*
X351442539Y-8520185D01*
G37*
%TD.AperFunction*%
%TD*%
M02*
