M48
; DRILL file KiCad 10.0.3 date 2026-05-25T16:53:10
; FORMAT={-:-/ absolute / metric / decimal}
; #@! TF.CreationDate,2026-05-25T16:53:10+10:00
; #@! TF.GenerationSoftware,Kicad,Pcbnew,10.0.3
; #@! TF.FileFunction,MixedPlating,1,2
FMAT,2
METRIC
; #@! TA.AperFunction,Plated,PTH,ViaDrill
T1C0.300
; #@! TA.AperFunction,Plated,PTH,ComponentDrill
T2C0.600
; #@! TA.AperFunction,Plated,PTH,ComponentDrill
T3C0.800
; #@! TA.AperFunction,Plated,PTH,ComponentDrill
T4C1.000
; #@! TA.AperFunction,Plated,PTH,ComponentDrill
T5C1.300
; #@! TA.AperFunction,NonPlated,NPTH,ComponentDrill
T6C0.650
; #@! TA.AperFunction,NonPlated,NPTH,ComponentDrill
T7C3.200
%
G90
G05
T1
X66.266Y-131.894
X66.266Y-139.15
X96.197Y-134.688
X99.19Y-84.204
X114.155Y-141.205
X144.016Y-134.685
X150.072Y-138.908
X156.058Y-72.235
X156.058Y-129.09
X156.058Y-138.908
X162.045Y-191.931
X165.004Y-188.904
X165.038Y-182.953
X174.807Y-81.977
X179.171Y-47.463
X180.003Y-48.295
X180.666Y-57.408
X183.424Y-77.792
X185.989Y-81.212
X191.976Y-125.93
X197.962Y-63.257
X201.839Y-96.663
X206.941Y-119.535
X207.304Y-132.839
X209.934Y-51.163
X209.934Y-63.257
X209.934Y-81.808
X212.927Y-188.938
X221.605Y-48.295
X221.907Y-54.28
X222.705Y-69.798
X227.585Y-96.174
X254.831Y-44.517
X299.727Y-141.983
X332.687Y-144.052
X335.109Y-142.199
T3
X225.0Y-145.0
X232.62Y-145.0
T4
X47.0Y-134.46
X47.0Y-137.0
X49.54Y-134.46
X49.54Y-137.0
X52.08Y-134.46
X52.08Y-137.0
X54.62Y-134.46
X54.62Y-137.0
X57.16Y-134.46
X57.16Y-137.0
X59.7Y-134.46
X59.7Y-137.0
X62.24Y-134.46
X62.24Y-137.0
X64.78Y-134.46
X64.78Y-137.0
X67.32Y-134.46
X67.32Y-137.0
X69.86Y-134.46
X69.86Y-137.0
X72.4Y-134.46
X72.4Y-137.0
X74.94Y-134.46
X74.94Y-137.0
X77.48Y-134.46
X77.48Y-137.0
X97.0Y-119.22
X97.0Y-137.0
X99.54Y-119.22
X99.54Y-137.0
X102.08Y-119.22
X102.08Y-137.0
X104.62Y-119.22
X104.62Y-137.0
X107.16Y-119.22
X107.16Y-137.0
X109.7Y-119.22
X109.7Y-137.0
X112.24Y-119.22
X112.24Y-137.0
X114.78Y-119.22
X114.78Y-137.0
X117.32Y-119.22
X117.32Y-137.0
X119.86Y-119.22
X119.86Y-137.0
X122.4Y-119.22
X122.4Y-137.0
X124.94Y-119.22
X124.94Y-137.0
X127.48Y-119.22
X127.48Y-137.0
X130.02Y-119.22
X130.02Y-137.0
X132.56Y-119.22
X132.56Y-137.0
X135.1Y-119.22
X135.1Y-137.0
X137.64Y-119.22
X137.64Y-137.0
X140.18Y-119.22
X140.18Y-137.0
X142.72Y-119.22
X142.72Y-137.0
X145.26Y-119.22
X145.26Y-137.0
X150.0Y-132.0
X152.54Y-132.0
X155.08Y-132.0
X157.62Y-132.0
X160.16Y-132.0
X162.7Y-132.0
X165.24Y-132.0
X167.78Y-132.0
X170.32Y-132.0
X185.0Y-132.0
X187.54Y-132.0
X190.08Y-132.0
X192.62Y-132.0
X195.16Y-132.0
X197.7Y-132.0
X200.24Y-132.0
X202.78Y-132.0
X205.32Y-132.0
X225.0Y-127.0
X227.54Y-127.0
X230.08Y-127.0
X260.0Y-127.0
X262.54Y-127.0
X265.08Y-127.0
X267.62Y-127.0
X295.0Y-127.0
X297.54Y-127.0
X300.08Y-127.0
X302.62Y-127.0
X315.0Y-47.0
X320.0Y-47.0
X330.0Y-127.0
X330.0Y-167.0
X332.54Y-127.0
X332.54Y-167.0
X335.08Y-127.0
X335.08Y-167.0
X337.62Y-127.0
X337.62Y-167.0
T5
X45.0Y-191.84
X45.0Y-196.92
X45.0Y-202.0
X85.0Y-191.84
X85.0Y-196.92
X85.0Y-202.0
X125.0Y-191.84
X125.0Y-196.92
X125.0Y-202.0
X165.0Y-191.84
X165.0Y-196.92
X165.0Y-202.0
X205.0Y-191.84
X205.0Y-196.92
X205.0Y-202.0
X245.0Y-191.84
X245.0Y-196.92
X245.0Y-202.0
T6
X37.11Y-44.4
X42.89Y-44.4
T7
X16.0Y-16.0
X16.0Y-314.0
X344.0Y-16.0
X344.0Y-314.0
T2
X35.68Y-43.32G85X35.68Y-44.42
G05
X35.68Y-47.75G85X35.68Y-48.35
G05
X44.32Y-43.32G85X44.32Y-44.42
G05
X44.32Y-47.75G85X44.32Y-48.35
G05
M30
